Shaidur-Regular.ufo
<glyph name="exclam" format="2">
  <advance width="231"/>
  <unicode hex="0021"/>
  <outline>
    <contour>
      <point x="162" y="51" type="curve" smooth="yes"/>
      <point x="162" y="41"/>
      <point x="161" y="32"/>
      <point x="158" y="24" type="curve" smooth="yes"/>
      <point x="155" y="16"/>
      <point x="151" y="9"/>
      <point x="146" y="3" type="curve" smooth="yes"/>
      <point x="141" y="-3"/>
      <point x="134" y="-8"/>
      <point x="127" y="-11" type="curve" smooth="yes"/>
      <point x="120" y="-14"/>
      <point x="113" y="-17"/>
      <point x="105" y="-17" type="curve" smooth="yes"/>
      <point x="90" y="-17"/>
      <point x="79" y="-13"/>
      <point x="73" y="-5" type="curve" smooth="yes"/>
      <point x="67" y="3"/>
      <point x="63" y="15"/>
      <point x="63" y="30" type="curve" smooth="yes"/>
      <point x="63" y="40"/>
      <point x="65" y="48"/>
      <point x="68" y="56" type="curve" smooth="yes"/>
      <point x="71" y="64"/>
      <point x="74" y="72"/>
      <point x="80" y="78" type="curve" smooth="yes"/>
      <point x="86" y="84"/>
      <point x="92" y="89"/>
      <point x="99" y="93" type="curve" smooth="yes"/>
      <point x="106" y="97"/>
      <point x="113" y="98"/>
      <point x="121" y="98" type="curve" smooth="yes"/>
      <point x="135" y="98"/>
      <point x="146" y="94"/>
      <point x="152" y="86" type="curve" smooth="yes"/>
      <point x="158" y="78"/>
      <point x="162" y="66"/>
    </contour>
    <contour>
      <point x="136" y="162" type="line"/>
      <point x="130" y="158"/>
      <point x="126" y="155"/>
      <point x="122" y="153" type="curve" smooth="yes"/>
      <point x="118" y="151"/>
      <point x="112" y="148"/>
      <point x="105" y="146" type="curve"/>
      <point x="93" y="154" type="line"/>
      <point x="74" y="582" type="line"/>
      <point x="84" y="589"/>
      <point x="94" y="595"/>
      <point x="106" y="601" type="curve" smooth="yes"/>
      <point x="118" y="607"/>
      <point x="128" y="612"/>
      <point x="138" y="616" type="curve"/>
      <point x="156" y="606" type="line"/>
    </contour>
  </outline>
</glyph>
<glyph name="quotedbl" format="2">
  <advance width="361"/>
  <unicode hex="0022"/>
  <outline>
    <contour>
      <point x="129" y="347" type="line"/>
      <point x="127" y="346"/>
      <point x="124" y="345"/>
      <point x="121" y="344" type="curve" smooth="yes"/>
      <point x="118" y="343"/>
      <point x="114" y="342"/>
      <point x="110" y="341" type="curve" smooth="yes"/>
      <point x="106" y="340"/>
      <point x="103" y="340"/>
      <point x="99" y="339" type="curve" smooth="yes"/>
      <point x="95" y="338"/>
      <point x="92" y="338"/>
      <point x="89" y="338" type="curve"/>
      <point x="66" y="594" type="line"/>
      <point x="69" y="596"/>
      <point x="74" y="597"/>
      <point x="80" y="599" type="curve" smooth="yes"/>
      <point x="86" y="601"/>
      <point x="92" y="604"/>
      <point x="98" y="606" type="curve" smooth="yes"/>
      <point x="116" y="612" type="line"/>
      <point x="116" y="612"/>
      <point x="126" y="615"/>
      <point x="129" y="616" type="curve"/>
      <point x="146" y="607" type="line"/>
    </contour>
    <contour>
      <point x="278" y="347" type="line"/>
      <point x="276" y="346"/>
      <point x="273" y="345"/>
      <point x="270" y="344" type="curve" smooth="yes"/>
      <point x="267" y="343"/>
      <point x="263" y="342"/>
      <point x="259" y="341" type="curve" smooth="yes"/>
      <point x="255" y="340"/>
      <point x="252" y="340"/>
      <point x="248" y="339" type="curve" smooth="yes"/>
      <point x="244" y="338"/>
      <point x="241" y="338"/>
      <point x="238" y="338" type="curve"/>
      <point x="215" y="594" type="line"/>
      <point x="218" y="596"/>
      <point x="223" y="597"/>
      <point x="229" y="599" type="curve" smooth="yes"/>
      <point x="235" y="601"/>
      <point x="240" y="604"/>
      <point x="246" y="606" type="curve" smooth="yes"/>
      <point x="252" y="608"/>
      <point x="259" y="610"/>
      <point x="265" y="612" type="curve" smooth="yes"/>
      <point x="271" y="614"/>
      <point x="275" y="615"/>
      <point x="278" y="616" type="curve"/>
      <point x="296" y="607" type="line"/>
    </contour>
  </outline>
</glyph>
<glyph name="numbersign" format="2">
  <advance width="399"/>
  <unicode hex="0023"/>
  <outline>
    <contour>
      <point x="166" y="246" type="line"/>
      <point x="245" y="246" type="line"/>
      <point x="275" y="352" type="line"/>
      <point x="197" y="352" type="line"/>
    </contour>
    <contour>
      <point x="335" y="400" type="line"/>
      <point x="398" y="400" type="line"/>
      <point x="409" y="390" type="line"/>
      <point x="407" y="384"/>
      <point x="404" y="377"/>
      <point x="402" y="370" type="curve" smooth="yes"/>
      <point x="400" y="363"/>
      <point x="398" y="357"/>
      <point x="396" y="352" type="curve"/>
      <point x="322" y="352" type="line"/>
      <point x="291" y="246" type="line"/>
      <point x="354" y="246" type="line"/>
      <point x="363" y="234" type="line"/>
      <point x="361" y="228"/>
      <point x="360" y="222"/>
      <point x="358" y="215" type="curve" smooth="yes"/>
      <point x="356" y="208"/>
      <point x="353" y="203"/>
      <point x="351" y="198" type="curve"/>
      <point x="278" y="198" type="line"/>
      <point x="242" y="70" type="line"/>
      <point x="237" y="66"/>
      <point x="230" y="63"/>
      <point x="224" y="61" type="curve" smooth="yes"/>
      <point x="218" y="59"/>
      <point x="210" y="55"/>
      <point x="203" y="53" type="curve"/>
      <point x="192" y="61" type="line"/>
      <point x="231" y="198" type="line"/>
      <point x="152" y="198" type="line"/>
      <point x="116" y="70" type="line"/>
      <point x="111" y="66"/>
      <point x="105" y="63"/>
      <point x="99" y="61" type="curve" smooth="yes"/>
      <point x="93" y="59"/>
      <point x="85" y="55"/>
      <point x="78" y="53" type="curve"/>
      <point x="68" y="61" type="line"/>
      <point x="106" y="198" type="line"/>
      <point x="46" y="198" type="line"/>
      <point x="36" y="208" type="line"/>
      <point x="38" y="214"/>
      <point x="40" y="219"/>
      <point x="42" y="226" type="curve" smooth="yes"/>
      <point x="44" y="233"/>
      <point x="47" y="240"/>
      <point x="49" y="246" type="curve"/>
      <point x="120" y="246" type="line"/>
      <point x="150" y="352" type="line"/>
      <point x="90" y="352" type="line"/>
      <point x="80" y="362" type="line"/>
      <point x="82" y="368"/>
      <point x="84" y="376"/>
      <point x="86" y="382" type="curve" smooth="yes"/>
      <point x="88" y="388"/>
      <point x="91" y="394"/>
      <point x="93" y="400" type="curve"/>
      <point x="164" y="400" type="line"/>
      <point x="199" y="521" type="line"/>
      <point x="205" y="526"/>
      <point x="211" y="528"/>
      <point x="217" y="530" type="curve" smooth="yes"/>
      <point x="223" y="532"/>
      <point x="229" y="536"/>
      <point x="235" y="538" type="curve"/>
      <point x="247" y="528" type="line"/>
      <point x="210" y="400" type="line"/>
      <point x="289" y="400" type="line"/>
      <point x="323" y="521" type="line"/>
      <point x="329" y="526"/>
      <point x="336" y="528"/>
      <point x="342" y="530" type="curve" smooth="yes"/>
      <point x="348" y="532"/>
      <point x="355" y="536"/>
      <point x="361" y="538" type="curve"/>
      <point x="372" y="528" type="line"/>
    </contour>
  </outline>
</glyph>
<glyph name="dollar" format="2">
  <advance width="399"/>
  <unicode hex="0024"/>
  <outline>
    <contour>
      <point x="94" y="398" type="curve" smooth="yes"/>
      <point x="94" y="388"/>
      <point x="95" y="379"/>
      <point x="100" y="371" type="curve" smooth="yes"/>
      <point x="105" y="363"/>
      <point x="110" y="356"/>
      <point x="118" y="350" type="curve" smooth="yes"/>
      <point x="126" y="344"/>
      <point x="136" y="337"/>
      <point x="146" y="332" type="curve" smooth="yes"/>
      <point x="156" y="327"/>
      <point x="168" y="323"/>
      <point x="180" y="318" type="curve"/>
      <point x="180" y="464" type="line"/>
      <point x="164" y="463"/>
      <point x="150" y="461"/>
      <point x="139" y="457" type="curve" smooth="yes"/>
      <point x="128" y="453"/>
      <point x="119" y="448"/>
      <point x="113" y="442" type="curve" smooth="yes"/>
      <point x="107" y="436"/>
      <point x="101" y="429"/>
      <point x="98" y="421" type="curve" smooth="yes"/>
      <point x="95" y="413"/>
      <point x="94" y="405"/>
    </contour>
    <contour>
      <point x="302" y="134" type="curve" smooth="yes"/>
      <point x="302" y="147"/>
      <point x="301" y="160"/>
      <point x="296" y="170" type="curve" smooth="yes"/>
      <point x="291" y="180"/>
      <point x="286" y="188"/>
      <point x="278" y="196" type="curve" smooth="yes"/>
      <point x="270" y="204"/>
      <point x="260" y="210"/>
      <point x="250" y="216" type="curve" smooth="yes"/>
      <point x="240" y="222"/>
      <point x="229" y="227"/>
      <point x="217" y="232" type="curve"/>
      <point x="217" y="47" type="line"/>
      <point x="228" y="49"/>
      <point x="239" y="51"/>
      <point x="249" y="56" type="curve" smooth="yes"/>
      <point x="259" y="61"/>
      <point x="269" y="67"/>
      <point x="277" y="75" type="curve" smooth="yes"/>
      <point x="285" y="83"/>
      <point x="290" y="92"/>
      <point x="295" y="102" type="curve" smooth="yes"/>
      <point x="300" y="112"/>
      <point x="302" y="122"/>
    </contour>
    <contour>
      <point x="217" y="-59" type="line"/>
      <point x="215" y="-61"/>
      <point x="212" y="-63"/>
      <point x="210" y="-65" type="curve" smooth="yes"/>
      <point x="208" y="-67"/>
      <point x="208" y="-67"/>
      <point x="206" y="-68" type="curve" smooth="yes"/>
      <point x="204" y="-69"/>
      <point x="201" y="-69"/>
      <point x="199" y="-70" type="curve" smooth="yes"/>
      <point x="197" y="-71"/>
      <point x="194" y="-71"/>
      <point x="191" y="-72" type="curve"/>
      <point x="180" y="-63" type="line"/>
      <point x="180" y="-4" type="line"/>
      <point x="166" y="-4"/>
      <point x="153" y="-4"/>
      <point x="142" y="-2" type="curve" smooth="yes"/>
      <point x="131" y="0"/>
      <point x="121" y="2"/>
      <point x="110" y="6" type="curve" smooth="yes"/>
      <point x="99" y="10"/>
      <point x="88" y="14"/>
      <point x="77" y="20" type="curve" smooth="yes"/>
      <point x="66" y="26"/>
      <point x="54" y="32"/>
      <point x="42" y="40" type="curve" smooth="yes"/>
      <point x="40" y="42"/>
      <point x="39" y="46"/>
      <point x="38" y="54" type="curve" smooth="yes"/>
      <point x="37" y="62"/>
      <point x="37" y="72"/>
      <point x="37" y="82" type="curve" smooth="yes"/>
      <point x="37" y="92"/>
      <point x="37" y="103"/>
      <point x="38" y="114" type="curve" smooth="yes"/>
      <point x="39" y="125"/>
      <point x="40" y="134"/>
      <point x="42" y="142" type="curve"/>
      <point x="60" y="140" type="line"/>
      <point x="74" y="111"/>
      <point x="90" y="89"/>
      <point x="111" y="74" type="curve" smooth="yes"/>
      <point x="132" y="59"/>
      <point x="154" y="50"/>
      <point x="180" y="47" type="curve"/>
      <point x="180" y="246" type="line"/>
      <point x="163" y="252"/>
      <point x="146" y="259"/>
      <point x="129" y="266" type="curve" smooth="yes"/>
      <point x="112" y="273"/>
      <point x="98" y="282"/>
      <point x="85" y="292" type="curve" smooth="yes"/>
      <point x="72" y="302"/>
      <point x="61" y="313"/>
      <point x="53" y="327" type="curve" smooth="yes"/>
      <point x="45" y="341"/>
      <point x="41" y="358"/>
      <point x="41" y="379" type="curve" smooth="yes"/>
      <point x="41" y="391"/>
      <point x="43" y="403"/>
      <point x="48" y="417" type="curve" smooth="yes"/>
      <point x="53" y="431"/>
      <point x="59" y="442"/>
      <point x="70" y="454" type="curve" smooth="yes"/>
      <point x="81" y="466"/>
      <point x="96" y="477"/>
      <point x="114" y="486" type="curve" smooth="yes"/>
      <point x="132" y="495"/>
      <point x="154" y="500"/>
      <point x="180" y="503" type="curve"/>
      <point x="180" y="564" type="line"/>
      <point x="184" y="566"/>
      <point x="186" y="568"/>
      <point x="188" y="569" type="curve" smooth="yes"/>
      <point x="190" y="570"/>
      <point x="191" y="571"/>
      <point x="193" y="572" type="curve" smooth="yes"/>
      <point x="195" y="573"/>
      <point x="196" y="573"/>
      <point x="198" y="574" type="curve" smooth="yes"/>
      <point x="200" y="575"/>
      <point x="202" y="575"/>
      <point x="206" y="576" type="curve"/>
      <point x="217" y="566" type="line"/>
      <point x="217" y="505" type="line"/>
      <point x="230" y="505"/>
      <point x="242" y="504"/>
      <point x="254" y="502" type="curve" smooth="yes"/>
      <point x="266" y="500"/>
      <point x="278" y="497"/>
      <point x="288" y="494" type="curve" smooth="yes"/>
      <point x="298" y="491"/>
      <point x="309" y="487"/>
      <point x="317" y="482" type="curve" smooth="yes"/>
      <point x="325" y="477"/>
      <point x="332" y="473"/>
      <point x="338" y="467" type="curve" smooth="yes"/>
      <point x="340" y="465"/>
      <point x="339" y="462"/>
      <point x="337" y="457" type="curve" smooth="yes"/>
      <point x="335" y="452"/>
      <point x="332" y="446"/>
      <point x="328" y="440" type="curve" smooth="yes"/>
      <point x="324" y="434"/>
      <point x="320" y="428"/>
      <point x="315" y="422" type="curve" smooth="yes"/>
      <point x="310" y="416"/>
      <point x="306" y="412"/>
      <point x="302" y="409" type="curve"/>
      <point x="286" y="412" type="line"/>
      <point x="275" y="425"/>
      <point x="264" y="435"/>
      <point x="252" y="443" type="curve" smooth="yes"/>
      <point x="240" y="451"/>
      <point x="229" y="457"/>
      <point x="217" y="460" type="curve"/>
      <point x="217" y="303" type="line"/>
      <point x="234" y="297"/>
      <point x="251" y="290"/>
      <point x="268" y="282" type="curve" smooth="yes"/>
      <point x="285" y="274"/>
      <point x="300" y="264"/>
      <point x="314" y="253" type="curve" smooth="yes"/>
      <point x="328" y="242"/>
      <point x="338" y="228"/>
      <point x="346" y="213" type="curve" smooth="yes"/>
      <point x="354" y="198"/>
      <point x="358" y="179"/>
      <point x="358" y="157" type="curve" smooth="yes"/>
      <point x="358" y="140"/>
      <point x="356" y="123"/>
      <point x="350" y="106" type="curve" smooth="yes"/>
      <point x="344" y="89"/>
      <point x="335" y="72"/>
      <point x="323" y="58" type="curve" smooth="yes"/>
      <point x="311" y="44"/>
      <point x="296" y="31"/>
      <point x="278" y="20" type="curve" smooth="yes"/>
      <point x="260" y="9"/>
      <point x="240" y="2"/>
      <point x="217" y="-2" type="curve"/>
    </contour>
  </outline>
</glyph>
<glyph name="percent" format="2">
  <advance width="587"/>
  <unicode hex="0025"/>
  <outline>
    <contour>
      <point x="205" y="365" type="curve" smooth="yes"/>
      <point x="205" y="385"/>
      <point x="202" y="402"/>
      <point x="199" y="416" type="curve" smooth="yes"/>
      <point x="196" y="430"/>
      <point x="192" y="442"/>
      <point x="186" y="452" type="curve" smooth="yes"/>
      <point x="180" y="462"/>
      <point x="173" y="468"/>
      <point x="166" y="473" type="curve" smooth="yes"/>
      <point x="159" y="478"/>
      <point x="150" y="480"/>
      <point x="142" y="480" type="curve" smooth="yes"/>
      <point x="136" y="480"/>
      <point x="130" y="478"/>
      <point x="124" y="474" type="curve" smooth="yes"/>
      <point x="118" y="470"/>
      <point x="113" y="463"/>
      <point x="108" y="455" type="curve" smooth="yes"/>
      <point x="103" y="447"/>
      <point x="99" y="438"/>
      <point x="96" y="426" type="curve" smooth="yes"/>
      <point x="93" y="414"/>
      <point x="92" y="398"/>
      <point x="92" y="382" type="curve" smooth="yes"/>
      <point x="92" y="362"/>
      <point x="94" y="344"/>
      <point x="97" y="330" type="curve" smooth="yes"/>
      <point x="100" y="316"/>
      <point x="103" y="304"/>
      <point x="109" y="294" type="curve" smooth="yes"/>
      <point x="115" y="284"/>
      <point x="121" y="278"/>
      <point x="129" y="273" type="curve" smooth="yes"/>
      <point x="137" y="268"/>
      <point x="145" y="266"/>
      <point x="154" y="266" type="curve" smooth="yes"/>
      <point x="160" y="266"/>
      <point x="167" y="268"/>
      <point x="173" y="272" type="curve" smooth="yes"/>
      <point x="179" y="276"/>
      <point x="185" y="282"/>
      <point x="190" y="290" type="curve" smooth="yes"/>
      <point x="195" y="298"/>
      <point x="199" y="310"/>
      <point x="201" y="322" type="curve" smooth="yes"/>
      <point x="203" y="334"/>
      <point x="205" y="349"/>
    </contour>
    <contour>
      <point x="497" y="120" type="curve" smooth="yes"/>
      <point x="497" y="139"/>
      <point x="494" y="157"/>
      <point x="491" y="171" type="curve" smooth="yes"/>
      <point x="488" y="185"/>
      <point x="484" y="197"/>
      <point x="478" y="207" type="curve" smooth="yes"/>
      <point x="472" y="217"/>
      <point x="465" y="223"/>
      <point x="458" y="228" type="curve" smooth="yes"/>
      <point x="451" y="233"/>
      <point x="442" y="235"/>
      <point x="434" y="235" type="curve" smooth="yes"/>
      <point x="428" y="235"/>
      <point x="422" y="233"/>
      <point x="416" y="229" type="curve" smooth="yes"/>
      <point x="410" y="225"/>
      <point x="405" y="219"/>
      <point x="400" y="211" type="curve" smooth="yes"/>
      <point x="395" y="203"/>
      <point x="392" y="193"/>
      <point x="389" y="181" type="curve" smooth="yes"/>
      <point x="386" y="169"/>
      <point x="384" y="154"/>
      <point x="384" y="138" type="curve" smooth="yes"/>
      <point x="384" y="118"/>
      <point x="386" y="100"/>
      <point x="389" y="86" type="curve" smooth="yes"/>
      <point x="392" y="72"/>
      <point x="396" y="60"/>
      <point x="402" y="50" type="curve" smooth="yes"/>
      <point x="408" y="40"/>
      <point x="414" y="33"/>
      <point x="421" y="28" type="curve" smooth="yes"/>
      <point x="428" y="23"/>
      <point x="437" y="22"/>
      <point x="446" y="22" type="curve" smooth="yes"/>
      <point x="453" y="22"/>
      <point x="459" y="23"/>
      <point x="465" y="27" type="curve" smooth="yes"/>
      <point x="471" y="31"/>
      <point x="477" y="38"/>
      <point x="482" y="46" type="curve" smooth="yes"/>
      <point x="487" y="54"/>
      <point x="491" y="65"/>
      <point x="493" y="77" type="curve" smooth="yes"/>
      <point x="495" y="89"/>
      <point x="497" y="104"/>
    </contour>
    <contour>
      <point x="265" y="373" type="curve" smooth="yes"/>
      <point x="265" y="354"/>
      <point x="261" y="336"/>
      <point x="255" y="319" type="curve" smooth="yes"/>
      <point x="249" y="302"/>
      <point x="239" y="287"/>
      <point x="228" y="274" type="curve" smooth="yes"/>
      <point x="217" y="261"/>
      <point x="204" y="250"/>
      <point x="189" y="243" type="curve" smooth="yes"/>
      <point x="174" y="236"/>
      <point x="158" y="232"/>
      <point x="142" y="232" type="curve" smooth="yes"/>
      <point x="126" y="232"/>
      <point x="112" y="236"/>
      <point x="98" y="243" type="curve" smooth="yes"/>
      <point x="84" y="250"/>
      <point x="72" y="261"/>
      <point x="62" y="274" type="curve" smooth="yes"/>
      <point x="52" y="287"/>
      <point x="46" y="302"/>
      <point x="40" y="319" type="curve" smooth="yes"/>
      <point x="34" y="336"/>
      <point x="32" y="354"/>
      <point x="32" y="373" type="curve" smooth="yes"/>
      <point x="32" y="392"/>
      <point x="36" y="410"/>
      <point x="42" y="427" type="curve" smooth="yes"/>
      <point x="48" y="444"/>
      <point x="58" y="459"/>
      <point x="69" y="472" type="curve" smooth="yes"/>
      <point x="80" y="485"/>
      <point x="93" y="495"/>
      <point x="107" y="502" type="curve" smooth="yes"/>
      <point x="121" y="509"/>
      <point x="138" y="514"/>
      <point x="154" y="514" type="curve" smooth="yes"/>
      <point x="171" y="514"/>
      <point x="185" y="509"/>
      <point x="199" y="502" type="curve" smooth="yes"/>
      <point x="213" y="495"/>
      <point x="224" y="485"/>
      <point x="234" y="472" type="curve" smooth="yes"/>
      <point x="244" y="459"/>
      <point x="251" y="445"/>
      <point x="257" y="428" type="curve" smooth="yes"/>
      <point x="263" y="411"/>
      <point x="265" y="392"/>
    </contour>
    <contour>
      <point x="149" y="7" type="line" smooth="yes"/>
      <point x="147" y="5"/>
      <point x="143" y="3"/>
      <point x="138" y="1" type="curve" smooth="yes"/>
      <point x="133" y="-1"/>
      <point x="128" y="-3"/>
      <point x="122" y="-5" type="curve" smooth="yes"/>
      <point x="116" y="-7"/>
      <point x="112" y="-8"/>
      <point x="106" y="-10" type="curve" smooth="yes"/>
      <point x="100" y="-12"/>
      <point x="96" y="-13"/>
      <point x="93" y="-14" type="curve"/>
      <point x="82" y="1" type="line"/>
      <point x="439" y="494" type="line"/>
      <point x="447" y="499"/>
      <point x="456" y="503"/>
      <point x="466" y="506" type="curve" smooth="yes"/>
      <point x="476" y="509"/>
      <point x="485" y="512"/>
      <point x="494" y="514" type="curve"/>
      <point x="506" y="501" type="line"/>
    </contour>
    <contour>
      <point x="556" y="129" type="curve" smooth="yes"/>
      <point x="556" y="110"/>
      <point x="552" y="91"/>
      <point x="546" y="74" type="curve" smooth="yes"/>
      <point x="540" y="57"/>
      <point x="530" y="43"/>
      <point x="519" y="30" type="curve" smooth="yes"/>
      <point x="508" y="17"/>
      <point x="496" y="5"/>
      <point x="481" y="-2" type="curve" smooth="yes"/>
      <point x="466" y="-9"/>
      <point x="450" y="-13"/>
      <point x="434" y="-13" type="curve" smooth="yes"/>
      <point x="418" y="-13"/>
      <point x="404" y="-9"/>
      <point x="390" y="-2" type="curve" smooth="yes"/>
      <point x="376" y="5"/>
      <point x="365" y="17"/>
      <point x="355" y="30" type="curve" smooth="yes"/>
      <point x="345" y="43"/>
      <point x="338" y="57"/>
      <point x="332" y="74" type="curve" smooth="yes"/>
      <point x="326" y="91"/>
      <point x="324" y="110"/>
      <point x="324" y="129" type="curve" smooth="yes"/>
      <point x="324" y="148"/>
      <point x="328" y="166"/>
      <point x="334" y="183" type="curve" smooth="yes"/>
      <point x="340" y="200"/>
      <point x="350" y="214"/>
      <point x="361" y="227" type="curve" smooth="yes"/>
      <point x="372" y="240"/>
      <point x="386" y="251"/>
      <point x="400" y="258" type="curve" smooth="yes"/>
      <point x="414" y="265"/>
      <point x="430" y="269"/>
      <point x="446" y="269" type="curve" smooth="yes"/>
      <point x="463" y="269"/>
      <point x="477" y="265"/>
      <point x="491" y="258" type="curve" smooth="yes"/>
      <point x="505" y="251"/>
      <point x="516" y="241"/>
      <point x="526" y="228" type="curve" smooth="yes"/>
      <point x="536" y="215"/>
      <point x="542" y="200"/>
      <point x="548" y="183" type="curve" smooth="yes"/>
      <point x="554" y="166"/>
      <point x="556" y="148"/>
    </contour>
  </outline>
</glyph>
<glyph name="ampersand" format="2">
  <advance width="568"/>
  <unicode hex="0026"/>
  <outline>
    <contour>
      <point x="185" y="470" type="curve" smooth="yes"/>
      <point x="185" y="454"/>
      <point x="187" y="437"/>
      <point x="192" y="419" type="curve" smooth="yes"/>
      <point x="197" y="401"/>
      <point x="203" y="384"/>
      <point x="211" y="366" type="curve"/>
      <point x="230" y="377"/>
      <point x="246" y="388"/>
      <point x="258" y="398" type="curve" smooth="yes"/>
      <point x="270" y="408"/>
      <point x="280" y="419"/>
      <point x="286" y="429" type="curve" smooth="yes"/>
      <point x="292" y="439"/>
      <point x="297" y="449"/>
      <point x="299" y="459" type="curve" smooth="yes"/>
      <point x="301" y="469"/>
      <point x="303" y="478"/>
      <point x="303" y="487" type="curve" smooth="yes"/>
      <point x="303" y="497"/>
      <point x="301" y="505"/>
      <point x="299" y="514" type="curve" smooth="yes"/>
      <point x="297" y="523"/>
      <point x="294" y="532"/>
      <point x="289" y="538" type="curve" smooth="yes"/>
      <point x="284" y="544"/>
      <point x="277" y="549"/>
      <point x="270" y="553" type="curve" smooth="yes"/>
      <point x="263" y="557"/>
      <point x="255" y="558"/>
      <point x="245" y="558" type="curve" smooth="yes"/>
      <point x="235" y="558"/>
      <point x="225" y="556"/>
      <point x="218" y="551" type="curve" smooth="yes"/>
      <point x="211" y="546"/>
      <point x="205" y="539"/>
      <point x="200" y="531" type="curve" smooth="yes"/>
      <point x="195" y="523"/>
      <point x="191" y="512"/>
      <point x="189" y="502" type="curve" smooth="yes"/>
      <point x="187" y="492"/>
      <point x="185" y="481"/>
    </contour>
    <contour>
      <point x="220" y="35" type="curve" smooth="yes"/>
      <point x="243" y="35"/>
      <point x="265" y="39"/>
      <point x="285" y="46" type="curve" smooth="yes"/>
      <point x="305" y="53"/>
      <point x="322" y="63"/>
      <point x="338" y="76" type="curve"/>
      <point x="324" y="90"/>
      <point x="309" y="106"/>
      <point x="295" y="123" type="curve" smooth="yes"/>
      <point x="281" y="140"/>
      <point x="266" y="158"/>
      <point x="252" y="176" type="curve" smooth="yes"/>
      <point x="238" y="194"/>
      <point x="224" y="213"/>
      <point x="211" y="233" type="curve" smooth="yes"/>
      <point x="198" y="253"/>
      <point x="187" y="273"/>
      <point x="177" y="293" type="curve"/>
      <point x="163" y="281"/>
      <point x="151" y="268"/>
      <point x="141" y="257" type="curve" smooth="yes"/>
      <point x="131" y="246"/>
      <point x="124" y="234"/>
      <point x="118" y="223" type="curve" smooth="yes"/>
      <point x="112" y="212"/>
      <point x="107" y="201"/>
      <point x="105" y="190" type="curve" smooth="yes"/>
      <point x="103" y="179"/>
      <point x="101" y="167"/>
      <point x="101" y="155" type="curve" smooth="yes"/>
      <point x="101" y="136"/>
      <point x="104" y="118"/>
      <point x="110" y="103" type="curve" smooth="yes"/>
      <point x="116" y="88"/>
      <point x="127" y="76"/>
      <point x="138" y="66" type="curve" smooth="yes"/>
      <point x="149" y="56"/>
      <point x="161" y="49"/>
      <point x="175" y="43" type="curve" smooth="yes"/>
      <point x="189" y="37"/>
      <point x="205" y="35"/>
    </contour>
    <contour>
      <point x="560" y="311" type="line"/>
      <point x="553" y="302"/>
      <point x="545" y="296"/>
      <point x="539" y="290" type="curve" smooth="yes"/>
      <point x="533" y="284"/>
      <point x="525" y="279"/>
      <point x="518" y="274" type="curve"/>
      <point x="513" y="276"/>
      <point x="508" y="279"/>
      <point x="502" y="281" type="curve" smooth="yes"/>
      <point x="496" y="283"/>
      <point x="488" y="284"/>
      <point x="482" y="286" type="curve" smooth="yes"/>
      <point x="476" y="288"/>
      <point x="469" y="289"/>
      <point x="463" y="290" type="curve" smooth="yes"/>
      <point x="457" y="291"/>
      <point x="452" y="291"/>
      <point x="447" y="291" type="curve"/>
      <point x="450" y="286"/>
      <point x="452" y="282"/>
      <point x="454" y="278" type="curve" smooth="yes"/>
      <point x="456" y="274"/>
      <point x="457" y="268"/>
      <point x="458" y="263" type="curve" smooth="yes"/>
      <point x="459" y="258"/>
      <point x="461" y="253"/>
      <point x="461" y="247" type="curve" smooth="yes"/>
      <point x="461" y="226" type="line" smooth="yes"/>
      <point x="461" y="206"/>
      <point x="457" y="185"/>
      <point x="448" y="163" type="curve" smooth="yes"/>
      <point x="439" y="141"/>
      <point x="427" y="120"/>
      <point x="411" y="99" type="curve"/>
      <point x="430" y="81"/>
      <point x="448" y="66"/>
      <point x="464" y="53" type="curve" smooth="yes"/>
      <point x="474" y="44"/>
      <point x="486" y="38"/>
      <point x="498" y="35" type="curve" smooth="yes"/>
      <point x="510" y="32"/>
      <point x="525" y="33"/>
      <point x="541" y="37" type="curve"/>
      <point x="545" y="18" type="line"/>
      <point x="521" y="8"/>
      <point x="500" y="0"/>
      <point x="483" y="-5" type="curve" smooth="yes"/>
      <point x="466" y="-10"/>
      <point x="456" y="-13"/>
      <point x="450" y="-13" type="curve" smooth="yes"/>
      <point x="444" y="-13"/>
      <point x="433" y="-7"/>
      <point x="418" y="4" type="curve" smooth="yes"/>
      <point x="403" y="15"/>
      <point x="385" y="31"/>
      <point x="365" y="50" type="curve"/>
      <point x="343" y="32"/>
      <point x="319" y="16"/>
      <point x="293" y="5" type="curve" smooth="yes"/>
      <point x="267" y="-6"/>
      <point x="237" y="-13"/>
      <point x="207" y="-13" type="curve" smooth="yes"/>
      <point x="181" y="-13"/>
      <point x="159" y="-8"/>
      <point x="137" y="-2" type="curve" smooth="yes"/>
      <point x="115" y="4"/>
      <point x="97" y="14"/>
      <point x="82" y="28" type="curve" smooth="yes"/>
      <point x="67" y="42"/>
      <point x="55" y="58"/>
      <point x="46" y="78" type="curve" smooth="yes"/>
      <point x="37" y="98"/>
      <point x="34" y="120"/>
      <point x="34" y="146" type="curve" smooth="yes"/>
      <point x="34" y="161"/>
      <point x="36" y="178"/>
      <point x="42" y="194" type="curve" smooth="yes"/>
      <point x="48" y="210"/>
      <point x="56" y="226"/>
      <point x="66" y="242" type="curve" smooth="yes"/>
      <point x="76" y="258"/>
      <point x="90" y="273"/>
      <point x="105" y="288" type="curve" smooth="yes"/>
      <point x="120" y="303"/>
      <point x="138" y="318"/>
      <point x="158" y="332" type="curve"/>
      <point x="150" y="352"/>
      <point x="144" y="371"/>
      <point x="139" y="390" type="curve" smooth="yes"/>
      <point x="134" y="409"/>
      <point x="132" y="428"/>
      <point x="132" y="446" type="curve" smooth="yes"/>
      <point x="132" y="468"/>
      <point x="136" y="490"/>
      <point x="143" y="509" type="curve" smooth="yes"/>
      <point x="150" y="528"/>
      <point x="160" y="544"/>
      <point x="173" y="558" type="curve" smooth="yes"/>
      <point x="186" y="572"/>
      <point x="200" y="583"/>
      <point x="216" y="591" type="curve" smooth="yes"/>
      <point x="232" y="599"/>
      <point x="248" y="603"/>
      <point x="266" y="603" type="curve" smooth="yes"/>
      <point x="284" y="603"/>
      <point x="299" y="600"/>
      <point x="311" y="594" type="curve" smooth="yes"/>
      <point x="323" y="588"/>
      <point x="334" y="582"/>
      <point x="341" y="572" type="curve" smooth="yes"/>
      <point x="348" y="562"/>
      <point x="353" y="551"/>
      <point x="356" y="539" type="curve" smooth="yes"/>
      <point x="359" y="527"/>
      <point x="361" y="515"/>
      <point x="361" y="501" type="curve" smooth="yes"/>
      <point x="361" y="472"/>
      <point x="352" y="445"/>
      <point x="334" y="419" type="curve" smooth="yes"/>
      <point x="316" y="393"/>
      <point x="290" y="371"/>
      <point x="257" y="350" type="curve" smooth="yes"/>
      <point x="251" y="347"/>
      <point x="247" y="344"/>
      <point x="242" y="341" type="curve" smooth="yes"/>
      <point x="237" y="338"/>
      <point x="233" y="334"/>
      <point x="228" y="331" type="curve"/>
      <point x="238" y="313"/>
      <point x="249" y="295"/>
      <point x="261" y="277" type="curve" smooth="yes"/>
      <point x="273" y="259"/>
      <point x="285" y="242"/>
      <point x="299" y="224" type="curve" smooth="yes"/>
      <point x="313" y="206"/>
      <point x="327" y="189"/>
      <point x="341" y="173" type="curve" smooth="yes"/>
      <point x="355" y="157"/>
      <point x="369" y="141"/>
      <point x="383" y="127" type="curve"/>
      <point x="392" y="141"/>
      <point x="399" y="155"/>
      <point x="404" y="169" type="curve" smooth="yes"/>
      <point x="409" y="183"/>
      <point x="410" y="196"/>
      <point x="410" y="209" type="curve" smooth="yes"/>
      <point x="410" y="221"/>
      <point x="409" y="232"/>
      <point x="405" y="242" type="curve" smooth="yes"/>
      <point x="401" y="252"/>
      <point x="396" y="261"/>
      <point x="390" y="269" type="curve" smooth="yes"/>
      <point x="384" y="277"/>
      <point x="376" y="281"/>
      <point x="368" y="286" type="curve" smooth="yes"/>
      <point x="360" y="291"/>
      <point x="352" y="294"/>
      <point x="344" y="294" type="curve"/>
      <point x="335" y="305" type="line"/>
      <point x="338" y="309"/>
      <point x="343" y="313"/>
      <point x="349" y="317" type="curve" smooth="yes"/>
      <point x="355" y="321"/>
      <point x="360" y="324"/>
      <point x="366" y="326" type="curve"/>
      <point x="550" y="326" type="line"/>
    </contour>
  </outline>
</glyph>
<glyph name="quotesingle" format="2">
  <advance width="212"/>
  <unicode hex="0027"/>
  <outline>
    <contour>
      <point x="129" y="347" type="line"/>
      <point x="127" y="346"/>
      <point x="124" y="345"/>
      <point x="121" y="344" type="curve" smooth="yes"/>
      <point x="118" y="343"/>
      <point x="114" y="342"/>
      <point x="110" y="341" type="curve" smooth="yes"/>
      <point x="106" y="340"/>
      <point x="103" y="340"/>
      <point x="99" y="339" type="curve" smooth="yes"/>
      <point x="95" y="338"/>
      <point x="92" y="338"/>
      <point x="89" y="338" type="curve"/>
      <point x="66" y="594" type="line"/>
      <point x="69" y="596"/>
      <point x="74" y="597"/>
      <point x="80" y="599" type="curve" smooth="yes"/>
      <point x="86" y="601"/>
      <point x="92" y="604"/>
      <point x="98" y="606" type="curve" smooth="yes"/>
      <point x="116" y="612" type="line"/>
      <point x="116" y="612"/>
      <point x="126" y="615"/>
      <point x="129" y="616" type="curve"/>
      <point x="146" y="607" type="line"/>
    </contour>
  </outline>
</glyph>
<glyph name="parenleft" format="2">
  <advance width="269"/>
  <unicode hex="0028"/>
  <outline>
    <contour>
      <point x="241" y="-131" type="line"/>
      <point x="210" y="-117"/>
      <point x="182" y="-96"/>
      <point x="158" y="-70" type="curve" smooth="yes"/>
      <point x="134" y="-44"/>
      <point x="114" y="-15"/>
      <point x="98" y="19" type="curve" smooth="yes"/>
      <point x="82" y="53"/>
      <point x="70" y="91"/>
      <point x="62" y="132" type="curve" smooth="yes"/>
      <point x="54" y="173"/>
      <point x="50" y="215"/>
      <point x="50" y="259" type="curve" smooth="yes"/>
      <point x="50" y="305"/>
      <point x="55" y="349"/>
      <point x="64" y="391" type="curve" smooth="yes"/>
      <point x="73" y="433"/>
      <point x="85" y="472"/>
      <point x="102" y="508" type="curve" smooth="yes"/>
      <point x="119" y="544"/>
      <point x="139" y="575"/>
      <point x="162" y="602" type="curve" smooth="yes"/>
      <point x="185" y="629"/>
      <point x="212" y="651"/>
      <point x="241" y="666" type="curve"/>
      <point x="254" y="647" type="line"/>
      <point x="236" y="632"/>
      <point x="218" y="613"/>
      <point x="202" y="588" type="curve" smooth="yes"/>
      <point x="186" y="563"/>
      <point x="172" y="535"/>
      <point x="160" y="503" type="curve" smooth="yes"/>
      <point x="148" y="471"/>
      <point x="139" y="435"/>
      <point x="132" y="396" type="curve" smooth="yes"/>
      <point x="125" y="357"/>
      <point x="121" y="315"/>
      <point x="121" y="271" type="curve" smooth="yes"/>
      <point x="121" y="230"/>
      <point x="124" y="191"/>
      <point x="130" y="153" type="curve" smooth="yes"/>
      <point x="136" y="115"/>
      <point x="144" y="79"/>
      <point x="155" y="45" type="curve" smooth="yes"/>
      <point x="166" y="11"/>
      <point x="181" y="-19"/>
      <point x="197" y="-46" type="curve" smooth="yes"/>
      <point x="213" y="-73"/>
      <point x="232" y="-94"/>
      <point x="254" y="-112" type="curve"/>
    </contour>
  </outline>
</glyph>
<glyph name="parenright" format="2">
  <advance width="269"/>
  <unicode hex="0029"/>
  <outline>
    <contour>
      <point x="221" y="276" type="curve" smooth="yes"/>
      <point x="221" y="230"/>
      <point x="215" y="186"/>
      <point x="206" y="144" type="curve" smooth="yes"/>
      <point x="197" y="102"/>
      <point x="185" y="62"/>
      <point x="168" y="26" type="curve" smooth="yes"/>
      <point x="151" y="-10"/>
      <point x="131" y="-41"/>
      <point x="108" y="-68" type="curve" smooth="yes"/>
      <point x="85" y="-95"/>
      <point x="59" y="-116"/>
      <point x="30" y="-131" type="curve"/>
      <point x="17" y="-112" type="line"/>
      <point x="35" y="-97"/>
      <point x="52" y="-79"/>
      <point x="68" y="-54" type="curve" smooth="yes"/>
      <point x="84" y="-29"/>
      <point x="98" y="0"/>
      <point x="110" y="32" type="curve" smooth="yes"/>
      <point x="122" y="64"/>
      <point x="132" y="99"/>
      <point x="139" y="138" type="curve" smooth="yes"/>
      <point x="146" y="177"/>
      <point x="150" y="219"/>
      <point x="150" y="264" type="curve" smooth="yes"/>
      <point x="150" y="304"/>
      <point x="147" y="344"/>
      <point x="141" y="382" type="curve" smooth="yes"/>
      <point x="135" y="420"/>
      <point x="126" y="456"/>
      <point x="115" y="490" type="curve" smooth="yes"/>
      <point x="104" y="524"/>
      <point x="91" y="554"/>
      <point x="74" y="581" type="curve" smooth="yes"/>
      <point x="57" y="608"/>
      <point x="39" y="630"/>
      <point x="17" y="647" type="curve"/>
      <point x="30" y="666" type="line"/>
      <point x="61" y="652"/>
      <point x="89" y="632"/>
      <point x="113" y="606" type="curve" smooth="yes"/>
      <point x="137" y="580"/>
      <point x="156" y="549"/>
      <point x="172" y="515" type="curve" smooth="yes"/>
      <point x="188" y="481"/>
      <point x="201" y="444"/>
      <point x="209" y="403" type="curve" smooth="yes"/>
      <point x="217" y="362"/>
      <point x="221" y="320"/>
    </contour>
  </outline>
</glyph>
<glyph name="asterisk" format="2">
  <advance width="380"/>
  <unicode hex="002A"/>
  <outline>
    <contour>
      <point x="203" y="494" type="line"/>
      <point x="312" y="576" type="line"/>
      <point x="318" y="572"/>
      <point x="325" y="567"/>
      <point x="333" y="562" type="curve" smooth="yes"/>
      <point x="341" y="557"/>
      <point x="346" y="553"/>
      <point x="351" y="548" type="curve"/>
      <point x="352" y="531" type="line"/>
      <point x="216" y="472" type="line"/>
      <point x="342" y="418" type="line"/>
      <point x="341" y="411"/>
      <point x="340" y="404"/>
      <point x="340" y="394" type="curve" smooth="yes"/>
      <point x="340" y="384"/>
      <point x="339" y="376"/>
      <point x="337" y="370" type="curve"/>
      <point x="321" y="361" type="line"/>
      <point x="204" y="449" type="line"/>
      <point x="220" y="314" type="line"/>
      <point x="217" y="312"/>
      <point x="214" y="311"/>
      <point x="210" y="309" type="curve" smooth="yes"/>
      <point x="198" y="303" type="line"/>
      <point x="198" y="303"/>
      <point x="190" y="300"/>
      <point x="186" y="298" type="curve" smooth="yes"/>
      <point x="182" y="296"/>
      <point x="179" y="296"/>
      <point x="176" y="295" type="curve"/>
      <point x="160" y="302" type="line"/>
      <point x="178" y="449" type="line"/>
      <point x="69" y="367" type="line"/>
      <point x="66" y="369"/>
      <point x="63" y="372"/>
      <point x="59" y="374" type="curve" smooth="yes"/>
      <point x="55" y="376"/>
      <point x="52" y="379"/>
      <point x="48" y="381" type="curve" smooth="yes"/>
      <point x="44" y="383"/>
      <point x="41" y="386"/>
      <point x="38" y="388" type="curve" smooth="yes"/>
      <point x="35" y="390"/>
      <point x="32" y="393"/>
      <point x="30" y="395" type="curve"/>
      <point x="29" y="413" type="line"/>
      <point x="165" y="471" type="line"/>
      <point x="39" y="525" type="line"/>
      <point x="39" y="528"/>
      <point x="40" y="533"/>
      <point x="40" y="537" type="curve" smooth="yes"/>
      <point x="40" y="550" type="line"/>
      <point x="40" y="550"/>
      <point x="41" y="558"/>
      <point x="42" y="562" type="curve" smooth="yes"/>
      <point x="43" y="566"/>
      <point x="43" y="571"/>
      <point x="44" y="573" type="curve"/>
      <point x="58" y="582" type="line"/>
      <point x="178" y="494" type="line"/>
      <point x="161" y="630" type="line"/>
      <point x="164" y="632"/>
      <point x="167" y="633"/>
      <point x="171" y="635" type="curve" smooth="yes"/>
      <point x="183" y="641" type="line"/>
      <point x="183" y="641"/>
      <point x="191" y="644"/>
      <point x="195" y="646" type="curve" smooth="yes"/>
      <point x="199" y="648"/>
      <point x="203" y="649"/>
      <point x="206" y="650" type="curve"/>
      <point x="221" y="641" type="line"/>
    </contour>
  </outline>
</glyph>
<glyph name="plus" format="2">
  <advance width="348"/>
  <unicode hex="002B"/>
  <outline>
    <contour>
      <point x="198" y="98" type="line"/>
      <point x="192" y="96"/>
      <point x="186" y="92"/>
      <point x="180" y="90" type="curve" smooth="yes"/>
      <point x="174" y="88"/>
      <point x="167" y="88"/>
      <point x="161" y="86" type="curve"/>
      <point x="150" y="94" type="line"/>
      <point x="150" y="211" type="line"/>
      <point x="36" y="211" type="line"/>
      <point x="26" y="221" type="line"/>
      <point x="28" y="227"/>
      <point x="29" y="232"/>
      <point x="31" y="238" type="curve" smooth="yes"/>
      <point x="33" y="244"/>
      <point x="36" y="251"/>
      <point x="38" y="257" type="curve"/>
      <point x="150" y="257" type="line"/>
      <point x="150" y="370" type="line"/>
      <point x="156" y="372"/>
      <point x="162" y="375"/>
      <point x="169" y="377" type="curve" smooth="yes"/>
      <point x="176" y="379"/>
      <point x="183" y="380"/>
      <point x="189" y="382" type="curve"/>
      <point x="198" y="373" type="line"/>
      <point x="198" y="257" type="line"/>
      <point x="314" y="257" type="line"/>
      <point x="324" y="246" type="line"/>
      <point x="318" y="228" type="line"/>
      <point x="318" y="228"/>
      <point x="313" y="216"/>
      <point x="311" y="211" type="curve"/>
      <point x="198" y="211" type="line"/>
    </contour>
  </outline>
</glyph>
<glyph name="hyphen" format="2">
  <advance width="286"/>
  <unicode hex="002D"/>
  <outline>
    <contour>
      <point x="262" y="227" type="line"/>
      <point x="260" y="221"/>
      <point x="258" y="214"/>
      <point x="256" y="207" type="curve" smooth="yes"/>
      <point x="254" y="200"/>
      <point x="251" y="195"/>
      <point x="249" y="190" type="curve"/>
      <point x="36" y="190" type="line"/>
      <point x="26" y="199" type="line"/>
      <point x="28" y="205"/>
      <point x="29" y="212"/>
      <point x="31" y="218" type="curve" smooth="yes"/>
      <point x="33" y="224"/>
      <point x="36" y="231"/>
      <point x="38" y="237" type="curve"/>
      <point x="251" y="237" type="line"/>
    </contour>
  </outline>
</glyph>
<glyph name="period" format="2">
  <advance width="194"/>
  <unicode hex="002E"/>
  <outline>
    <contour>
      <point x="154" y="51" type="curve" smooth="yes"/>
      <point x="154" y="41"/>
      <point x="152" y="32"/>
      <point x="149" y="24" type="curve" smooth="yes"/>
      <point x="146" y="16"/>
      <point x="142" y="9"/>
      <point x="137" y="3" type="curve" smooth="yes"/>
      <point x="132" y="-3"/>
      <point x="125" y="-8"/>
      <point x="118" y="-11" type="curve" smooth="yes"/>
      <point x="111" y="-14"/>
      <point x="104" y="-17"/>
      <point x="96" y="-17" type="curve" smooth="yes"/>
      <point x="81" y="-17"/>
      <point x="70" y="-13"/>
      <point x="64" y="-5" type="curve" smooth="yes"/>
      <point x="58" y="3"/>
      <point x="54" y="15"/>
      <point x="54" y="30" type="curve" smooth="yes"/>
      <point x="54" y="40"/>
      <point x="56" y="48"/>
      <point x="59" y="56" type="curve" smooth="yes"/>
      <point x="62" y="64"/>
      <point x="65" y="72"/>
      <point x="71" y="78" type="curve" smooth="yes"/>
      <point x="77" y="84"/>
      <point x="83" y="89"/>
      <point x="90" y="93" type="curve" smooth="yes"/>
      <point x="97" y="97"/>
      <point x="104" y="98"/>
      <point x="112" y="98" type="curve" smooth="yes"/>
      <point x="126" y="98"/>
      <point x="137" y="94"/>
      <point x="143" y="86" type="curve" smooth="yes"/>
      <point x="149" y="78"/>
      <point x="154" y="66"/>
    </contour>
  </outline>
</glyph>
<glyph name="slash" format="2">
  <advance width="399"/>
  <unicode hex="002F"/>
  <outline>
    <contour>
      <point x="88" y="-118" type="line"/>
      <point x="86" y="-120"/>
      <point x="82" y="-122"/>
      <point x="77" y="-124" type="curve" smooth="yes"/>
      <point x="72" y="-126"/>
      <point x="68" y="-128"/>
      <point x="63" y="-130" type="curve" smooth="yes"/>
      <point x="58" y="-132"/>
      <point x="53" y="-133"/>
      <point x="48" y="-135" type="curve" smooth="yes"/>
      <point x="43" y="-137"/>
      <point x="39" y="-138"/>
      <point x="36" y="-139" type="curve"/>
      <point x="20" y="-129" type="line"/>
      <point x="312" y="646" type="line"/>
      <point x="319" y="651"/>
      <point x="328" y="655"/>
      <point x="337" y="658" type="curve" smooth="yes"/>
      <point x="346" y="661"/>
      <point x="354" y="664"/>
      <point x="362" y="666" type="curve"/>
      <point x="378" y="657" type="line"/>
    </contour>
  </outline>
</glyph>
<glyph name="zero" format="2">
  <advance width="399"/>
  <unicode hex="0030"/>
  <outline>
    <contour>
      <point x="300" y="235" type="curve" smooth="yes"/>
      <point x="300" y="273"/>
      <point x="297" y="306"/>
      <point x="291" y="335" type="curve" smooth="yes"/>
      <point x="285" y="364"/>
      <point x="277" y="388"/>
      <point x="267" y="407" type="curve" smooth="yes"/>
      <point x="257" y="426"/>
      <point x="246" y="441"/>
      <point x="233" y="451" type="curve" smooth="yes"/>
      <point x="220" y="461"/>
      <point x="206" y="466"/>
      <point x="192" y="466" type="curve" smooth="yes"/>
      <point x="178" y="466"/>
      <point x="165" y="462"/>
      <point x="154" y="454" type="curve" smooth="yes"/>
      <point x="143" y="446"/>
      <point x="133" y="435"/>
      <point x="125" y="419" type="curve" smooth="yes"/>
      <point x="117" y="403"/>
      <point x="110" y="383"/>
      <point x="106" y="358" type="curve" smooth="yes"/>
      <point x="102" y="333"/>
      <point x="100" y="302"/>
      <point x="100" y="268" type="curve" smooth="yes"/>
      <point x="100" y="230"/>
      <point x="102" y="197"/>
      <point x="108" y="168" type="curve" smooth="yes"/>
      <point x="114" y="139"/>
      <point x="121" y="113"/>
      <point x="131" y="94" type="curve" smooth="yes"/>
      <point x="141" y="75"/>
      <point x="152" y="60"/>
      <point x="165" y="50" type="curve" smooth="yes"/>
      <point x="178" y="40"/>
      <point x="193" y="35"/>
      <point x="208" y="35" type="curve" smooth="yes"/>
      <point x="222" y="35"/>
      <point x="235" y="38"/>
      <point x="246" y="46" type="curve" smooth="yes"/>
      <point x="257" y="54"/>
      <point x="267" y="66"/>
      <point x="275" y="82" type="curve" smooth="yes"/>
      <point x="283" y="98"/>
      <point x="290" y="120"/>
      <point x="294" y="145" type="curve" smooth="yes"/>
      <point x="298" y="170"/>
      <point x="300" y="200"/>
    </contour>
    <contour>
      <point x="368" y="250" type="curve" smooth="yes"/>
      <point x="368" y="214"/>
      <point x="364" y="181"/>
      <point x="355" y="149" type="curve" smooth="yes"/>
      <point x="346" y="117"/>
      <point x="335" y="90"/>
      <point x="320" y="66" type="curve" smooth="yes"/>
      <point x="305" y="42"/>
      <point x="286" y="23"/>
      <point x="264" y="9" type="curve" smooth="yes"/>
      <point x="242" y="-5"/>
      <point x="218" y="-13"/>
      <point x="192" y="-13" type="curve" smooth="yes"/>
      <point x="166" y="-13"/>
      <point x="142" y="-5"/>
      <point x="122" y="9" type="curve" smooth="yes"/>
      <point x="102" y="23"/>
      <point x="86" y="42"/>
      <point x="72" y="66" type="curve" smooth="yes"/>
      <point x="58" y="90"/>
      <point x="48" y="117"/>
      <point x="42" y="149" type="curve" smooth="yes"/>
      <point x="36" y="181"/>
      <point x="32" y="214"/>
      <point x="32" y="250" type="curve" smooth="yes"/>
      <point x="32" y="286"/>
      <point x="36" y="320"/>
      <point x="45" y="352" type="curve" smooth="yes"/>
      <point x="54" y="384"/>
      <point x="66" y="412"/>
      <point x="81" y="436" type="curve" smooth="yes"/>
      <point x="96" y="460"/>
      <point x="114" y="479"/>
      <point x="136" y="493" type="curve" smooth="yes"/>
      <point x="158" y="507"/>
      <point x="182" y="514"/>
      <point x="208" y="514" type="curve" smooth="yes"/>
      <point x="234" y="514"/>
      <point x="258" y="507"/>
      <point x="278" y="493" type="curve" smooth="yes"/>
      <point x="298" y="479"/>
      <point x="314" y="460"/>
      <point x="328" y="436" type="curve" smooth="yes"/>
      <point x="342" y="412"/>
      <point x="352" y="385"/>
      <point x="358" y="353" type="curve" smooth="yes"/>
      <point x="364" y="321"/>
      <point x="368" y="286"/>
    </contour>
  </outline>
</glyph>
<glyph name="one" format="2">
  <advance width="399"/>
  <unicode hex="0031"/>
  <outline>
    <contour>
      <point x="70" y="0" type="line"/>
      <point x="70" y="22" type="line"/>
      <point x="92" y="24"/>
      <point x="111" y="27"/>
      <point x="125" y="30" type="curve" smooth="yes"/>
      <point x="139" y="33"/>
      <point x="150" y="37"/>
      <point x="159" y="40" type="curve" smooth="yes"/>
      <point x="168" y="43"/>
      <point x="174" y="47"/>
      <point x="178" y="50" type="curve" smooth="yes"/>
      <point x="182" y="53"/>
      <point x="183" y="56"/>
      <point x="183" y="59" type="curve" smooth="yes"/>
      <point x="183" y="391" type="line" smooth="yes"/>
      <point x="183" y="402"/>
      <point x="183" y="411"/>
      <point x="182" y="417" type="curve" smooth="yes"/>
      <point x="181" y="423"/>
      <point x="178" y="428"/>
      <point x="175" y="432" type="curve" smooth="yes"/>
      <point x="173" y="434"/>
      <point x="171" y="435"/>
      <point x="166" y="436" type="curve" smooth="yes"/>
      <point x="161" y="437"/>
      <point x="155" y="438"/>
      <point x="146" y="438" type="curve" smooth="yes"/>
      <point x="137" y="438"/>
      <point x="127" y="436"/>
      <point x="114" y="434" type="curve" smooth="yes"/>
      <point x="101" y="432"/>
      <point x="84" y="430"/>
      <point x="66" y="426" type="curve"/>
      <point x="58" y="447" type="line"/>
      <point x="70" y="450"/>
      <point x="83" y="455"/>
      <point x="99" y="461" type="curve" smooth="yes"/>
      <point x="115" y="467"/>
      <point x="132" y="474"/>
      <point x="148" y="480" type="curve" smooth="yes"/>
      <point x="164" y="486"/>
      <point x="180" y="494"/>
      <point x="194" y="500" type="curve" smooth="yes"/>
      <point x="208" y="506"/>
      <point x="221" y="513"/>
      <point x="230" y="518" type="curve"/>
      <point x="246" y="503" type="line"/>
      <point x="246" y="59" type="line" smooth="yes"/>
      <point x="246" y="57"/>
      <point x="247" y="53"/>
      <point x="250" y="50" type="curve" smooth="yes"/>
      <point x="253" y="47"/>
      <point x="258" y="44"/>
      <point x="266" y="41" type="curve" smooth="yes"/>
      <point x="274" y="38"/>
      <point x="284" y="33"/>
      <point x="298" y="30" type="curve" smooth="yes"/>
      <point x="312" y="27"/>
      <point x="329" y="24"/>
      <point x="350" y="22" type="curve"/>
      <point x="350" y="0" type="line"/>
    </contour>
  </outline>
</glyph>
<glyph name="two" format="2">
  <advance width="399"/>
  <unicode hex="0032"/>
  <outline>
    <contour>
      <point x="342" y="0" type="line"/>
      <point x="53" y="0" type="line"/>
      <point x="41" y="30" type="line"/>
      <point x="74" y="68"/>
      <point x="102" y="102"/>
      <point x="127" y="132" type="curve" smooth="yes"/>
      <point x="152" y="162"/>
      <point x="172" y="188"/>
      <point x="190" y="210" type="curve" smooth="yes"/>
      <point x="208" y="232"/>
      <point x="223" y="253"/>
      <point x="234" y="270" type="curve" smooth="yes"/>
      <point x="245" y="287"/>
      <point x="255" y="301"/>
      <point x="261" y="315" type="curve" smooth="yes"/>
      <point x="267" y="329"/>
      <point x="272" y="341"/>
      <point x="274" y="352" type="curve" smooth="yes"/>
      <point x="276" y="363"/>
      <point x="278" y="374"/>
      <point x="278" y="384" type="curve" smooth="yes"/>
      <point x="278" y="397"/>
      <point x="277" y="409"/>
      <point x="274" y="420" type="curve" smooth="yes"/>
      <point x="271" y="431"/>
      <point x="264" y="442"/>
      <point x="258" y="450" type="curve" smooth="yes"/>
      <point x="252" y="458"/>
      <point x="243" y="465"/>
      <point x="233" y="470" type="curve" smooth="yes"/>
      <point x="223" y="475"/>
      <point x="209" y="476"/>
      <point x="194" y="476" type="curve" smooth="yes"/>
      <point x="183" y="476"/>
      <point x="173" y="474"/>
      <point x="163" y="468" type="curve" smooth="yes"/>
      <point x="153" y="462"/>
      <point x="144" y="456"/>
      <point x="138" y="447" type="curve" smooth="yes"/>
      <point x="132" y="438"/>
      <point x="126" y="428"/>
      <point x="122" y="418" type="curve" smooth="yes"/>
      <point x="118" y="408"/>
      <point x="117" y="399"/>
      <point x="117" y="389" type="curve"/>
      <point x="112" y="387"/>
      <point x="108" y="384"/>
      <point x="104" y="382" type="curve" smooth="yes"/>
      <point x="100" y="380"/>
      <point x="96" y="377"/>
      <point x="92" y="375" type="curve" smooth="yes"/>
      <point x="88" y="373"/>
      <point x="85" y="373"/>
      <point x="80" y="371" type="curve" smooth="yes"/>
      <point x="75" y="369"/>
      <point x="69" y="369"/>
      <point x="63" y="368" type="curve"/>
      <point x="52" y="381" type="line"/>
      <point x="52" y="395"/>
      <point x="56" y="410"/>
      <point x="66" y="426" type="curve" smooth="yes"/>
      <point x="76" y="442"/>
      <point x="90" y="456"/>
      <point x="106" y="469" type="curve" smooth="yes"/>
      <point x="122" y="482"/>
      <point x="140" y="492"/>
      <point x="160" y="501" type="curve" smooth="yes"/>
      <point x="180" y="510"/>
      <point x="200" y="514"/>
      <point x="222" y="514" type="curve" smooth="yes"/>
      <point x="239" y="514"/>
      <point x="256" y="511"/>
      <point x="270" y="506" type="curve" smooth="yes"/>
      <point x="284" y="501"/>
      <point x="296" y="496"/>
      <point x="307" y="486" type="curve" smooth="yes"/>
      <point x="318" y="476"/>
      <point x="327" y="464"/>
      <point x="333" y="449" type="curve" smooth="yes"/>
      <point x="339" y="434"/>
      <point x="342" y="416"/>
      <point x="342" y="396" type="curve" smooth="yes"/>
      <point x="342" y="383"/>
      <point x="341" y="371"/>
      <point x="337" y="358" type="curve" smooth="yes"/>
      <point x="333" y="345"/>
      <point x="328" y="332"/>
      <point x="320" y="318" type="curve" smooth="yes"/>
      <point x="312" y="304"/>
      <point x="302" y="287"/>
      <point x="290" y="270" type="curve" smooth="yes"/>
      <point x="278" y="253"/>
      <point x="263" y="234"/>
      <point x="246" y="212" type="curve" smooth="yes"/>
      <point x="229" y="190"/>
      <point x="209" y="166"/>
      <point x="187" y="140" type="curve" smooth="yes"/>
      <point x="165" y="114"/>
      <point x="138" y="84"/>
      <point x="110" y="50" type="curve"/>
      <point x="285" y="50" type="line" smooth="yes"/>
      <point x="290" y="50"/>
      <point x="294" y="52"/>
      <point x="298" y="54" type="curve" smooth="yes"/>
      <point x="302" y="56"/>
      <point x="304" y="59"/>
      <point x="307" y="62" type="curve" smooth="yes"/>
      <point x="310" y="65"/>
      <point x="312" y="69"/>
      <point x="314" y="74" type="curve" smooth="yes"/>
      <point x="316" y="79"/>
      <point x="318" y="82"/>
      <point x="320" y="87" type="curve" smooth="yes"/>
      <point x="323" y="98"/>
      <point x="325" y="110"/>
      <point x="327" y="124" type="curve"/>
      <point x="348" y="119" type="line"/>
    </contour>
  </outline>
</glyph>
<glyph name="three" format="2">
  <advance width="399"/>
  <unicode hex="0033"/>
  <outline>
    <contour>
      <point x="343" y="158" type="curve" smooth="yes"/>
      <point x="343" y="135"/>
      <point x="339" y="113"/>
      <point x="332" y="92" type="curve" smooth="yes"/>
      <point x="325" y="71"/>
      <point x="312" y="53"/>
      <point x="298" y="38" type="curve" smooth="yes"/>
      <point x="284" y="23"/>
      <point x="266" y="10"/>
      <point x="244" y="1" type="curve" smooth="yes"/>
      <point x="222" y="-8"/>
      <point x="198" y="-13"/>
      <point x="169" y="-13" type="curve" smooth="yes"/>
      <point x="158" y="-13"/>
      <point x="147" y="-12"/>
      <point x="136" y="-10" type="curve" smooth="yes"/>
      <point x="125" y="-8"/>
      <point x="113" y="-4"/>
      <point x="101" y="1" type="curve" smooth="yes"/>
      <point x="89" y="6"/>
      <point x="77" y="12"/>
      <point x="65" y="20" type="curve" smooth="yes"/>
      <point x="53" y="28"/>
      <point x="41" y="38"/>
      <point x="28" y="50" type="curve"/>
      <point x="42" y="78" type="line"/>
      <point x="55" y="68"/>
      <point x="67" y="60"/>
      <point x="77" y="54" type="curve" smooth="yes"/>
      <point x="87" y="48"/>
      <point x="96" y="43"/>
      <point x="106" y="39" type="curve" smooth="yes"/>
      <point x="116" y="35"/>
      <point x="125" y="33"/>
      <point x="134" y="31" type="curve" smooth="yes"/>
      <point x="143" y="29"/>
      <point x="153" y="29"/>
      <point x="163" y="29" type="curve" smooth="yes"/>
      <point x="180" y="29"/>
      <point x="196" y="32"/>
      <point x="210" y="38" type="curve" smooth="yes"/>
      <point x="224" y="44"/>
      <point x="236" y="50"/>
      <point x="246" y="60" type="curve" smooth="yes"/>
      <point x="256" y="70"/>
      <point x="263" y="83"/>
      <point x="269" y="97" type="curve" smooth="yes"/>
      <point x="275" y="111"/>
      <point x="277" y="127"/>
      <point x="277" y="145" type="curve" smooth="yes"/>
      <point x="277" y="166"/>
      <point x="273" y="184"/>
      <point x="267" y="198" type="curve" smooth="yes"/>
      <point x="261" y="212"/>
      <point x="252" y="225"/>
      <point x="242" y="234" type="curve" smooth="yes"/>
      <point x="232" y="243"/>
      <point x="221" y="249"/>
      <point x="208" y="253" type="curve" smooth="yes"/>
      <point x="195" y="257"/>
      <point x="182" y="259"/>
      <point x="170" y="259" type="curve" smooth="yes"/>
      <point x="162" y="259" type="line" smooth="yes"/>
      <point x="160" y="259"/>
      <point x="159" y="258"/>
      <point x="157" y="258" type="curve" smooth="yes"/>
      <point x="152" y="258" type="line"/>
      <point x="152" y="258"/>
      <point x="146" y="257"/>
      <point x="142" y="256" type="curve"/>
      <point x="137" y="282" type="line"/>
      <point x="163" y="289"/>
      <point x="183" y="297"/>
      <point x="198" y="306" type="curve" smooth="yes"/>
      <point x="213" y="315"/>
      <point x="225" y="324"/>
      <point x="233" y="334" type="curve" smooth="yes"/>
      <point x="241" y="344"/>
      <point x="247" y="353"/>
      <point x="249" y="363" type="curve" smooth="yes"/>
      <point x="251" y="373"/>
      <point x="253" y="382"/>
      <point x="253" y="391" type="curve" smooth="yes"/>
      <point x="253" y="401"/>
      <point x="252" y="410"/>
      <point x="249" y="420" type="curve" smooth="yes"/>
      <point x="246" y="430"/>
      <point x="241" y="440"/>
      <point x="235" y="448" type="curve" smooth="yes"/>
      <point x="229" y="456"/>
      <point x="221" y="462"/>
      <point x="211" y="468" type="curve" smooth="yes"/>
      <point x="201" y="474"/>
      <point x="192" y="476"/>
      <point x="178" y="476" type="curve" smooth="yes"/>
      <point x="167" y="476"/>
      <point x="156" y="474"/>
      <point x="147" y="470" type="curve" smooth="yes"/>
      <point x="138" y="466"/>
      <point x="132" y="460"/>
      <point x="126" y="454" type="curve" smooth="yes"/>
      <point x="120" y="448"/>
      <point x="116" y="441"/>
      <point x="114" y="432" type="curve" smooth="yes"/>
      <point x="112" y="423"/>
      <point x="110" y="415"/>
      <point x="112" y="405" type="curve"/>
      <point x="102" y="400"/>
      <point x="95" y="396"/>
      <point x="86" y="394" type="curve" smooth="yes"/>
      <point x="77" y="392"/>
      <point x="66" y="390"/>
      <point x="54" y="389" type="curve"/>
      <point x="43" y="402" type="line"/>
      <point x="43" y="414"/>
      <point x="47" y="425"/>
      <point x="56" y="438" type="curve" smooth="yes"/>
      <point x="65" y="451"/>
      <point x="76" y="464"/>
      <point x="90" y="475" type="curve" smooth="yes"/>
      <point x="104" y="486"/>
      <point x="122" y="495"/>
      <point x="141" y="502" type="curve" smooth="yes"/>
      <point x="160" y="509"/>
      <point x="180" y="514"/>
      <point x="201" y="514" type="curve" smooth="yes"/>
      <point x="222" y="514"/>
      <point x="239" y="510"/>
      <point x="254" y="504" type="curve" smooth="yes"/>
      <point x="269" y="498"/>
      <point x="281" y="489"/>
      <point x="291" y="478" type="curve" smooth="yes"/>
      <point x="301" y="467"/>
      <point x="308" y="454"/>
      <point x="313" y="440" type="curve" smooth="yes"/>
      <point x="318" y="426"/>
      <point x="319" y="412"/>
      <point x="319" y="398" type="curve" smooth="yes"/>
      <point x="319" y="388"/>
      <point x="318" y="377"/>
      <point x="314" y="367" type="curve" smooth="yes"/>
      <point x="310" y="357"/>
      <point x="303" y="348"/>
      <point x="295" y="338" type="curve" smooth="yes"/>
      <point x="287" y="328"/>
      <point x="279" y="319"/>
      <point x="268" y="311" type="curve" smooth="yes"/>
      <point x="257" y="303"/>
      <point x="245" y="296"/>
      <point x="231" y="290" type="curve"/>
      <point x="247" y="288"/>
      <point x="261" y="284"/>
      <point x="275" y="276" type="curve" smooth="yes"/>
      <point x="289" y="268"/>
      <point x="300" y="259"/>
      <point x="310" y="247" type="curve" smooth="yes"/>
      <point x="320" y="235"/>
      <point x="328" y="221"/>
      <point x="334" y="206" type="curve" smooth="yes"/>
      <point x="340" y="191"/>
      <point x="343" y="175"/>
    </contour>
  </outline>
</glyph>
<glyph name="four" format="2">
  <advance width="399"/>
  <unicode hex="0034"/>
  <outline>
    <contour>
      <point x="243" y="433" type="line"/>
      <point x="89" y="191" type="line"/>
      <point x="243" y="191" type="line"/>
    </contour>
    <contour>
      <point x="363" y="179" type="line"/>
      <point x="357" y="170"/>
      <point x="352" y="163"/>
      <point x="347" y="159" type="curve" smooth="yes"/>
      <point x="342" y="155"/>
      <point x="336" y="151"/>
      <point x="330" y="146" type="curve"/>
      <point x="302" y="146" type="line"/>
      <point x="302" y="43" type="line" smooth="yes"/>
      <point x="302" y="41"/>
      <point x="302" y="40"/>
      <point x="304" y="38" type="curve" smooth="yes"/>
      <point x="306" y="36"/>
      <point x="309" y="33"/>
      <point x="314" y="31" type="curve" smooth="yes"/>
      <point x="319" y="29"/>
      <point x="324" y="27"/>
      <point x="331" y="25" type="curve" smooth="yes"/>
      <point x="338" y="23"/>
      <point x="348" y="20"/>
      <point x="359" y="18" type="curve"/>
      <point x="359" y="0" type="line"/>
      <point x="156" y="0" type="line"/>
      <point x="156" y="18" type="line"/>
      <point x="174" y="21"/>
      <point x="189" y="24"/>
      <point x="200" y="26" type="curve" smooth="yes"/>
      <point x="211" y="28"/>
      <point x="220" y="32"/>
      <point x="226" y="34" type="curve" smooth="yes"/>
      <point x="232" y="36"/>
      <point x="238" y="39"/>
      <point x="240" y="41" type="curve" smooth="yes"/>
      <point x="242" y="43"/>
      <point x="243" y="46"/>
      <point x="243" y="48" type="curve" smooth="yes"/>
      <point x="243" y="146" type="line"/>
      <point x="37" y="146" type="line"/>
      <point x="23" y="159" type="line"/>
      <point x="230" y="488" type="line"/>
      <point x="242" y="493"/>
      <point x="252" y="498"/>
      <point x="261" y="504" type="curve" smooth="yes"/>
      <point x="270" y="510"/>
      <point x="278" y="514"/>
      <point x="286" y="518" type="curve"/>
      <point x="302" y="503" type="line"/>
      <point x="302" y="191" type="line"/>
      <point x="353" y="191" type="line"/>
    </contour>
  </outline>
</glyph>
<glyph name="five" format="2">
  <advance width="399"/>
  <unicode hex="0035"/>
  <outline>
    <contour>
      <point x="348" y="170" type="curve" smooth="yes"/>
      <point x="348" y="146"/>
      <point x="344" y="124"/>
      <point x="337" y="102" type="curve" smooth="yes"/>
      <point x="330" y="80"/>
      <point x="319" y="60"/>
      <point x="305" y="43" type="curve" smooth="yes"/>
      <point x="291" y="26"/>
      <point x="274" y="12"/>
      <point x="253" y="2" type="curve" smooth="yes"/>
      <point x="232" y="-8"/>
      <point x="209" y="-13"/>
      <point x="183" y="-13" type="curve" smooth="yes"/>
      <point x="157" y="-13"/>
      <point x="132" y="-8"/>
      <point x="106" y="2" type="curve" smooth="yes"/>
      <point x="80" y="12"/>
      <point x="57" y="28"/>
      <point x="33" y="50" type="curve"/>
      <point x="47" y="78" type="line"/>
      <point x="61" y="68"/>
      <point x="75" y="59"/>
      <point x="87" y="53" type="curve" smooth="yes"/>
      <point x="99" y="47"/>
      <point x="111" y="41"/>
      <point x="121" y="38" type="curve" smooth="yes"/>
      <point x="131" y="35"/>
      <point x="140" y="33"/>
      <point x="149" y="31" type="curve" smooth="yes"/>
      <point x="158" y="29"/>
      <point x="166" y="29"/>
      <point x="174" y="29" type="curve" smooth="yes"/>
      <point x="192" y="29"/>
      <point x="207" y="32"/>
      <point x="221" y="39" type="curve" smooth="yes"/>
      <point x="235" y="46"/>
      <point x="245" y="56"/>
      <point x="254" y="67" type="curve" smooth="yes"/>
      <point x="263" y="78"/>
      <point x="269" y="91"/>
      <point x="274" y="106" type="curve" smooth="yes"/>
      <point x="279" y="121"/>
      <point x="282" y="137"/>
      <point x="282" y="153" type="curve" smooth="yes"/>
      <point x="282" y="172"/>
      <point x="279" y="189"/>
      <point x="274" y="204" type="curve" smooth="yes"/>
      <point x="269" y="219"/>
      <point x="264" y="233"/>
      <point x="254" y="244" type="curve" smooth="yes"/>
      <point x="244" y="255"/>
      <point x="232" y="264"/>
      <point x="218" y="270" type="curve" smooth="yes"/>
      <point x="204" y="276"/>
      <point x="187" y="278"/>
      <point x="168" y="278" type="curve" smooth="yes"/>
      <point x="162" y="278"/>
      <point x="155" y="279"/>
      <point x="148" y="277" type="curve" smooth="yes"/>
      <point x="141" y="275"/>
      <point x="132" y="272"/>
      <point x="124" y="270" type="curve" smooth="yes"/>
      <point x="116" y="268"/>
      <point x="108" y="264"/>
      <point x="100" y="260" type="curve" smooth="yes"/>
      <point x="92" y="256"/>
      <point x="84" y="252"/>
      <point x="77" y="246" type="curve"/>
      <point x="57" y="259" type="line"/>
      <point x="59" y="269"/>
      <point x="61" y="281"/>
      <point x="63" y="294" type="curve" smooth="yes"/>
      <point x="65" y="307"/>
      <point x="68" y="322"/>
      <point x="70" y="336" type="curve" smooth="yes"/>
      <point x="72" y="350"/>
      <point x="75" y="366"/>
      <point x="77" y="381" type="curve" smooth="yes"/>
      <point x="79" y="396"/>
      <point x="81" y="412"/>
      <point x="83" y="426" type="curve" smooth="yes"/>
      <point x="85" y="440"/>
      <point x="86" y="454"/>
      <point x="88" y="467" type="curve" smooth="yes"/>
      <point x="90" y="480"/>
      <point x="90" y="492"/>
      <point x="91" y="502" type="curve"/>
      <point x="273" y="502" type="line" smooth="yes"/>
      <point x="281" y="502"/>
      <point x="288" y="501"/>
      <point x="294" y="502" type="curve" smooth="yes"/>
      <point x="300" y="503"/>
      <point x="305" y="504"/>
      <point x="310" y="505" type="curve" smooth="yes"/>
      <point x="315" y="506"/>
      <point x="319" y="507"/>
      <point x="323" y="509" type="curve"/>
      <point x="335" y="497" type="line"/>
      <point x="332" y="492"/>
      <point x="328" y="487"/>
      <point x="324" y="482" type="curve" smooth="yes"/>
      <point x="320" y="477"/>
      <point x="316" y="474"/>
      <point x="312" y="469" type="curve" smooth="yes"/>
      <point x="308" y="464"/>
      <point x="304" y="461"/>
      <point x="300" y="457" type="curve" smooth="yes"/>
      <point x="296" y="453"/>
      <point x="292" y="449"/>
      <point x="289" y="447" type="curve"/>
      <point x="128" y="447" type="line"/>
      <point x="127" y="439"/>
      <point x="127" y="429"/>
      <point x="125" y="416" type="curve" smooth="yes"/>
      <point x="123" y="403"/>
      <point x="122" y="391"/>
      <point x="120" y="378" type="curve" smooth="yes"/>
      <point x="118" y="365"/>
      <point x="116" y="352"/>
      <point x="114" y="340" type="curve" smooth="yes"/>
      <point x="112" y="328"/>
      <point x="111" y="320"/>
      <point x="110" y="314" type="curve"/>
      <point x="121" y="317"/>
      <point x="134" y="320"/>
      <point x="149" y="322" type="curve" smooth="yes"/>
      <point x="164" y="324"/>
      <point x="179" y="325"/>
      <point x="193" y="325" type="curve" smooth="yes"/>
      <point x="219" y="325"/>
      <point x="240" y="321"/>
      <point x="259" y="312" type="curve" smooth="yes"/>
      <point x="278" y="303"/>
      <point x="295" y="292"/>
      <point x="308" y="278" type="curve" smooth="yes"/>
      <point x="321" y="264"/>
      <point x="332" y="247"/>
      <point x="338" y="229" type="curve" smooth="yes"/>
      <point x="344" y="211"/>
      <point x="348" y="190"/>
    </contour>
  </outline>
</glyph>
<glyph name="six" format="2">
  <advance width="399"/>
  <unicode hex="0036"/>
  <outline>
    <contour>
      <point x="208" y="274" type="curve" smooth="yes"/>
      <point x="194" y="274"/>
      <point x="179" y="270"/>
      <point x="162" y="262" type="curve" smooth="yes"/>
      <point x="145" y="254"/>
      <point x="127" y="241"/>
      <point x="112" y="223" type="curve"/>
      <point x="112" y="190"/>
      <point x="115" y="162"/>
      <point x="121" y="138" type="curve" smooth="yes"/>
      <point x="127" y="114"/>
      <point x="133" y="94"/>
      <point x="143" y="78" type="curve" smooth="yes"/>
      <point x="153" y="62"/>
      <point x="166" y="50"/>
      <point x="180" y="42" type="curve" smooth="yes"/>
      <point x="194" y="34"/>
      <point x="209" y="31"/>
      <point x="226" y="31" type="curve" smooth="yes"/>
      <point x="241" y="31"/>
      <point x="254" y="35"/>
      <point x="264" y="42" type="curve" smooth="yes"/>
      <point x="274" y="49"/>
      <point x="282" y="58"/>
      <point x="288" y="69" type="curve" smooth="yes"/>
      <point x="294" y="80"/>
      <point x="298" y="92"/>
      <point x="300" y="106" type="curve" smooth="yes"/>
      <point x="302" y="120"/>
      <point x="304" y="132"/>
      <point x="304" y="145" type="curve" smooth="yes"/>
      <point x="304" y="171"/>
      <point x="300" y="192"/>
      <point x="294" y="209" type="curve" smooth="yes"/>
      <point x="288" y="226"/>
      <point x="281" y="239"/>
      <point x="271" y="249" type="curve" smooth="yes"/>
      <point x="261" y="259"/>
      <point x="251" y="265"/>
      <point x="240" y="269" type="curve" smooth="yes"/>
      <point x="229" y="273"/>
      <point x="218" y="274"/>
    </contour>
    <contour>
      <point x="366" y="171" type="curve" smooth="yes"/>
      <point x="366" y="158"/>
      <point x="365" y="144"/>
      <point x="362" y="130" type="curve" smooth="yes"/>
      <point x="359" y="116"/>
      <point x="355" y="103"/>
      <point x="349" y="89" type="curve" smooth="yes"/>
      <point x="343" y="75"/>
      <point x="335" y="62"/>
      <point x="326" y="50" type="curve" smooth="yes"/>
      <point x="317" y="38"/>
      <point x="307" y="28"/>
      <point x="296" y="18" type="curve" smooth="yes"/>
      <point x="285" y="8"/>
      <point x="272" y="2"/>
      <point x="258" y="-4" type="curve" smooth="yes"/>
      <point x="244" y="-10"/>
      <point x="227" y="-13"/>
      <point x="210" y="-13" type="curve" smooth="yes"/>
      <point x="188" y="-13"/>
      <point x="166" y="-8"/>
      <point x="146" y="2" type="curve" smooth="yes"/>
      <point x="126" y="12"/>
      <point x="109" y="28"/>
      <point x="94" y="46" type="curve" smooth="yes"/>
      <point x="79" y="64"/>
      <point x="67" y="85"/>
      <point x="58" y="111" type="curve" smooth="yes"/>
      <point x="49" y="137"/>
      <point x="46" y="166"/>
      <point x="46" y="197" type="curve" smooth="yes"/>
      <point x="46" y="236"/>
      <point x="51" y="274"/>
      <point x="62" y="310" type="curve" smooth="yes"/>
      <point x="73" y="346"/>
      <point x="91" y="377"/>
      <point x="114" y="406" type="curve" smooth="yes"/>
      <point x="137" y="435"/>
      <point x="167" y="459"/>
      <point x="202" y="479" type="curve" smooth="yes"/>
      <point x="237" y="499"/>
      <point x="280" y="512"/>
      <point x="328" y="519" type="curve"/>
      <point x="336" y="495" type="line"/>
      <point x="303" y="488"/>
      <point x="275" y="476"/>
      <point x="249" y="461" type="curve" smooth="yes"/>
      <point x="223" y="446"/>
      <point x="201" y="429"/>
      <point x="183" y="409" type="curve" smooth="yes"/>
      <point x="165" y="389"/>
      <point x="150" y="367"/>
      <point x="139" y="343" type="curve" smooth="yes"/>
      <point x="128" y="319"/>
      <point x="120" y="295"/>
      <point x="116" y="270" type="curve"/>
      <point x="126" y="280"/>
      <point x="136" y="288"/>
      <point x="146" y="294" type="curve" smooth="yes"/>
      <point x="156" y="300"/>
      <point x="165" y="306"/>
      <point x="175" y="310" type="curve" smooth="yes"/>
      <point x="185" y="314"/>
      <point x="193" y="316"/>
      <point x="202" y="318" type="curve" smooth="yes"/>
      <point x="211" y="320"/>
      <point x="219" y="320"/>
      <point x="225" y="320" type="curve" smooth="yes"/>
      <point x="247" y="320"/>
      <point x="267" y="317"/>
      <point x="285" y="310" type="curve" smooth="yes"/>
      <point x="303" y="303"/>
      <point x="318" y="293"/>
      <point x="330" y="280" type="curve" smooth="yes"/>
      <point x="342" y="267"/>
      <point x="351" y="251"/>
      <point x="357" y="233" type="curve" smooth="yes"/>
      <point x="363" y="215"/>
      <point x="366" y="193"/>
    </contour>
  </outline>
</glyph>
<glyph name="seven" format="2">
  <advance width="399"/>
  <unicode hex="0037"/>
  <outline>
    <contour>
      <point x="368" y="486" type="line"/>
      <point x="355" y="456"/>
      <point x="343" y="424"/>
      <point x="330" y="394" type="curve" smooth="yes"/>
      <point x="317" y="364"/>
      <point x="303" y="335"/>
      <point x="291" y="305" type="curve" smooth="yes"/>
      <point x="279" y="275"/>
      <point x="267" y="246"/>
      <point x="256" y="218" type="curve" smooth="yes"/>
      <point x="245" y="190"/>
      <point x="235" y="164"/>
      <point x="225" y="139" type="curve" smooth="yes"/>
      <point x="215" y="114"/>
      <point x="206" y="92"/>
      <point x="198" y="71" type="curve" smooth="yes"/>
      <point x="190" y="50"/>
      <point x="185" y="32"/>
      <point x="180" y="18" type="curve"/>
      <point x="170" y="11"/>
      <point x="159" y="6"/>
      <point x="149" y="1" type="curve" smooth="yes"/>
      <point x="139" y="-4"/>
      <point x="126" y="-9"/>
      <point x="112" y="-13" type="curve"/>
      <point x="95" y="2" type="line"/>
      <point x="119" y="44"/>
      <point x="141" y="84"/>
      <point x="160" y="122" type="curve" smooth="yes"/>
      <point x="179" y="160"/>
      <point x="198" y="199"/>
      <point x="214" y="235" type="curve" smooth="yes"/>
      <point x="230" y="271"/>
      <point x="246" y="307"/>
      <point x="260" y="342" type="curve" smooth="yes"/>
      <point x="274" y="377"/>
      <point x="290" y="412"/>
      <point x="305" y="447" type="curve"/>
      <point x="116" y="447" type="line" smooth="yes"/>
      <point x="112" y="447"/>
      <point x="108" y="446"/>
      <point x="104" y="446" type="curve" smooth="yes"/>
      <point x="100" y="446"/>
      <point x="96" y="444"/>
      <point x="92" y="441" type="curve" smooth="yes"/>
      <point x="88" y="438"/>
      <point x="83" y="431"/>
      <point x="78" y="423" type="curve" smooth="yes"/>
      <point x="73" y="415"/>
      <point x="68" y="403"/>
      <point x="62" y="387" type="curve"/>
      <point x="43" y="394" type="line"/>
      <point x="44" y="400"/>
      <point x="44" y="408"/>
      <point x="46" y="418" type="curve" smooth="yes"/>
      <point x="48" y="428"/>
      <point x="49" y="438"/>
      <point x="51" y="448" type="curve" smooth="yes"/>
      <point x="53" y="458"/>
      <point x="54" y="468"/>
      <point x="56" y="478" type="curve" smooth="yes"/>
      <point x="58" y="488"/>
      <point x="59" y="496"/>
      <point x="61" y="502" type="curve"/>
      <point x="354" y="502" type="line"/>
    </contour>
  </outline>
</glyph>
<glyph name="eight" format="2">
  <advance width="399"/>
  <unicode hex="0038"/>
  <outline>
    <contour>
      <point x="114" y="395" type="curve" smooth="yes"/>
      <point x="114" y="383"/>
      <point x="117" y="372"/>
      <point x="123" y="363" type="curve" smooth="yes"/>
      <point x="129" y="354"/>
      <point x="137" y="346"/>
      <point x="147" y="339" type="curve" smooth="yes"/>
      <point x="157" y="332"/>
      <point x="169" y="326"/>
      <point x="182" y="320" type="curve" smooth="yes"/>
      <point x="195" y="314"/>
      <point x="208" y="308"/>
      <point x="222" y="302" type="curve"/>
      <point x="242" y="316"/>
      <point x="256" y="332"/>
      <point x="265" y="346" type="curve" smooth="yes"/>
      <point x="274" y="360"/>
      <point x="278" y="375"/>
      <point x="278" y="390" type="curve" smooth="yes"/>
      <point x="278" y="404"/>
      <point x="275" y="418"/>
      <point x="271" y="428" type="curve" smooth="yes"/>
      <point x="267" y="438"/>
      <point x="261" y="447"/>
      <point x="253" y="454" type="curve" smooth="yes"/>
      <point x="245" y="461"/>
      <point x="236" y="467"/>
      <point x="225" y="470" type="curve" smooth="yes"/>
      <point x="214" y="473"/>
      <point x="202" y="474"/>
      <point x="188" y="474" type="curve" smooth="yes"/>
      <point x="175" y="474"/>
      <point x="164" y="472"/>
      <point x="155" y="467" type="curve" smooth="yes"/>
      <point x="146" y="462"/>
      <point x="139" y="457"/>
      <point x="133" y="449" type="curve" smooth="yes"/>
      <point x="127" y="441"/>
      <point x="122" y="433"/>
      <point x="119" y="423" type="curve" smooth="yes"/>
      <point x="116" y="413"/>
      <point x="114" y="405"/>
    </contour>
    <contour>
      <point x="294" y="129" type="curve" smooth="yes"/>
      <point x="294" y="147"/>
      <point x="290" y="162"/>
      <point x="284" y="175" type="curve" smooth="yes"/>
      <point x="278" y="188"/>
      <point x="268" y="200"/>
      <point x="258" y="210" type="curve" smooth="yes"/>
      <point x="248" y="220"/>
      <point x="236" y="227"/>
      <point x="222" y="234" type="curve" smooth="yes"/>
      <point x="208" y="241"/>
      <point x="195" y="248"/>
      <point x="181" y="254" type="curve"/>
      <point x="167" y="244"/>
      <point x="156" y="236"/>
      <point x="146" y="226" type="curve" smooth="yes"/>
      <point x="136" y="216"/>
      <point x="129" y="207"/>
      <point x="123" y="197" type="curve" smooth="yes"/>
      <point x="117" y="187"/>
      <point x="113" y="177"/>
      <point x="110" y="166" type="curve" smooth="yes"/>
      <point x="107" y="155"/>
      <point x="106" y="144"/>
      <point x="106" y="131" type="curve" smooth="yes"/>
      <point x="106" y="117"/>
      <point x="108" y="103"/>
      <point x="113" y="90" type="curve" smooth="yes"/>
      <point x="118" y="77"/>
      <point x="124" y="67"/>
      <point x="133" y="58" type="curve" smooth="yes"/>
      <point x="142" y="49"/>
      <point x="153" y="42"/>
      <point x="166" y="37" type="curve" smooth="yes"/>
      <point x="179" y="32"/>
      <point x="192" y="29"/>
      <point x="208" y="29" type="curve" smooth="yes"/>
      <point x="223" y="29"/>
      <point x="236" y="32"/>
      <point x="247" y="38" type="curve" smooth="yes"/>
      <point x="258" y="44"/>
      <point x="267" y="51"/>
      <point x="274" y="61" type="curve" smooth="yes"/>
      <point x="281" y="71"/>
      <point x="287" y="81"/>
      <point x="290" y="93" type="curve" smooth="yes"/>
      <point x="293" y="105"/>
      <point x="294" y="117"/>
    </contour>
    <contour>
      <point x="361" y="146" type="curve" smooth="yes"/>
      <point x="361" y="124"/>
      <point x="356" y="105"/>
      <point x="347" y="86" type="curve" smooth="yes"/>
      <point x="338" y="67"/>
      <point x="326" y="48"/>
      <point x="310" y="34" type="curve" smooth="yes"/>
      <point x="294" y="20"/>
      <point x="275" y="9"/>
      <point x="254" y="0" type="curve" smooth="yes"/>
      <point x="233" y="-9"/>
      <point x="211" y="-13"/>
      <point x="188" y="-13" type="curve" smooth="yes"/>
      <point x="164" y="-13"/>
      <point x="142" y="-9"/>
      <point x="124" y="-2" type="curve" smooth="yes"/>
      <point x="106" y="5"/>
      <point x="91" y="15"/>
      <point x="78" y="27" type="curve" smooth="yes"/>
      <point x="65" y="39"/>
      <point x="55" y="54"/>
      <point x="49" y="70" type="curve" smooth="yes"/>
      <point x="43" y="86"/>
      <point x="39" y="101"/>
      <point x="39" y="118" type="curve" smooth="yes"/>
      <point x="39" y="133"/>
      <point x="41" y="148"/>
      <point x="46" y="162" type="curve" smooth="yes"/>
      <point x="51" y="176"/>
      <point x="59" y="189"/>
      <point x="69" y="202" type="curve" smooth="yes"/>
      <point x="79" y="215"/>
      <point x="89" y="227"/>
      <point x="103" y="238" type="curve" smooth="yes"/>
      <point x="117" y="249"/>
      <point x="132" y="259"/>
      <point x="149" y="268" type="curve"/>
      <point x="137" y="274"/>
      <point x="124" y="280"/>
      <point x="114" y="286" type="curve" smooth="yes"/>
      <point x="104" y="292"/>
      <point x="94" y="301"/>
      <point x="86" y="310" type="curve" smooth="yes"/>
      <point x="78" y="319"/>
      <point x="72" y="329"/>
      <point x="67" y="340" type="curve" smooth="yes"/>
      <point x="62" y="351"/>
      <point x="60" y="366"/>
      <point x="60" y="381" type="curve" smooth="yes"/>
      <point x="60" y="400"/>
      <point x="64" y="418"/>
      <point x="72" y="434" type="curve" smooth="yes"/>
      <point x="80" y="450"/>
      <point x="89" y="464"/>
      <point x="103" y="476" type="curve" smooth="yes"/>
      <point x="117" y="488"/>
      <point x="132" y="498"/>
      <point x="150" y="504" type="curve" smooth="yes"/>
      <point x="168" y="510"/>
      <point x="188" y="514"/>
      <point x="209" y="514" type="curve" smooth="yes"/>
      <point x="230" y="514"/>
      <point x="248" y="512"/>
      <point x="264" y="506" type="curve" smooth="yes"/>
      <point x="280" y="500"/>
      <point x="295" y="492"/>
      <point x="306" y="482" type="curve" smooth="yes"/>
      <point x="317" y="472"/>
      <point x="325" y="462"/>
      <point x="331" y="448" type="curve" smooth="yes"/>
      <point x="337" y="434"/>
      <point x="340" y="419"/>
      <point x="340" y="403" type="curve" smooth="yes"/>
      <point x="340" y="391"/>
      <point x="338" y="380"/>
      <point x="334" y="370" type="curve" smooth="yes"/>
      <point x="330" y="360"/>
      <point x="323" y="350"/>
      <point x="316" y="340" type="curve" smooth="yes"/>
      <point x="309" y="330"/>
      <point x="299" y="322"/>
      <point x="289" y="313" type="curve" smooth="yes"/>
      <point x="279" y="304"/>
      <point x="267" y="295"/>
      <point x="255" y="286" type="curve"/>
      <point x="269" y="280"/>
      <point x="282" y="272"/>
      <point x="295" y="264" type="curve" smooth="yes"/>
      <point x="308" y="256"/>
      <point x="319" y="246"/>
      <point x="329" y="235" type="curve" smooth="yes"/>
      <point x="339" y="224"/>
      <point x="346" y="211"/>
      <point x="352" y="197" type="curve" smooth="yes"/>
      <point x="358" y="183"/>
      <point x="361" y="165"/>
    </contour>
  </outline>
</glyph>
<glyph name="nine" format="2">
  <advance width="399"/>
  <unicode hex="0039"/>
  <outline>
    <contour>
      <point x="200" y="231" type="curve" smooth="yes"/>
      <point x="219" y="231"/>
      <point x="237" y="237"/>
      <point x="253" y="247" type="curve" smooth="yes"/>
      <point x="269" y="257"/>
      <point x="283" y="272"/>
      <point x="295" y="289" type="curve"/>
      <point x="294" y="323"/>
      <point x="290" y="353"/>
      <point x="284" y="376" type="curve" smooth="yes"/>
      <point x="278" y="399"/>
      <point x="270" y="418"/>
      <point x="260" y="432" type="curve" smooth="yes"/>
      <point x="250" y="446"/>
      <point x="240" y="456"/>
      <point x="228" y="462" type="curve" smooth="yes"/>
      <point x="216" y="468"/>
      <point x="205" y="470"/>
      <point x="194" y="470" type="curve" smooth="yes"/>
      <point x="180" y="470"/>
      <point x="166" y="468"/>
      <point x="155" y="462" type="curve" smooth="yes"/>
      <point x="144" y="456"/>
      <point x="135" y="448"/>
      <point x="127" y="438" type="curve" smooth="yes"/>
      <point x="119" y="428"/>
      <point x="114" y="416"/>
      <point x="110" y="402" type="curve" smooth="yes"/>
      <point x="106" y="388"/>
      <point x="104" y="372"/>
      <point x="104" y="356" type="curve" smooth="yes"/>
      <point x="104" y="330"/>
      <point x="108" y="310"/>
      <point x="114" y="294" type="curve" smooth="yes"/>
      <point x="120" y="278"/>
      <point x="127" y="265"/>
      <point x="137" y="255" type="curve" smooth="yes"/>
      <point x="147" y="245"/>
      <point x="157" y="239"/>
      <point x="168" y="236" type="curve" smooth="yes"/>
      <point x="179" y="233"/>
      <point x="190" y="231"/>
    </contour>
    <contour>
      <point x="362" y="304" type="curve" smooth="yes"/>
      <point x="362" y="262"/>
      <point x="356" y="222"/>
      <point x="345" y="186" type="curve" smooth="yes"/>
      <point x="334" y="150"/>
      <point x="316" y="118"/>
      <point x="293" y="90" type="curve" smooth="yes"/>
      <point x="270" y="62"/>
      <point x="240" y="39"/>
      <point x="205" y="21" type="curve" smooth="yes"/>
      <point x="170" y="3"/>
      <point x="127" y="-11"/>
      <point x="79" y="-18" type="curve"/>
      <point x="71" y="6" type="line"/>
      <point x="108" y="15"/>
      <point x="141" y="28"/>
      <point x="167" y="43" type="curve" smooth="yes"/>
      <point x="193" y="58"/>
      <point x="216" y="75"/>
      <point x="234" y="95" type="curve" smooth="yes"/>
      <point x="252" y="115"/>
      <point x="264" y="137"/>
      <point x="274" y="162" type="curve" smooth="yes"/>
      <point x="284" y="187"/>
      <point x="292" y="212"/>
      <point x="294" y="240" type="curve"/>
      <point x="287" y="232"/>
      <point x="278" y="224"/>
      <point x="269" y="218" type="curve" smooth="yes"/>
      <point x="260" y="212"/>
      <point x="251" y="205"/>
      <point x="241" y="200" type="curve" smooth="yes"/>
      <point x="231" y="195"/>
      <point x="221" y="191"/>
      <point x="211" y="189" type="curve" smooth="yes"/>
      <point x="201" y="187"/>
      <point x="192" y="185"/>
      <point x="182" y="185" type="curve" smooth="yes"/>
      <point x="160" y="185"/>
      <point x="141" y="189"/>
      <point x="123" y="196" type="curve" smooth="yes"/>
      <point x="105" y="203"/>
      <point x="91" y="213"/>
      <point x="79" y="226" type="curve" smooth="yes"/>
      <point x="67" y="239"/>
      <point x="57" y="255"/>
      <point x="51" y="273" type="curve" smooth="yes"/>
      <point x="45" y="291"/>
      <point x="42" y="309"/>
      <point x="42" y="330" type="curve" smooth="yes"/>
      <point x="42" y="344"/>
      <point x="43" y="360"/>
      <point x="47" y="374" type="curve" smooth="yes"/>
      <point x="51" y="388"/>
      <point x="56" y="401"/>
      <point x="63" y="415" type="curve" smooth="yes"/>
      <point x="70" y="429"/>
      <point x="80" y="442"/>
      <point x="90" y="454" type="curve" smooth="yes"/>
      <point x="100" y="466"/>
      <point x="110" y="476"/>
      <point x="123" y="485" type="curve" smooth="yes"/>
      <point x="136" y="494"/>
      <point x="150" y="501"/>
      <point x="164" y="506" type="curve" smooth="yes"/>
      <point x="178" y="511"/>
      <point x="194" y="514"/>
      <point x="210" y="514" type="curve" smooth="yes"/>
      <point x="229" y="514"/>
      <point x="249" y="510"/>
      <point x="267" y="502" type="curve" smooth="yes"/>
      <point x="285" y="494"/>
      <point x="301" y="481"/>
      <point x="315" y="464" type="curve" smooth="yes"/>
      <point x="329" y="447"/>
      <point x="341" y="425"/>
      <point x="350" y="399" type="curve" smooth="yes"/>
      <point x="359" y="373"/>
      <point x="362" y="341"/>
    </contour>
  </outline>
</glyph>
<glyph name="colon" format="2">
  <advance width="194"/>
  <unicode hex="003A"/>
  <outline>
    <contour>
      <point x="154" y="51" type="curve" smooth="yes"/>
      <point x="154" y="41"/>
      <point x="152" y="32"/>
      <point x="149" y="24" type="curve" smooth="yes"/>
      <point x="146" y="16"/>
      <point x="142" y="9"/>
      <point x="137" y="3" type="curve" smooth="yes"/>
      <point x="132" y="-3"/>
      <point x="125" y="-8"/>
      <point x="118" y="-11" type="curve" smooth="yes"/>
      <point x="111" y="-14"/>
      <point x="104" y="-17"/>
      <point x="96" y="-17" type="curve" smooth="yes"/>
      <point x="81" y="-17"/>
      <point x="70" y="-13"/>
      <point x="64" y="-5" type="curve" smooth="yes"/>
      <point x="58" y="3"/>
      <point x="54" y="15"/>
      <point x="54" y="30" type="curve" smooth="yes"/>
      <point x="54" y="40"/>
      <point x="56" y="48"/>
      <point x="59" y="56" type="curve" smooth="yes"/>
      <point x="62" y="64"/>
      <point x="65" y="72"/>
      <point x="71" y="78" type="curve" smooth="yes"/>
      <point x="77" y="84"/>
      <point x="83" y="89"/>
      <point x="90" y="93" type="curve" smooth="yes"/>
      <point x="97" y="97"/>
      <point x="104" y="98"/>
      <point x="112" y="98" type="curve" smooth="yes"/>
      <point x="126" y="98"/>
      <point x="137" y="94"/>
      <point x="143" y="86" type="curve" smooth="yes"/>
      <point x="149" y="78"/>
      <point x="154" y="66"/>
    </contour>
    <contour>
      <point x="154" y="353" type="curve" smooth="yes"/>
      <point x="154" y="343"/>
      <point x="152" y="334"/>
      <point x="149" y="326" type="curve" smooth="yes"/>
      <point x="146" y="318"/>
      <point x="142" y="311"/>
      <point x="137" y="305" type="curve" smooth="yes"/>
      <point x="132" y="299"/>
      <point x="125" y="293"/>
      <point x="118" y="290" type="curve" smooth="yes"/>
      <point x="111" y="287"/>
      <point x="104" y="285"/>
      <point x="96" y="285" type="curve" smooth="yes"/>
      <point x="81" y="285"/>
      <point x="70" y="289"/>
      <point x="64" y="297" type="curve" smooth="yes"/>
      <point x="58" y="305"/>
      <point x="54" y="316"/>
      <point x="54" y="331" type="curve" smooth="yes"/>
      <point x="54" y="341"/>
      <point x="56" y="350"/>
      <point x="59" y="358" type="curve" smooth="yes"/>
      <point x="62" y="366"/>
      <point x="65" y="373"/>
      <point x="71" y="379" type="curve" smooth="yes"/>
      <point x="77" y="385"/>
      <point x="83" y="390"/>
      <point x="90" y="394" type="curve" smooth="yes"/>
      <point x="97" y="398"/>
      <point x="104" y="400"/>
      <point x="112" y="400" type="curve" smooth="yes"/>
      <point x="126" y="400"/>
      <point x="137" y="395"/>
      <point x="143" y="387" type="curve" smooth="yes"/>
      <point x="149" y="379"/>
      <point x="154" y="368"/>
    </contour>
  </outline>
</glyph>
<glyph name="semicolon" format="2">
  <advance width="194"/>
  <unicode hex="003B"/>
  <outline>
    <contour>
      <point x="162" y="29" type="curve" smooth="yes"/>
      <point x="162" y="18"/>
      <point x="160" y="7"/>
      <point x="156" y="-7" type="curve" smooth="yes"/>
      <point x="152" y="-21"/>
      <point x="146" y="-35"/>
      <point x="138" y="-49" type="curve" smooth="yes"/>
      <point x="130" y="-63"/>
      <point x="119" y="-76"/>
      <point x="108" y="-90" type="curve" smooth="yes"/>
      <point x="97" y="-104"/>
      <point x="83" y="-116"/>
      <point x="69" y="-127" type="curve"/>
      <point x="50" y="-112" type="line"/>
      <point x="58" y="-103"/>
      <point x="64" y="-94"/>
      <point x="70" y="-86" type="curve" smooth="yes"/>
      <point x="76" y="-78"/>
      <point x="80" y="-70"/>
      <point x="84" y="-61" type="curve" smooth="yes"/>
      <point x="88" y="-52"/>
      <point x="89" y="-43"/>
      <point x="91" y="-33" type="curve" smooth="yes"/>
      <point x="93" y="-23"/>
      <point x="94" y="-12"/>
      <point x="94" y="0" type="curve" smooth="yes"/>
      <point x="94" y="12"/>
      <point x="90" y="22"/>
      <point x="82" y="29" type="curve" smooth="yes"/>
      <point x="74" y="36"/>
      <point x="61" y="39"/>
      <point x="43" y="38" type="curve"/>
      <point x="37" y="58" type="line"/>
      <point x="39" y="61"/>
      <point x="45" y="66"/>
      <point x="53" y="70" type="curve" smooth="yes"/>
      <point x="61" y="74"/>
      <point x="69" y="78"/>
      <point x="79" y="82" type="curve" smooth="yes"/>
      <point x="89" y="86"/>
      <point x="97" y="90"/>
      <point x="107" y="92" type="curve" smooth="yes"/>
      <point x="117" y="94"/>
      <point x="124" y="95"/>
      <point x="129" y="95" type="curve"/>
      <point x="143" y="89"/>
      <point x="150" y="81"/>
      <point x="155" y="70" type="curve" smooth="yes"/>
      <point x="160" y="59"/>
      <point x="162" y="45"/>
    </contour>
    <contour>
      <point x="154" y="353" type="curve" smooth="yes"/>
      <point x="154" y="343"/>
      <point x="152" y="334"/>
      <point x="149" y="326" type="curve" smooth="yes"/>
      <point x="146" y="318"/>
      <point x="142" y="311"/>
      <point x="137" y="305" type="curve" smooth="yes"/>
      <point x="132" y="299"/>
      <point x="125" y="293"/>
      <point x="118" y="290" type="curve" smooth="yes"/>
      <point x="111" y="287"/>
      <point x="104" y="285"/>
      <point x="96" y="285" type="curve" smooth="yes"/>
      <point x="81" y="285"/>
      <point x="70" y="289"/>
      <point x="64" y="297" type="curve" smooth="yes"/>
      <point x="58" y="305"/>
      <point x="54" y="316"/>
      <point x="54" y="331" type="curve" smooth="yes"/>
      <point x="54" y="341"/>
      <point x="56" y="350"/>
      <point x="59" y="358" type="curve" smooth="yes"/>
      <point x="62" y="366"/>
      <point x="65" y="373"/>
      <point x="71" y="379" type="curve" smooth="yes"/>
      <point x="77" y="385"/>
      <point x="83" y="390"/>
      <point x="90" y="394" type="curve" smooth="yes"/>
      <point x="97" y="398"/>
      <point x="104" y="400"/>
      <point x="112" y="400" type="curve" smooth="yes"/>
      <point x="126" y="400"/>
      <point x="137" y="395"/>
      <point x="143" y="387" type="curve" smooth="yes"/>
      <point x="149" y="379"/>
      <point x="154" y="368"/>
    </contour>
  </outline>
</glyph>
<glyph name="less" format="2">
  <advance width="373"/>
  <unicode hex="003C"/>
  <outline>
    <contour>
      <point x="349" y="134" type="line"/>
      <point x="346" y="132"/>
      <point x="343" y="128"/>
      <point x="341" y="126" type="curve" smooth="yes"/>
      <point x="339" y="124"/>
      <point x="335" y="122"/>
      <point x="333" y="120" type="curve" smooth="yes"/>
      <point x="331" y="118"/>
      <point x="328" y="116"/>
      <point x="325" y="114" type="curve" smooth="yes"/>
      <point x="322" y="112"/>
      <point x="318" y="108"/>
      <point x="314" y="106" type="curve"/>
      <point x="36" y="210" type="line"/>
      <point x="26" y="221" type="line"/>
      <point x="26" y="222" type="line"/>
      <point x="26" y="223" type="line"/>
      <point x="27" y="226" type="line" smooth="yes"/>
      <point x="27" y="227"/>
      <point x="27" y="228"/>
      <point x="28" y="230" type="curve" smooth="yes"/>
      <point x="29" y="235" type="line"/>
      <point x="30" y="238" type="line" smooth="yes"/>
      <point x="30" y="239"/>
      <point x="31" y="241"/>
      <point x="31" y="242" type="curve" smooth="yes"/>
      <point x="31" y="243"/>
      <point x="31" y="243"/>
      <point x="32" y="244" type="curve" smooth="yes"/>
      <point x="33" y="247" type="line"/>
      <point x="35" y="255" type="line"/>
      <point x="38" y="260" type="line"/>
      <point x="38" y="262" type="line"/>
      <point x="338" y="374" type="line"/>
      <point x="349" y="363" type="line"/>
      <point x="348" y="360"/>
      <point x="347" y="358"/>
      <point x="346" y="354" type="curve" smooth="yes"/>
      <point x="345" y="350"/>
      <point x="343" y="346"/>
      <point x="342" y="342" type="curve" smooth="yes"/>
      <point x="341" y="338"/>
      <point x="340" y="335"/>
      <point x="339" y="331" type="curve" smooth="yes"/>
      <point x="338" y="327"/>
      <point x="338" y="324"/>
      <point x="337" y="322" type="curve"/>
      <point x="106" y="236" type="line"/>
      <point x="342" y="149" type="line"/>
    </contour>
  </outline>
</glyph>
<glyph name="equal" format="2">
  <advance width="373"/>
  <unicode hex="003D"/>
  <outline>
    <contour>
      <point x="349" y="183" type="line"/>
      <point x="347" y="177"/>
      <point x="344" y="171"/>
      <point x="342" y="165" type="curve" smooth="yes"/>
      <point x="340" y="159"/>
      <point x="339" y="154"/>
      <point x="337" y="148" type="curve"/>
      <point x="36" y="148" type="line"/>
      <point x="26" y="159" type="line"/>
      <point x="28" y="165"/>
      <point x="29" y="170"/>
      <point x="31" y="176" type="curve" smooth="yes"/>
      <point x="33" y="182"/>
      <point x="36" y="188"/>
      <point x="38" y="194" type="curve"/>
      <point x="338" y="194" type="line"/>
    </contour>
    <contour>
      <point x="349" y="308" type="line"/>
      <point x="347" y="302"/>
      <point x="344" y="296"/>
      <point x="342" y="290" type="curve" smooth="yes"/>
      <point x="340" y="284"/>
      <point x="339" y="278"/>
      <point x="337" y="273" type="curve"/>
      <point x="36" y="273" type="line"/>
      <point x="26" y="283" type="line"/>
      <point x="28" y="289"/>
      <point x="29" y="295"/>
      <point x="31" y="301" type="curve" smooth="yes"/>
      <point x="33" y="307"/>
      <point x="36" y="312"/>
      <point x="38" y="318" type="curve"/>
      <point x="338" y="318" type="line"/>
    </contour>
  </outline>
</glyph>
<glyph name="greater" format="2">
  <advance width="373"/>
  <unicode hex="003E"/>
  <outline>
    <contour>
      <point x="349" y="260" type="line"/>
      <point x="347" y="254"/>
      <point x="345" y="248"/>
      <point x="343" y="240" type="curve" smooth="yes"/>
      <point x="341" y="232"/>
      <point x="338" y="224"/>
      <point x="336" y="218" type="curve"/>
      <point x="36" y="106" type="line"/>
      <point x="26" y="117" type="line"/>
      <point x="27" y="119"/>
      <point x="27" y="122"/>
      <point x="28" y="126" type="curve" smooth="yes"/>
      <point x="29" y="130"/>
      <point x="31" y="134"/>
      <point x="32" y="138" type="curve" smooth="yes"/>
      <point x="33" y="142"/>
      <point x="34" y="146"/>
      <point x="35" y="149" type="curve" smooth="yes"/>
      <point x="36" y="152"/>
      <point x="37" y="156"/>
      <point x="38" y="158" type="curve"/>
      <point x="267" y="243" type="line"/>
      <point x="33" y="330" type="line"/>
      <point x="26" y="347" type="line"/>
      <point x="32" y="352"/>
      <point x="38" y="356"/>
      <point x="44" y="361" type="curve" smooth="yes"/>
      <point x="50" y="366"/>
      <point x="55" y="370"/>
      <point x="60" y="374" type="curve"/>
      <point x="339" y="270" type="line"/>
    </contour>
  </outline>
</glyph>
<glyph name="question" format="2">
  <advance width="368"/>
  <unicode hex="003F"/>
  <outline>
    <contour>
      <point x="335" y="485" type="curve" smooth="yes"/>
      <point x="335" y="464"/>
      <point x="332" y="446"/>
      <point x="326" y="429" type="curve" smooth="yes"/>
      <point x="320" y="412"/>
      <point x="311" y="396"/>
      <point x="301" y="382" type="curve" smooth="yes"/>
      <point x="291" y="368"/>
      <point x="280" y="354"/>
      <point x="268" y="341" type="curve" smooth="yes"/>
      <point x="256" y="328"/>
      <point x="245" y="314"/>
      <point x="235" y="300" type="curve" smooth="yes"/>
      <point x="225" y="286"/>
      <point x="216" y="271"/>
      <point x="209" y="255" type="curve" smooth="yes"/>
      <point x="202" y="239"/>
      <point x="197" y="222"/>
      <point x="195" y="202" type="curve" smooth="yes"/>
      <point x="193" y="162" type="line"/>
      <point x="187" y="158"/>
      <point x="182" y="154"/>
      <point x="178" y="152" type="curve" smooth="yes"/>
      <point x="174" y="150"/>
      <point x="169" y="147"/>
      <point x="161" y="145" type="curve"/>
      <point x="150" y="154" type="line"/>
      <point x="147" y="202" type="line" smooth="yes"/>
      <point x="146" y="218"/>
      <point x="148" y="233"/>
      <point x="154" y="249" type="curve" smooth="yes"/>
      <point x="160" y="265"/>
      <point x="167" y="280"/>
      <point x="176" y="295" type="curve" smooth="yes"/>
      <point x="185" y="310"/>
      <point x="196" y="325"/>
      <point x="206" y="340" type="curve" smooth="yes"/>
      <point x="216" y="355"/>
      <point x="226" y="369"/>
      <point x="235" y="383" type="curve" smooth="yes"/>
      <point x="244" y="397"/>
      <point x="252" y="412"/>
      <point x="258" y="426" type="curve" smooth="yes"/>
      <point x="264" y="440"/>
      <point x="267" y="452"/>
      <point x="267" y="466" type="curve" smooth="yes"/>
      <point x="267" y="500"/>
      <point x="259" y="527"/>
      <point x="243" y="546" type="curve" smooth="yes"/>
      <point x="227" y="565"/>
      <point x="205" y="576"/>
      <point x="176" y="576" type="curve" smooth="yes"/>
      <point x="166" y="576"/>
      <point x="157" y="574"/>
      <point x="148" y="569" type="curve" smooth="yes"/>
      <point x="139" y="564"/>
      <point x="131" y="557"/>
      <point x="124" y="550" type="curve" smooth="yes"/>
      <point x="117" y="543"/>
      <point x="111" y="535"/>
      <point x="107" y="525" type="curve" smooth="yes"/>
      <point x="103" y="515"/>
      <point x="102" y="505"/>
      <point x="102" y="494" type="curve" smooth="yes"/>
      <point x="102" y="490"/>
      <point x="102" y="486"/>
      <point x="103" y="482" type="curve" smooth="yes"/>
      <point x="104" y="478"/>
      <point x="104" y="474"/>
      <point x="106" y="470" type="curve"/>
      <point x="97" y="465"/>
      <point x="88" y="461"/>
      <point x="78" y="459" type="curve" smooth="yes"/>
      <point x="68" y="457"/>
      <point x="59" y="456"/>
      <point x="46" y="454" type="curve"/>
      <point x="34" y="466" type="line" smooth="yes"/>
      <point x="33" y="468"/>
      <point x="34" y="471"/>
      <point x="34" y="473" type="curve" smooth="yes"/>
      <point x="34" y="480" type="line" smooth="yes"/>
      <point x="34" y="499"/>
      <point x="38" y="517"/>
      <point x="48" y="534" type="curve" smooth="yes"/>
      <point x="58" y="551"/>
      <point x="70" y="565"/>
      <point x="86" y="577" type="curve" smooth="yes"/>
      <point x="102" y="589"/>
      <point x="121" y="600"/>
      <point x="142" y="606" type="curve" smooth="yes"/>
      <point x="163" y="612"/>
      <point x="186" y="616"/>
      <point x="209" y="616" type="curve" smooth="yes"/>
      <point x="229" y="616"/>
      <point x="247" y="612"/>
      <point x="263" y="606" type="curve" smooth="yes"/>
      <point x="279" y="600"/>
      <point x="292" y="590"/>
      <point x="302" y="579" type="curve" smooth="yes"/>
      <point x="312" y="568"/>
      <point x="321" y="554"/>
      <point x="327" y="538" type="curve" smooth="yes"/>
      <point x="333" y="522"/>
      <point x="335" y="504"/>
    </contour>
    <contour>
      <point x="224" y="51" type="curve" smooth="yes"/>
      <point x="224" y="41"/>
      <point x="223" y="32"/>
      <point x="220" y="24" type="curve" smooth="yes"/>
      <point x="217" y="16"/>
      <point x="213" y="9"/>
      <point x="208" y="3" type="curve" smooth="yes"/>
      <point x="203" y="-3"/>
      <point x="197" y="-8"/>
      <point x="190" y="-11" type="curve" smooth="yes"/>
      <point x="183" y="-14"/>
      <point x="175" y="-17"/>
      <point x="167" y="-17" type="curve" smooth="yes"/>
      <point x="152" y="-17"/>
      <point x="140" y="-13"/>
      <point x="134" y="-5" type="curve" smooth="yes"/>
      <point x="128" y="3"/>
      <point x="126" y="15"/>
      <point x="126" y="30" type="curve" smooth="yes"/>
      <point x="126" y="40"/>
      <point x="127" y="48"/>
      <point x="130" y="56" type="curve" smooth="yes"/>
      <point x="133" y="64"/>
      <point x="136" y="72"/>
      <point x="142" y="78" type="curve" smooth="yes"/>
      <point x="148" y="84"/>
      <point x="154" y="89"/>
      <point x="161" y="93" type="curve" smooth="yes"/>
      <point x="168" y="97"/>
      <point x="175" y="98"/>
      <point x="183" y="98" type="curve" smooth="yes"/>
      <point x="197" y="98"/>
      <point x="208" y="94"/>
      <point x="214" y="86" type="curve" smooth="yes"/>
      <point x="220" y="78"/>
      <point x="224" y="66"/>
    </contour>
  </outline>
</glyph>
<glyph name="at" format="2">
  <advance width="687"/>
  <unicode hex="0040"/>
  <outline>
    <contour>
      <point x="422" y="304" type="line"/>
      <point x="414" y="319"/>
      <point x="406" y="332"/>
      <point x="396" y="341" type="curve" smooth="yes"/>
      <point x="386" y="350"/>
      <point x="374" y="354"/>
      <point x="357" y="354" type="curve" smooth="yes"/>
      <point x="342" y="354"/>
      <point x="328" y="350"/>
      <point x="315" y="344" type="curve" smooth="yes"/>
      <point x="302" y="338"/>
      <point x="291" y="327"/>
      <point x="282" y="314" type="curve" smooth="yes"/>
      <point x="273" y="301"/>
      <point x="267" y="285"/>
      <point x="262" y="266" type="curve" smooth="yes"/>
      <point x="257" y="247"/>
      <point x="254" y="224"/>
      <point x="254" y="198" type="curve" smooth="yes"/>
      <point x="254" y="175"/>
      <point x="256" y="153"/>
      <point x="262" y="134" type="curve" smooth="yes"/>
      <point x="268" y="115"/>
      <point x="275" y="98"/>
      <point x="284" y="84" type="curve" smooth="yes"/>
      <point x="293" y="70"/>
      <point x="303" y="60"/>
      <point x="313" y="53" type="curve" smooth="yes"/>
      <point x="323" y="46"/>
      <point x="333" y="42"/>
      <point x="343" y="42" type="curve" smooth="yes"/>
      <point x="349" y="42"/>
      <point x="353" y="42"/>
      <point x="358" y="44" type="curve" smooth="yes"/>
      <point x="363" y="46"/>
      <point x="369" y="49"/>
      <point x="375" y="54" type="curve" smooth="yes"/>
      <point x="381" y="59"/>
      <point x="387" y="66"/>
      <point x="394" y="74" type="curve" smooth="yes"/>
      <point x="401" y="82"/>
      <point x="412" y="91"/>
      <point x="422" y="104" type="curve"/>
    </contour>
    <contour>
      <point x="658" y="228" type="curve" smooth="yes"/>
      <point x="658" y="204"/>
      <point x="656" y="182"/>
      <point x="650" y="160" type="curve" smooth="yes"/>
      <point x="644" y="138"/>
      <point x="638" y="120"/>
      <point x="628" y="102" type="curve" smooth="yes"/>
      <point x="618" y="84"/>
      <point x="608" y="68"/>
      <point x="596" y="54" type="curve" smooth="yes"/>
      <point x="584" y="40"/>
      <point x="571" y="28"/>
      <point x="558" y="18" type="curve" smooth="yes"/>
      <point x="545" y="8"/>
      <point x="533" y="1"/>
      <point x="519" y="-5" type="curve" smooth="yes"/>
      <point x="505" y="-11"/>
      <point x="494" y="-13"/>
      <point x="482" y="-13" type="curve" smooth="yes"/>
      <point x="476" y="-13"/>
      <point x="468" y="-11"/>
      <point x="462" y="-8" type="curve" smooth="yes"/>
      <point x="456" y="-5"/>
      <point x="451" y="0"/>
      <point x="446" y="6" type="curve" smooth="yes"/>
      <point x="441" y="12"/>
      <point x="437" y="20"/>
      <point x="433" y="30" type="curve" smooth="yes"/>
      <point x="429" y="40"/>
      <point x="426" y="53"/>
      <point x="424" y="67" type="curve"/>
      <point x="413" y="51"/>
      <point x="403" y="38"/>
      <point x="394" y="28" type="curve" smooth="yes"/>
      <point x="385" y="18"/>
      <point x="377" y="10"/>
      <point x="369" y="4" type="curve" smooth="yes"/>
      <point x="361" y="-2"/>
      <point x="352" y="-7"/>
      <point x="343" y="-9" type="curve" smooth="yes"/>
      <point x="334" y="-11"/>
      <point x="325" y="-13"/>
      <point x="314" y="-13" type="curve" smooth="yes"/>
      <point x="300" y="-13"/>
      <point x="284" y="-8"/>
      <point x="270" y="1" type="curve" smooth="yes"/>
      <point x="256" y="10"/>
      <point x="243" y="23"/>
      <point x="231" y="40" type="curve" smooth="yes"/>
      <point x="219" y="57"/>
      <point x="209" y="77"/>
      <point x="202" y="102" type="curve" smooth="yes"/>
      <point x="195" y="127"/>
      <point x="191" y="155"/>
      <point x="191" y="185" type="curve" smooth="yes"/>
      <point x="191" y="201"/>
      <point x="193" y="217"/>
      <point x="197" y="234" type="curve" smooth="yes"/>
      <point x="201" y="251"/>
      <point x="207" y="267"/>
      <point x="214" y="283" type="curve" smooth="yes"/>
      <point x="221" y="299"/>
      <point x="230" y="314"/>
      <point x="240" y="328" type="curve" smooth="yes"/>
      <point x="250" y="342"/>
      <point x="262" y="355"/>
      <point x="275" y="365" type="curve" smooth="yes"/>
      <point x="288" y="375"/>
      <point x="303" y="384"/>
      <point x="319" y="390" type="curve" smooth="yes"/>
      <point x="335" y="396"/>
      <point x="352" y="399"/>
      <point x="370" y="399" type="curve" smooth="yes"/>
      <point x="376" y="399"/>
      <point x="381" y="399"/>
      <point x="387" y="398" type="curve" smooth="yes"/>
      <point x="393" y="397"/>
      <point x="398" y="394"/>
      <point x="403" y="392" type="curve" smooth="yes"/>
      <point x="408" y="390"/>
      <point x="413" y="386"/>
      <point x="419" y="381" type="curve" smooth="yes"/>
      <point x="425" y="376"/>
      <point x="432" y="369"/>
      <point x="439" y="361" type="curve"/>
      <point x="446" y="366"/>
      <point x="454" y="371"/>
      <point x="461" y="377" type="curve" smooth="yes"/>
      <point x="468" y="383"/>
      <point x="476" y="390"/>
      <point x="484" y="399" type="curve"/>
      <point x="497" y="387" type="line"/>
      <point x="495" y="379"/>
      <point x="492" y="370"/>
      <point x="490" y="361" type="curve" smooth="yes"/>
      <point x="488" y="353"/>
      <point x="488" y="344"/>
      <point x="486" y="334" type="curve" smooth="yes"/>
      <point x="484" y="324"/>
      <point x="484" y="313"/>
      <point x="484" y="301" type="curve" smooth="yes"/>
      <point x="484" y="118" type="line" smooth="yes"/>
      <point x="484" y="93"/>
      <point x="489" y="75"/>
      <point x="497" y="63" type="curve" smooth="yes"/>
      <point x="505" y="51"/>
      <point x="515" y="46"/>
      <point x="529" y="46" type="curve" smooth="yes"/>
      <point x="536" y="46"/>
      <point x="545" y="49"/>
      <point x="554" y="58" type="curve" smooth="yes"/>
      <point x="563" y="67"/>
      <point x="571" y="79"/>
      <point x="579" y="94" type="curve" smooth="yes"/>
      <point x="587" y="109"/>
      <point x="594" y="127"/>
      <point x="600" y="147" type="curve" smooth="yes"/>
      <point x="606" y="167"/>
      <point x="609" y="190"/>
      <point x="609" y="213" type="curve" smooth="yes"/>
      <point x="609" y="259"/>
      <point x="602" y="302"/>
      <point x="590" y="338" type="curve" smooth="yes"/>
      <point x="578" y="374"/>
      <point x="563" y="404"/>
      <point x="541" y="429" type="curve" smooth="yes"/>
      <point x="519" y="454"/>
      <point x="495" y="473"/>
      <point x="465" y="486" type="curve" smooth="yes"/>
      <point x="435" y="499"/>
      <point x="403" y="505"/>
      <point x="368" y="505" type="curve" smooth="yes"/>
      <point x="340" y="505"/>
      <point x="314" y="501"/>
      <point x="289" y="494" type="curve" smooth="yes"/>
      <point x="264" y="487"/>
      <point x="242" y="477"/>
      <point x="221" y="464" type="curve" smooth="yes"/>
      <point x="200" y="451"/>
      <point x="182" y="436"/>
      <point x="166" y="418" type="curve" smooth="yes"/>
      <point x="150" y="400"/>
      <point x="137" y="381"/>
      <point x="126" y="359" type="curve" smooth="yes"/>
      <point x="115" y="337"/>
      <point x="106" y="315"/>
      <point x="100" y="291" type="curve" smooth="yes"/>
      <point x="94" y="267"/>
      <point x="91" y="243"/>
      <point x="91" y="218" type="curve" smooth="yes"/>
      <point x="91" y="184"/>
      <point x="95" y="153"/>
      <point x="102" y="124" type="curve" smooth="yes"/>
      <point x="109" y="95"/>
      <point x="119" y="69"/>
      <point x="132" y="45" type="curve" smooth="yes"/>
      <point x="145" y="21"/>
      <point x="159" y="-1"/>
      <point x="177" y="-19" type="curve" smooth="yes"/>
      <point x="195" y="-37"/>
      <point x="214" y="-53"/>
      <point x="235" y="-66" type="curve" smooth="yes"/>
      <point x="256" y="-79"/>
      <point x="278" y="-90"/>
      <point x="302" y="-96" type="curve" smooth="yes"/>
      <point x="326" y="-102"/>
      <point x="351" y="-106"/>
      <point x="376" y="-106" type="curve" smooth="yes"/>
      <point x="399" y="-106"/>
      <point x="422" y="-104"/>
      <point x="444" y="-99" type="curve" smooth="yes"/>
      <point x="466" y="-94"/>
      <point x="487" y="-88"/>
      <point x="506" y="-81" type="curve" smooth="yes"/>
      <point x="525" y="-74"/>
      <point x="543" y="-66"/>
      <point x="558" y="-58" type="curve" smooth="yes"/>
      <point x="573" y="-50"/>
      <point x="584" y="-41"/>
      <point x="592" y="-34" type="curve"/>
      <point x="603" y="-57" type="line"/>
      <point x="593" y="-67"/>
      <point x="580" y="-78"/>
      <point x="564" y="-90" type="curve" smooth="yes"/>
      <point x="548" y="-102"/>
      <point x="530" y="-112"/>
      <point x="509" y="-122" type="curve" smooth="yes"/>
      <point x="488" y="-132"/>
      <point x="465" y="-140"/>
      <point x="439" y="-146" type="curve" smooth="yes"/>
      <point x="413" y="-152"/>
      <point x="385" y="-156"/>
      <point x="355" y="-156" type="curve" smooth="yes"/>
      <point x="307" y="-156"/>
      <point x="264" y="-147"/>
      <point x="224" y="-131" type="curve" smooth="yes"/>
      <point x="184" y="-115"/>
      <point x="150" y="-92"/>
      <point x="121" y="-62" type="curve" smooth="yes"/>
      <point x="92" y="-32"/>
      <point x="70" y="6"/>
      <point x="54" y="49" type="curve" smooth="yes"/>
      <point x="38" y="92"/>
      <point x="29" y="140"/>
      <point x="29" y="194" type="curve" smooth="yes"/>
      <point x="29" y="225"/>
      <point x="33" y="256"/>
      <point x="42" y="286" type="curve" smooth="yes"/>
      <point x="51" y="316"/>
      <point x="63" y="345"/>
      <point x="78" y="371" type="curve" smooth="yes"/>
      <point x="93" y="397"/>
      <point x="112" y="423"/>
      <point x="134" y="445" type="curve" smooth="yes"/>
      <point x="156" y="467"/>
      <point x="180" y="486"/>
      <point x="206" y="502" type="curve" smooth="yes"/>
      <point x="232" y="518"/>
      <point x="260" y="532"/>
      <point x="290" y="541" type="curve" smooth="yes"/>
      <point x="320" y="550"/>
      <point x="351" y="554"/>
      <point x="384" y="554" type="curve" smooth="yes"/>
      <point x="426" y="554"/>
      <point x="463" y="548"/>
      <point x="497" y="534" type="curve" smooth="yes"/>
      <point x="531" y="520"/>
      <point x="559" y="498"/>
      <point x="583" y="471" type="curve" smooth="yes"/>
      <point x="607" y="444"/>
      <point x="626" y="411"/>
      <point x="639" y="370" type="curve" smooth="yes"/>
      <point x="652" y="329"/>
      <point x="658" y="282"/>
    </contour>
  </outline>
</glyph>
<glyph name="B" format="2">
  <advance width="468"/>
  <unicode hex="0042"/>
  <outline>
    <contour>
      <point x="172" y="502" type="curve" smooth="yes"/>
      <point x="160" y="502" type="line"/>
      <point x="160" y="502"/>
      <point x="152" y="501"/>
      <point x="148" y="501" type="curve"/>
      <point x="148" y="302" type="line"/>
      <point x="162" y="302" type="line" smooth="yes"/>
      <point x="194" y="302"/>
      <point x="219" y="305"/>
      <point x="238" y="311" type="curve" smooth="yes"/>
      <point x="257" y="317"/>
      <point x="273" y="325"/>
      <point x="284" y="335" type="curve" smooth="yes"/>
      <point x="295" y="345"/>
      <point x="302" y="356"/>
      <point x="306" y="368" type="curve" smooth="yes"/>
      <point x="310" y="380"/>
      <point x="312" y="392"/>
      <point x="312" y="404" type="curve" smooth="yes"/>
      <point x="312" y="418"/>
      <point x="310" y="430"/>
      <point x="305" y="442" type="curve" smooth="yes"/>
      <point x="300" y="454"/>
      <point x="293" y="465"/>
      <point x="282" y="474" type="curve" smooth="yes"/>
      <point x="271" y="483"/>
      <point x="257" y="489"/>
      <point x="239" y="494" type="curve" smooth="yes"/>
      <point x="221" y="499"/>
      <point x="199" y="502"/>
    </contour>
    <contour>
      <point x="216" y="270" type="curve" smooth="yes"/>
      <point x="202" y="270"/>
      <point x="190" y="271"/>
      <point x="179" y="269" type="curve" smooth="yes"/>
      <point x="168" y="267"/>
      <point x="158" y="266"/>
      <point x="148" y="264" type="curve"/>
      <point x="148" y="43" type="line" smooth="yes"/>
      <point x="148" y="41"/>
      <point x="149" y="39"/>
      <point x="151" y="37" type="curve"/>
      <point x="156" y="35"/>
      <point x="162" y="34"/>
      <point x="168" y="33" type="curve" smooth="yes"/>
      <point x="186" y="30" type="line"/>
      <point x="186" y="30"/>
      <point x="200" y="30"/>
      <point x="206" y="30" type="curve" smooth="yes"/>
      <point x="212" y="30"/>
      <point x="217" y="29"/>
      <point x="223" y="29" type="curve" smooth="yes"/>
      <point x="243" y="29"/>
      <point x="262" y="32"/>
      <point x="278" y="37" type="curve" smooth="yes"/>
      <point x="294" y="42"/>
      <point x="308" y="49"/>
      <point x="319" y="58" type="curve" smooth="yes"/>
      <point x="330" y="67"/>
      <point x="340" y="78"/>
      <point x="346" y="91" type="curve" smooth="yes"/>
      <point x="352" y="104"/>
      <point x="354" y="119"/>
      <point x="354" y="134" type="curve" smooth="yes"/>
      <point x="354" y="149"/>
      <point x="352" y="165"/>
      <point x="346" y="181" type="curve" smooth="yes"/>
      <point x="340" y="197"/>
      <point x="333" y="211"/>
      <point x="322" y="225" type="curve" smooth="yes"/>
      <point x="311" y="239"/>
      <point x="296" y="249"/>
      <point x="278" y="258" type="curve" smooth="yes"/>
      <point x="260" y="267"/>
      <point x="240" y="270"/>
    </contour>
    <contour>
      <point x="422" y="148" type="curve" smooth="yes"/>
      <point x="422" y="125"/>
      <point x="419" y="103"/>
      <point x="409" y="84" type="curve" smooth="yes"/>
      <point x="399" y="65"/>
      <point x="387" y="50"/>
      <point x="370" y="36" type="curve" smooth="yes"/>
      <point x="353" y="22"/>
      <point x="333" y="12"/>
      <point x="310" y="5" type="curve" smooth="yes"/>
      <point x="287" y="-2"/>
      <point x="261" y="-6"/>
      <point x="233" y="-6" type="curve" smooth="yes"/>
      <point x="210" y="-6" type="line"/>
      <point x="210" y="-6"/>
      <point x="193" y="-5"/>
      <point x="183" y="-5" type="curve" smooth="yes"/>
      <point x="173" y="-5"/>
      <point x="164" y="-4"/>
      <point x="154" y="-4" type="curve" smooth="yes"/>
      <point x="144" y="-4"/>
      <point x="133" y="-4"/>
      <point x="123" y="-3" type="curve" smooth="yes"/>
      <point x="100" y="-2"/>
      <point x="77" y="-1"/>
      <point x="51" y="0" type="curve"/>
      <point x="21" y="0" type="line"/>
      <point x="21" y="18" type="line"/>
      <point x="40" y="22"/>
      <point x="55" y="25"/>
      <point x="65" y="30" type="curve" smooth="yes"/>
      <point x="75" y="35"/>
      <point x="81" y="39"/>
      <point x="81" y="43" type="curve" smooth="yes"/>
      <point x="81" y="495" type="line"/>
      <point x="71" y="493"/>
      <point x="60" y="492"/>
      <point x="50" y="490" type="curve" smooth="yes"/>
      <point x="40" y="488"/>
      <point x="31" y="488"/>
      <point x="21" y="486" type="curve"/>
      <point x="17" y="512" type="line"/>
      <point x="28" y="515"/>
      <point x="40" y="518"/>
      <point x="54" y="521" type="curve" smooth="yes"/>
      <point x="68" y="524"/>
      <point x="84" y="527"/>
      <point x="100" y="529" type="curve" smooth="yes"/>
      <point x="116" y="531"/>
      <point x="132" y="532"/>
      <point x="148" y="534" type="curve" smooth="yes"/>
      <point x="164" y="536"/>
      <point x="180" y="537"/>
      <point x="195" y="537" type="curve" smooth="yes"/>
      <point x="223" y="537"/>
      <point x="248" y="534"/>
      <point x="270" y="529" type="curve" smooth="yes"/>
      <point x="292" y="524"/>
      <point x="312" y="516"/>
      <point x="328" y="506" type="curve" smooth="yes"/>
      <point x="344" y="496"/>
      <point x="355" y="485"/>
      <point x="364" y="471" type="curve" smooth="yes"/>
      <point x="373" y="457"/>
      <point x="377" y="442"/>
      <point x="377" y="424" type="curve" smooth="yes"/>
      <point x="377" y="394"/>
      <point x="369" y="369"/>
      <point x="355" y="347" type="curve" smooth="yes"/>
      <point x="341" y="325"/>
      <point x="323" y="311"/>
      <point x="298" y="301" type="curve"/>
      <point x="316" y="298"/>
      <point x="332" y="291"/>
      <point x="347" y="282" type="curve" smooth="yes"/>
      <point x="362" y="273"/>
      <point x="375" y="262"/>
      <point x="386" y="248" type="curve" smooth="yes"/>
      <point x="397" y="234"/>
      <point x="407" y="219"/>
      <point x="413" y="202" type="curve" smooth="yes"/>
      <point x="419" y="185"/>
      <point x="422" y="167"/>
    </contour>
  </outline>
</glyph>
<glyph name="D" format="2">
  <advance width="504"/>
  <unicode hex="0044"/>
  <outline>
    <contour>
      <point x="189" y="502" type="curve" smooth="yes"/>
      <point x="175" y="502"/>
      <point x="162" y="502"/>
      <point x="148" y="501" type="curve"/>
      <point x="148" y="64" type="line" smooth="yes"/>
      <point x="148" y="58"/>
      <point x="150" y="53"/>
      <point x="152" y="49" type="curve" smooth="yes"/>
      <point x="156" y="44"/>
      <point x="163" y="40"/>
      <point x="174" y="38" type="curve" smooth="yes"/>
      <point x="185" y="36"/>
      <point x="201" y="35"/>
      <point x="223" y="35" type="curve" smooth="yes"/>
      <point x="242" y="35"/>
      <point x="262" y="39"/>
      <point x="282" y="49" type="curve" smooth="yes"/>
      <point x="302" y="59"/>
      <point x="321" y="72"/>
      <point x="338" y="91" type="curve" smooth="yes"/>
      <point x="355" y="110"/>
      <point x="369" y="134"/>
      <point x="380" y="163" type="curve" smooth="yes"/>
      <point x="391" y="192"/>
      <point x="397" y="226"/>
      <point x="397" y="265" type="curve" smooth="yes"/>
      <point x="397" y="302"/>
      <point x="391" y="334"/>
      <point x="382" y="364" type="curve" smooth="yes"/>
      <point x="373" y="394"/>
      <point x="360" y="418"/>
      <point x="342" y="438" type="curve" smooth="yes"/>
      <point x="324" y="458"/>
      <point x="304" y="475"/>
      <point x="278" y="486" type="curve" smooth="yes"/>
      <point x="252" y="497"/>
      <point x="223" y="502"/>
    </contour>
    <contour>
      <point x="467" y="282" type="curve" smooth="yes"/>
      <point x="467" y="248"/>
      <point x="464" y="215"/>
      <point x="457" y="188" type="curve" smooth="yes"/>
      <point x="450" y="161"/>
      <point x="440" y="137"/>
      <point x="428" y="116" type="curve" smooth="yes"/>
      <point x="416" y="95"/>
      <point x="402" y="76"/>
      <point x="386" y="62" type="curve" smooth="yes"/>
      <point x="370" y="48"/>
      <point x="355" y="37"/>
      <point x="337" y="27" type="curve" smooth="yes"/>
      <point x="319" y="17"/>
      <point x="302" y="10"/>
      <point x="284" y="6" type="curve" smooth="yes"/>
      <point x="266" y="2"/>
      <point x="249" y="0"/>
      <point x="233" y="0" type="curve" smooth="yes"/>
      <point x="21" y="0" type="line"/>
      <point x="21" y="18" type="line"/>
      <point x="40" y="22"/>
      <point x="55" y="25"/>
      <point x="65" y="30" type="curve" smooth="yes"/>
      <point x="75" y="35"/>
      <point x="81" y="39"/>
      <point x="81" y="43" type="curve" smooth="yes"/>
      <point x="81" y="494" type="line"/>
      <point x="70" y="492"/>
      <point x="60" y="492"/>
      <point x="50" y="490" type="curve" smooth="yes"/>
      <point x="40" y="488"/>
      <point x="30" y="488"/>
      <point x="21" y="486" type="curve"/>
      <point x="17" y="512" type="line"/>
      <point x="29" y="515"/>
      <point x="43" y="519"/>
      <point x="59" y="522" type="curve" smooth="yes"/>
      <point x="75" y="525"/>
      <point x="92" y="528"/>
      <point x="110" y="530" type="curve" smooth="yes"/>
      <point x="128" y="532"/>
      <point x="146" y="532"/>
      <point x="164" y="534" type="curve" smooth="yes"/>
      <point x="182" y="536"/>
      <point x="199" y="537"/>
      <point x="215" y="537" type="curve" smooth="yes"/>
      <point x="253" y="537"/>
      <point x="289" y="530"/>
      <point x="320" y="519" type="curve" smooth="yes"/>
      <point x="351" y="508"/>
      <point x="377" y="492"/>
      <point x="399" y="470" type="curve" smooth="yes"/>
      <point x="421" y="448"/>
      <point x="438" y="421"/>
      <point x="450" y="389" type="curve" smooth="yes"/>
      <point x="462" y="357"/>
      <point x="467" y="322"/>
    </contour>
  </outline>
</glyph>
<glyph name="F" format="2">
  <advance width="407"/>
  <unicode hex="0046"/>
  <outline>
    <contour>
      <point x="21" y="0" type="line"/>
      <point x="21" y="18" type="line"/>
      <point x="40" y="22"/>
      <point x="55" y="25"/>
      <point x="65" y="30" type="curve" smooth="yes"/>
      <point x="75" y="35"/>
      <point x="81" y="39"/>
      <point x="81" y="43" type="curve" smooth="yes"/>
      <point x="81" y="481" type="line" smooth="yes"/>
      <point x="81" y="484"/>
      <point x="76" y="488"/>
      <point x="66" y="493" type="curve" smooth="yes"/>
      <point x="56" y="498"/>
      <point x="41" y="502"/>
      <point x="21" y="506" type="curve"/>
      <point x="21" y="524" type="line"/>
      <point x="360" y="524" type="line"/>
      <point x="373" y="514" type="line"/>
      <point x="373" y="507"/>
      <point x="372" y="499"/>
      <point x="371" y="490" type="curve" smooth="yes"/>
      <point x="370" y="481"/>
      <point x="369" y="473"/>
      <point x="367" y="464" type="curve" smooth="yes"/>
      <point x="365" y="455"/>
      <point x="364" y="448"/>
      <point x="362" y="440" type="curve" smooth="yes"/>
      <point x="360" y="432"/>
      <point x="359" y="426"/>
      <point x="357" y="420" type="curve"/>
      <point x="338" y="420" type="line"/>
      <point x="337" y="433"/>
      <point x="336" y="443"/>
      <point x="334" y="452" type="curve" smooth="yes"/>
      <point x="332" y="461"/>
      <point x="331" y="468"/>
      <point x="328" y="473" type="curve" smooth="yes"/>
      <point x="325" y="478"/>
      <point x="321" y="481"/>
      <point x="317" y="483" type="curve" smooth="yes"/>
      <point x="313" y="485"/>
      <point x="309" y="486"/>
      <point x="303" y="486" type="curve" smooth="yes"/>
      <point x="148" y="486" type="line"/>
      <point x="148" y="306" type="line"/>
      <point x="303" y="306" type="line"/>
      <point x="315" y="294" type="line"/>
      <point x="313" y="290"/>
      <point x="309" y="287"/>
      <point x="306" y="282" type="curve" smooth="yes"/>
      <point x="303" y="277"/>
      <point x="300" y="273"/>
      <point x="296" y="269" type="curve" smooth="yes"/>
      <point x="292" y="265"/>
      <point x="289" y="261"/>
      <point x="286" y="257" type="curve" smooth="yes"/>
      <point x="283" y="253"/>
      <point x="278" y="250"/>
      <point x="276" y="248" type="curve"/>
      <point x="272" y="252"/>
      <point x="268" y="256"/>
      <point x="263" y="258" type="curve" smooth="yes"/>
      <point x="258" y="260"/>
      <point x="252" y="264"/>
      <point x="246" y="266" type="curve" smooth="yes"/>
      <point x="240" y="268"/>
      <point x="234" y="269"/>
      <point x="225" y="270" type="curve" smooth="yes"/>
      <point x="216" y="271"/>
      <point x="206" y="271"/>
      <point x="194" y="271" type="curve" smooth="yes"/>
      <point x="148" y="271" type="line"/>
      <point x="148" y="43" type="line" smooth="yes"/>
      <point x="148" y="40"/>
      <point x="154" y="36"/>
      <point x="164" y="32" type="curve" smooth="yes"/>
      <point x="174" y="28"/>
      <point x="194" y="24"/>
      <point x="221" y="18" type="curve"/>
      <point x="221" y="0" type="line"/>
    </contour>
  </outline>
</glyph>
<glyph name="G" format="2">
  <advance width="496"/>
  <unicode hex="0047"/>
  <outline>
    <contour>
      <point x="434" y="494" type="curve" smooth="yes"/>
      <point x="436" y="492"/>
      <point x="435" y="490"/>
      <point x="433" y="486" type="curve" smooth="yes"/>
      <point x="431" y="482"/>
      <point x="427" y="478"/>
      <point x="422" y="473" type="curve" smooth="yes"/>
      <point x="417" y="468"/>
      <point x="413" y="463"/>
      <point x="407" y="458" type="curve" smooth="yes"/>
      <point x="401" y="453"/>
      <point x="398" y="449"/>
      <point x="394" y="446" type="curve"/>
      <point x="380" y="448" type="line"/>
      <point x="371" y="457"/>
      <point x="361" y="464"/>
      <point x="351" y="470" type="curve" smooth="yes"/>
      <point x="341" y="476"/>
      <point x="331" y="479"/>
      <point x="321" y="482" type="curve" smooth="yes"/>
      <point x="311" y="485"/>
      <point x="299" y="487"/>
      <point x="287" y="489" type="curve" smooth="yes"/>
      <point x="275" y="491"/>
      <point x="263" y="491"/>
      <point x="249" y="491" type="curve" smooth="yes"/>
      <point x="242" y="491"/>
      <point x="232" y="489"/>
      <point x="222" y="486" type="curve" smooth="yes"/>
      <point x="212" y="483"/>
      <point x="201" y="477"/>
      <point x="190" y="470" type="curve" smooth="yes"/>
      <point x="179" y="463"/>
      <point x="166" y="454"/>
      <point x="155" y="443" type="curve" smooth="yes"/>
      <point x="144" y="432"/>
      <point x="135" y="417"/>
      <point x="125" y="400" type="curve" smooth="yes"/>
      <point x="115" y="383"/>
      <point x="108" y="364"/>
      <point x="102" y="342" type="curve" smooth="yes"/>
      <point x="96" y="320"/>
      <point x="94" y="294"/>
      <point x="94" y="265" type="curve" smooth="yes"/>
      <point x="94" y="227"/>
      <point x="99" y="193"/>
      <point x="109" y="164" type="curve" smooth="yes"/>
      <point x="119" y="135"/>
      <point x="133" y="112"/>
      <point x="150" y="94" type="curve" smooth="yes"/>
      <point x="167" y="76"/>
      <point x="185" y="61"/>
      <point x="206" y="51" type="curve" smooth="yes"/>
      <point x="227" y="41"/>
      <point x="247" y="38"/>
      <point x="268" y="38" type="curve" smooth="yes"/>
      <point x="288" y="38"/>
      <point x="307" y="39"/>
      <point x="324" y="43" type="curve" smooth="yes"/>
      <point x="341" y="47"/>
      <point x="356" y="54"/>
      <point x="370" y="61" type="curve"/>
      <point x="370" y="202" type="line" smooth="yes"/>
      <point x="370" y="205"/>
      <point x="368" y="207"/>
      <point x="366" y="210" type="curve" smooth="yes"/>
      <point x="364" y="213"/>
      <point x="359" y="217"/>
      <point x="353" y="219" type="curve" smooth="yes"/>
      <point x="347" y="221"/>
      <point x="337" y="225"/>
      <point x="326" y="227" type="curve" smooth="yes"/>
      <point x="315" y="229"/>
      <point x="302" y="234"/>
      <point x="285" y="236" type="curve"/>
      <point x="285" y="254" type="line"/>
      <point x="476" y="254" type="line"/>
      <point x="476" y="236" type="line"/>
      <point x="460" y="232"/>
      <point x="448" y="227"/>
      <point x="442" y="221" type="curve" smooth="yes"/>
      <point x="436" y="215"/>
      <point x="433" y="208"/>
      <point x="433" y="202" type="curve" smooth="yes"/>
      <point x="433" y="64" type="line"/>
      <point x="412" y="47"/>
      <point x="394" y="34"/>
      <point x="378" y="24" type="curve" smooth="yes"/>
      <point x="362" y="14"/>
      <point x="347" y="7"/>
      <point x="333" y="1" type="curve" smooth="yes"/>
      <point x="319" y="-5"/>
      <point x="306" y="-8"/>
      <point x="294" y="-10" type="curve" smooth="yes"/>
      <point x="282" y="-12"/>
      <point x="270" y="-13"/>
      <point x="257" y="-13" type="curve" smooth="yes"/>
      <point x="229" y="-13"/>
      <point x="201" y="-7"/>
      <point x="174" y="3" type="curve" smooth="yes"/>
      <point x="147" y="13"/>
      <point x="124" y="28"/>
      <point x="102" y="50" type="curve" smooth="yes"/>
      <point x="80" y="72"/>
      <point x="63" y="98"/>
      <point x="49" y="130" type="curve" smooth="yes"/>
      <point x="35" y="162"/>
      <point x="29" y="199"/>
      <point x="29" y="242" type="curve" smooth="yes"/>
      <point x="29" y="288"/>
      <point x="37" y="329"/>
      <point x="51" y="366" type="curve" smooth="yes"/>
      <point x="65" y="403"/>
      <point x="84" y="432"/>
      <point x="110" y="458" type="curve" smooth="yes"/>
      <point x="136" y="484"/>
      <point x="165" y="503"/>
      <point x="199" y="517" type="curve" smooth="yes"/>
      <point x="233" y="531"/>
      <point x="268" y="537"/>
      <point x="306" y="537" type="curve" smooth="yes"/>
      <point x="315" y="537"/>
      <point x="326" y="536"/>
      <point x="337" y="534" type="curve" smooth="yes"/>
      <point x="348" y="532"/>
      <point x="359" y="529"/>
      <point x="370" y="526" type="curve" smooth="yes"/>
      <point x="381" y="522"/>
      <point x="393" y="518"/>
      <point x="404" y="512" type="curve" smooth="yes"/>
      <point x="415" y="506"/>
      <point x="425" y="500"/>
    </contour>
  </outline>
</glyph>
<glyph name="J" format="2">
  <advance width="260"/>
  <unicode hex="004A"/>
  <outline>
    <contour>
      <point x="231" y="506" type="line"/>
      <point x="212" y="502"/>
      <point x="196" y="499"/>
      <point x="186" y="494" type="curve" smooth="yes"/>
      <point x="176" y="489"/>
      <point x="170" y="485"/>
      <point x="170" y="481" type="curve" smooth="yes"/>
      <point x="170" y="86" type="line" smooth="yes"/>
      <point x="170" y="53"/>
      <point x="169" y="24"/>
      <point x="164" y="2" type="curve" smooth="yes"/>
      <point x="159" y="-20"/>
      <point x="154" y="-39"/>
      <point x="146" y="-54" type="curve" smooth="yes"/>
      <point x="138" y="-69"/>
      <point x="129" y="-81"/>
      <point x="119" y="-91" type="curve" smooth="yes"/>
      <point x="109" y="-101"/>
      <point x="99" y="-111"/>
      <point x="88" y="-120" type="curve" smooth="yes"/>
      <point x="81" y="-126"/>
      <point x="72" y="-131"/>
      <point x="63" y="-136" type="curve" smooth="yes"/>
      <point x="54" y="-141"/>
      <point x="45" y="-145"/>
      <point x="36" y="-148" type="curve" smooth="yes"/>
      <point x="27" y="-151"/>
      <point x="18" y="-153"/>
      <point x="10" y="-155" type="curve" smooth="yes"/>
      <point x="2" y="-157"/>
      <point x="-4" y="-158"/>
      <point x="-10" y="-158" type="curve" smooth="yes"/>
      <point x="-18" y="-158"/>
      <point x="-27" y="-156"/>
      <point x="-35" y="-154" type="curve" smooth="yes"/>
      <point x="-43" y="-152"/>
      <point x="-52" y="-148"/>
      <point x="-58" y="-145" type="curve" smooth="yes"/>
      <point x="-64" y="-142"/>
      <point x="-69" y="-138"/>
      <point x="-73" y="-134" type="curve" smooth="yes"/>
      <point x="-77" y="-130"/>
      <point x="-79" y="-127"/>
      <point x="-79" y="-125" type="curve" smooth="yes"/>
      <point x="-79" y="-123"/>
      <point x="-78" y="-119"/>
      <point x="-74" y="-115" type="curve" smooth="yes"/>
      <point x="-70" y="-111"/>
      <point x="-66" y="-106"/>
      <point x="-61" y="-102" type="curve" smooth="yes"/>
      <point x="-56" y="-98"/>
      <point x="-51" y="-95"/>
      <point x="-45" y="-91" type="curve" smooth="yes"/>
      <point x="-39" y="-87"/>
      <point x="-34" y="-85"/>
      <point x="-30" y="-83" type="curve"/>
      <point x="-22" y="-88"/>
      <point x="-16" y="-92"/>
      <point x="-10" y="-95" type="curve" smooth="yes"/>
      <point x="-4" y="-98"/>
      <point x="1" y="-100"/>
      <point x="6" y="-102" type="curve" smooth="yes"/>
      <point x="11" y="-104"/>
      <point x="15" y="-105"/>
      <point x="20" y="-106" type="curve" smooth="yes"/>
      <point x="25" y="-107"/>
      <point x="29" y="-107"/>
      <point x="35" y="-107" type="curve" smooth="yes"/>
      <point x="42" y="-107"/>
      <point x="50" y="-105"/>
      <point x="58" y="-100" type="curve" smooth="yes"/>
      <point x="66" y="-95"/>
      <point x="75" y="-86"/>
      <point x="81" y="-74" type="curve" smooth="yes"/>
      <point x="87" y="-62"/>
      <point x="93" y="-46"/>
      <point x="98" y="-25" type="curve" smooth="yes"/>
      <point x="103" y="-4"/>
      <point x="104" y="22"/>
      <point x="104" y="55" type="curve" smooth="yes"/>
      <point x="104" y="481" type="line" smooth="yes"/>
      <point x="104" y="483"/>
      <point x="103" y="484"/>
      <point x="101" y="486" type="curve" smooth="yes"/>
      <point x="99" y="488"/>
      <point x="94" y="490"/>
      <point x="88" y="492" type="curve" smooth="yes"/>
      <point x="82" y="494"/>
      <point x="74" y="497"/>
      <point x="64" y="499" type="curve" smooth="yes"/>
      <point x="54" y="501"/>
      <point x="40" y="504"/>
      <point x="23" y="506" type="curve"/>
      <point x="23" y="524" type="line"/>
      <point x="231" y="524" type="line"/>
    </contour>
  </outline>
</glyph>
<glyph name="K" format="2">
  <advance width="492"/>
  <unicode hex="004B"/>
  <outline>
    <contour>
      <point x="21" y="0" type="line"/>
      <point x="21" y="18" type="line"/>
      <point x="40" y="22"/>
      <point x="55" y="25"/>
      <point x="65" y="30" type="curve" smooth="yes"/>
      <point x="75" y="35"/>
      <point x="81" y="39"/>
      <point x="81" y="43" type="curve" smooth="yes"/>
      <point x="81" y="481" type="line" smooth="yes"/>
      <point x="81" y="484"/>
      <point x="76" y="488"/>
      <point x="66" y="493" type="curve" smooth="yes"/>
      <point x="56" y="498"/>
      <point x="41" y="502"/>
      <point x="21" y="506" type="curve"/>
      <point x="21" y="524" type="line"/>
      <point x="208" y="524" type="line"/>
      <point x="208" y="506" type="line"/>
      <point x="189" y="502"/>
      <point x="174" y="499"/>
      <point x="164" y="494" type="curve" smooth="yes"/>
      <point x="154" y="489"/>
      <point x="148" y="485"/>
      <point x="148" y="481" type="curve" smooth="yes"/>
      <point x="148" y="269" type="line"/>
      <point x="318" y="470" type="line" smooth="yes"/>
      <point x="324" y="477"/>
      <point x="328" y="482"/>
      <point x="330" y="487" type="curve" smooth="yes"/>
      <point x="332" y="492"/>
      <point x="330" y="496"/>
      <point x="328" y="498" type="curve" smooth="yes"/>
      <point x="326" y="500"/>
      <point x="321" y="501"/>
      <point x="314" y="503" type="curve" smooth="yes"/>
      <point x="307" y="505"/>
      <point x="298" y="505"/>
      <point x="287" y="506" type="curve"/>
      <point x="287" y="524" type="line"/>
      <point x="462" y="524" type="line"/>
      <point x="462" y="506" type="line"/>
      <point x="453" y="505"/>
      <point x="445" y="504"/>
      <point x="438" y="503" type="curve" smooth="yes"/>
      <point x="431" y="502"/>
      <point x="425" y="500"/>
      <point x="419" y="498" type="curve" smooth="yes"/>
      <point x="413" y="496"/>
      <point x="409" y="494"/>
      <point x="404" y="492" type="curve" smooth="yes"/>
      <point x="399" y="490"/>
      <point x="395" y="486"/>
      <point x="391" y="481" type="curve" smooth="yes"/>
      <point x="209" y="279" type="line"/>
      <point x="410" y="53" type="line" smooth="yes"/>
      <point x="415" y="47"/>
      <point x="420" y="43"/>
      <point x="426" y="40" type="curve" smooth="yes"/>
      <point x="432" y="37"/>
      <point x="438" y="36"/>
      <point x="444" y="34" type="curve" smooth="yes"/>
      <point x="450" y="32"/>
      <point x="457" y="32"/>
      <point x="464" y="32" type="curve" smooth="yes"/>
      <point x="471" y="32"/>
      <point x="479" y="33"/>
      <point x="486" y="34" type="curve"/>
      <point x="488" y="15" type="line"/>
      <point x="472" y="9"/>
      <point x="456" y="6"/>
      <point x="439" y="1" type="curve" smooth="yes"/>
      <point x="422" y="-4"/>
      <point x="408" y="-6"/>
      <point x="394" y="-6" type="curve" smooth="yes"/>
      <point x="386" y="-6"/>
      <point x="379" y="-4"/>
      <point x="373" y="-2" type="curve" smooth="yes"/>
      <point x="367" y="0"/>
      <point x="361" y="5"/>
      <point x="355" y="12" type="curve" smooth="yes"/>
      <point x="148" y="266" type="line"/>
      <point x="148" y="43" type="line" smooth="yes"/>
      <point x="148" y="40"/>
      <point x="152" y="36"/>
      <point x="162" y="31" type="curve" smooth="yes"/>
      <point x="172" y="26"/>
      <point x="188" y="22"/>
      <point x="208" y="18" type="curve"/>
      <point x="208" y="0" type="line"/>
    </contour>
  </outline>
</glyph>
<glyph name="L" format="2">
  <advance width="404"/>
  <unicode hex="004C"/>
  <outline>
    <contour>
      <point x="393" y="102" type="line"/>
      <point x="391" y="78"/>
      <point x="387" y="56"/>
      <point x="384" y="38" type="curve" smooth="yes"/>
      <point x="381" y="20"/>
      <point x="378" y="8"/>
      <point x="376" y="0" type="curve"/>
      <point x="21" y="0" type="line"/>
      <point x="21" y="18" type="line"/>
      <point x="40" y="22"/>
      <point x="55" y="25"/>
      <point x="65" y="30" type="curve" smooth="yes"/>
      <point x="75" y="35"/>
      <point x="81" y="39"/>
      <point x="81" y="43" type="curve" smooth="yes"/>
      <point x="81" y="481" type="line" smooth="yes"/>
      <point x="81" y="484"/>
      <point x="76" y="488"/>
      <point x="66" y="493" type="curve" smooth="yes"/>
      <point x="56" y="498"/>
      <point x="41" y="502"/>
      <point x="21" y="506" type="curve"/>
      <point x="21" y="524" type="line"/>
      <point x="208" y="524" type="line"/>
      <point x="208" y="506" type="line"/>
      <point x="189" y="502"/>
      <point x="174" y="499"/>
      <point x="164" y="494" type="curve" smooth="yes"/>
      <point x="154" y="489"/>
      <point x="148" y="485"/>
      <point x="148" y="481" type="curve" smooth="yes"/>
      <point x="148" y="68" type="line" smooth="yes"/>
      <point x="148" y="63"/>
      <point x="149" y="59"/>
      <point x="151" y="55" type="curve" smooth="yes"/>
      <point x="153" y="51"/>
      <point x="157" y="48"/>
      <point x="163" y="46" type="curve" smooth="yes"/>
      <point x="169" y="44"/>
      <point x="177" y="41"/>
      <point x="187" y="39" type="curve" smooth="yes"/>
      <point x="197" y="37"/>
      <point x="210" y="38"/>
      <point x="225" y="38" type="curve" smooth="yes"/>
      <point x="285" y="38" type="line" smooth="yes"/>
      <point x="298" y="38"/>
      <point x="308" y="37"/>
      <point x="317" y="39" type="curve" smooth="yes"/>
      <point x="326" y="41"/>
      <point x="334" y="44"/>
      <point x="340" y="49" type="curve" smooth="yes"/>
      <point x="346" y="54"/>
      <point x="352" y="60"/>
      <point x="358" y="70" type="curve" smooth="yes"/>
      <point x="364" y="80"/>
      <point x="369" y="93"/>
      <point x="375" y="109" type="curve"/>
    </contour>
  </outline>
</glyph>
<glyph name="M" format="2">
  <advance width="686"/>
  <unicode hex="004D"/>
  <outline>
    <contour>
      <point x="645" y="506" type="line"/>
      <point x="637" y="506"/>
      <point x="628" y="504"/>
      <point x="618" y="502" type="curve" smooth="yes"/>
      <point x="608" y="500"/>
      <point x="599" y="496"/>
      <point x="589" y="491" type="curve"/>
      <point x="593" y="43" type="line" smooth="yes"/>
      <point x="593" y="40"/>
      <point x="598" y="36"/>
      <point x="608" y="31" type="curve" smooth="yes"/>
      <point x="618" y="26"/>
      <point x="633" y="22"/>
      <point x="653" y="18" type="curve"/>
      <point x="653" y="0" type="line"/>
      <point x="464" y="0" type="line"/>
      <point x="464" y="18" type="line"/>
      <point x="483" y="22"/>
      <point x="498" y="25"/>
      <point x="510" y="30" type="curve" smooth="yes"/>
      <point x="522" y="35"/>
      <point x="528" y="39"/>
      <point x="528" y="43" type="curve" smooth="yes"/>
      <point x="525" y="433" type="line"/>
      <point x="342" y="0" type="line"/>
      <point x="322" y="0" type="line"/>
      <point x="137" y="430" type="line"/>
      <point x="133" y="43" type="line" smooth="yes"/>
      <point x="133" y="40"/>
      <point x="138" y="36"/>
      <point x="148" y="31" type="curve" smooth="yes"/>
      <point x="158" y="26"/>
      <point x="174" y="22"/>
      <point x="194" y="18" type="curve"/>
      <point x="194" y="0" type="line"/>
      <point x="25" y="0" type="line"/>
      <point x="25" y="18" type="line"/>
      <point x="44" y="22"/>
      <point x="60" y="25"/>
      <point x="70" y="30" type="curve" smooth="yes"/>
      <point x="80" y="35"/>
      <point x="86" y="39"/>
      <point x="86" y="43" type="curve" smooth="yes"/>
      <point x="90" y="490" type="line"/>
      <point x="80" y="496"/>
      <point x="68" y="500"/>
      <point x="58" y="502" type="curve" smooth="yes"/>
      <point x="48" y="504"/>
      <point x="37" y="506"/>
      <point x="29" y="506" type="curve"/>
      <point x="29" y="524" type="line"/>
      <point x="148" y="524" type="line" smooth="yes"/>
      <point x="150" y="524"/>
      <point x="153" y="524"/>
      <point x="155" y="523" type="curve" smooth="yes"/>
      <point x="157" y="522"/>
      <point x="159" y="520"/>
      <point x="161" y="518" type="curve" smooth="yes"/>
      <point x="163" y="516"/>
      <point x="164" y="512"/>
      <point x="166" y="507" type="curve" smooth="yes"/>
      <point x="168" y="502"/>
      <point x="171" y="497"/>
      <point x="174" y="490" type="curve" smooth="yes"/>
      <point x="340" y="114" type="line"/>
      <point x="499" y="490" type="line" smooth="yes"/>
      <point x="503" y="498"/>
      <point x="506" y="504"/>
      <point x="508" y="509" type="curve" smooth="yes"/>
      <point x="510" y="514"/>
      <point x="512" y="517"/>
      <point x="514" y="519" type="curve" smooth="yes"/>
      <point x="516" y="521"/>
      <point x="517" y="522"/>
      <point x="519" y="523" type="curve" smooth="yes"/>
      <point x="521" y="524"/>
      <point x="524" y="524"/>
      <point x="526" y="524" type="curve" smooth="yes"/>
      <point x="645" y="524" type="line"/>
    </contour>
  </outline>
</glyph>
<glyph name="N" format="2">
  <advance width="552"/>
  <unicode hex="004E"/>
  <outline>
    <contour>
      <point x="21" y="0" type="line"/>
      <point x="21" y="18" type="line"/>
      <point x="42" y="20"/>
      <point x="56" y="24"/>
      <point x="66" y="30" type="curve" smooth="yes"/>
      <point x="76" y="36"/>
      <point x="81" y="39"/>
      <point x="81" y="43" type="curve" smooth="yes"/>
      <point x="81" y="478" type="line"/>
      <point x="72" y="487"/>
      <point x="62" y="494"/>
      <point x="52" y="498" type="curve" smooth="yes"/>
      <point x="42" y="502"/>
      <point x="32" y="504"/>
      <point x="21" y="506" type="curve"/>
      <point x="21" y="524" type="line"/>
      <point x="109" y="524" type="line" smooth="yes"/>
      <point x="113" y="524"/>
      <point x="117" y="524"/>
      <point x="119" y="523" type="curve" smooth="yes"/>
      <point x="121" y="522"/>
      <point x="125" y="520"/>
      <point x="127" y="518" type="curve" smooth="yes"/>
      <point x="129" y="516"/>
      <point x="133" y="513"/>
      <point x="136" y="509" type="curve" smooth="yes"/>
      <point x="139" y="505"/>
      <point x="143" y="499"/>
      <point x="149" y="492" type="curve" smooth="yes"/>
      <point x="422" y="115" type="line"/>
      <point x="422" y="481" type="line" smooth="yes"/>
      <point x="422" y="484"/>
      <point x="418" y="488"/>
      <point x="409" y="494" type="curve" smooth="yes"/>
      <point x="400" y="500"/>
      <point x="384" y="503"/>
      <point x="362" y="506" type="curve"/>
      <point x="362" y="524" type="line"/>
      <point x="533" y="524" type="line"/>
      <point x="533" y="506" type="line"/>
      <point x="513" y="504"/>
      <point x="497" y="500"/>
      <point x="487" y="494" type="curve" smooth="yes"/>
      <point x="477" y="488"/>
      <point x="472" y="485"/>
      <point x="472" y="481" type="curve" smooth="yes"/>
      <point x="472" y="-13" type="line"/>
      <point x="458" y="-11"/>
      <point x="447" y="-8"/>
      <point x="439" y="-4" type="curve" smooth="yes"/>
      <point x="431" y="0"/>
      <point x="425" y="4"/>
      <point x="422" y="9" type="curve" smooth="yes"/>
      <point x="131" y="413" type="line"/>
      <point x="131" y="43" type="line" smooth="yes"/>
      <point x="131" y="40"/>
      <point x="135" y="36"/>
      <point x="145" y="30" type="curve" smooth="yes"/>
      <point x="155" y="24"/>
      <point x="169" y="21"/>
      <point x="191" y="18" type="curve"/>
      <point x="191" y="0" type="line"/>
    </contour>
  </outline>
</glyph>
<glyph name="Q" format="2">
  <advance width="511"/>
  <unicode hex="0051"/>
  <outline>
    <contour>
      <point x="409" y="262" type="curve" smooth="yes"/>
      <point x="409" y="281"/>
      <point x="407" y="300"/>
      <point x="404" y="318" type="curve" smooth="yes"/>
      <point x="401" y="336"/>
      <point x="395" y="355"/>
      <point x="389" y="372" type="curve" smooth="yes"/>
      <point x="383" y="389"/>
      <point x="376" y="404"/>
      <point x="366" y="418" type="curve" smooth="yes"/>
      <point x="356" y="432"/>
      <point x="346" y="445"/>
      <point x="334" y="455" type="curve" smooth="yes"/>
      <point x="322" y="465"/>
      <point x="310" y="474"/>
      <point x="296" y="480" type="curve" smooth="yes"/>
      <point x="282" y="486"/>
      <point x="267" y="489"/>
      <point x="251" y="489" type="curve" smooth="yes"/>
      <point x="226" y="489"/>
      <point x="204" y="484"/>
      <point x="185" y="474" type="curve" smooth="yes"/>
      <point x="166" y="464"/>
      <point x="149" y="448"/>
      <point x="135" y="429" type="curve" smooth="yes"/>
      <point x="121" y="410"/>
      <point x="112" y="385"/>
      <point x="105" y="358" type="curve" smooth="yes"/>
      <point x="98" y="331"/>
      <point x="94" y="300"/>
      <point x="94" y="266" type="curve" smooth="yes"/>
      <point x="94" y="235"/>
      <point x="97" y="206"/>
      <point x="106" y="178" type="curve" smooth="yes"/>
      <point x="115" y="150"/>
      <point x="127" y="127"/>
      <point x="141" y="106" type="curve" smooth="yes"/>
      <point x="155" y="85"/>
      <point x="171" y="68"/>
      <point x="190" y="56" type="curve" smooth="yes"/>
      <point x="209" y="44"/>
      <point x="229" y="38"/>
      <point x="251" y="38" type="curve" smooth="yes"/>
      <point x="274" y="38"/>
      <point x="295" y="42"/>
      <point x="314" y="52" type="curve" smooth="yes"/>
      <point x="333" y="62"/>
      <point x="351" y="75"/>
      <point x="365" y="94" type="curve" smooth="yes"/>
      <point x="379" y="113"/>
      <point x="390" y="137"/>
      <point x="398" y="165" type="curve" smooth="yes"/>
      <point x="406" y="193"/>
      <point x="409" y="225"/>
    </contour>
    <contour>
      <point x="534" y="-49" type="line"/>
      <point x="528" y="-61"/>
      <point x="520" y="-72"/>
      <point x="513" y="-82" type="curve" smooth="yes"/>
      <point x="506" y="-92"/>
      <point x="499" y="-100"/>
      <point x="493" y="-106" type="curve" smooth="yes"/>
      <point x="487" y="-112"/>
      <point x="480" y="-118"/>
      <point x="474" y="-122" type="curve" smooth="yes"/>
      <point x="468" y="-126"/>
      <point x="462" y="-127"/>
      <point x="458" y="-127" type="curve" smooth="yes"/>
      <point x="441" y="-127"/>
      <point x="424" y="-123"/>
      <point x="407" y="-114" type="curve" smooth="yes"/>
      <point x="390" y="-105"/>
      <point x="375" y="-95"/>
      <point x="358" y="-83" type="curve" smooth="yes"/>
      <point x="341" y="-71"/>
      <point x="325" y="-59"/>
      <point x="308" y="-46" type="curve" smooth="yes"/>
      <point x="291" y="-33"/>
      <point x="275" y="-21"/>
      <point x="258" y="-11" type="curve"/>
      <point x="252" y="-12"/>
      <point x="245" y="-13"/>
      <point x="239" y="-13" type="curve" smooth="yes"/>
      <point x="209" y="-13"/>
      <point x="180" y="-5"/>
      <point x="154" y="9" type="curve" smooth="yes"/>
      <point x="128" y="23"/>
      <point x="106" y="42"/>
      <point x="88" y="66" type="curve" smooth="yes"/>
      <point x="70" y="90"/>
      <point x="55" y="118"/>
      <point x="45" y="151" type="curve" smooth="yes"/>
      <point x="35" y="184"/>
      <point x="29" y="217"/>
      <point x="29" y="254" type="curve" smooth="yes"/>
      <point x="29" y="292"/>
      <point x="35" y="328"/>
      <point x="47" y="362" type="curve" smooth="yes"/>
      <point x="59" y="396"/>
      <point x="77" y="426"/>
      <point x="98" y="452" type="curve" smooth="yes"/>
      <point x="119" y="478"/>
      <point x="142" y="499"/>
      <point x="171" y="514" type="curve" smooth="yes"/>
      <point x="200" y="529"/>
      <point x="230" y="537"/>
      <point x="263" y="537" type="curve" smooth="yes"/>
      <point x="297" y="537"/>
      <point x="328" y="529"/>
      <point x="354" y="514" type="curve" smooth="yes"/>
      <point x="380" y="499"/>
      <point x="402" y="479"/>
      <point x="420" y="454" type="curve" smooth="yes"/>
      <point x="438" y="429"/>
      <point x="451" y="400"/>
      <point x="460" y="368" type="curve" smooth="yes"/>
      <point x="469" y="336"/>
      <point x="474" y="303"/>
      <point x="474" y="269" type="curve" smooth="yes"/>
      <point x="474" y="239"/>
      <point x="470" y="211"/>
      <point x="462" y="184" type="curve" smooth="yes"/>
      <point x="454" y="157"/>
      <point x="444" y="131"/>
      <point x="430" y="108" type="curve" smooth="yes"/>
      <point x="416" y="85"/>
      <point x="399" y="64"/>
      <point x="380" y="46" type="curve" smooth="yes"/>
      <point x="361" y="28"/>
      <point x="340" y="15"/>
      <point x="318" y="5" type="curve"/>
      <point x="331" y="-1"/>
      <point x="343" y="-10"/>
      <point x="356" y="-18" type="curve" smooth="yes"/>
      <point x="369" y="-26"/>
      <point x="382" y="-34"/>
      <point x="394" y="-41" type="curve" smooth="yes"/>
      <point x="406" y="-48"/>
      <point x="418" y="-54"/>
      <point x="429" y="-59" type="curve" smooth="yes"/>
      <point x="440" y="-64"/>
      <point x="451" y="-66"/>
      <point x="461" y="-66" type="curve" smooth="yes"/>
      <point x="464" y="-66"/>
      <point x="467" y="-66"/>
      <point x="471" y="-65" type="curve" smooth="yes"/>
      <point x="475" y="-64"/>
      <point x="479" y="-61"/>
      <point x="484" y="-59" type="curve" smooth="yes"/>
      <point x="489" y="-57"/>
      <point x="495" y="-54"/>
      <point x="501" y="-50" type="curve" smooth="yes"/>
      <point x="507" y="-46"/>
      <point x="514" y="-40"/>
      <point x="522" y="-34" type="curve"/>
    </contour>
  </outline>
</glyph>
<glyph name="R" format="2">
  <advance width="477"/>
  <unicode hex="0052"/>
  <outline>
    <contour>
      <point x="21" y="0" type="line"/>
      <point x="21" y="18" type="line"/>
      <point x="40" y="22"/>
      <point x="55" y="25"/>
      <point x="65" y="30" type="curve" smooth="yes"/>
      <point x="75" y="35"/>
      <point x="81" y="39"/>
      <point x="81" y="43" type="curve" smooth="yes"/>
      <point x="81" y="494" type="line"/>
      <point x="71" y="492"/>
      <point x="61" y="492"/>
      <point x="51" y="490" type="curve" smooth="yes"/>
      <point x="41" y="488"/>
      <point x="31" y="488"/>
      <point x="21" y="486" type="curve"/>
      <point x="17" y="512" type="line"/>
      <point x="30" y="515"/>
      <point x="43" y="518"/>
      <point x="57" y="521" type="curve" smooth="yes"/>
      <point x="71" y="524"/>
      <point x="84" y="527"/>
      <point x="98" y="529" type="curve" smooth="yes"/>
      <point x="112" y="531"/>
      <point x="128" y="532"/>
      <point x="144" y="534" type="curve" smooth="yes"/>
      <point x="160" y="536"/>
      <point x="177" y="537"/>
      <point x="195" y="537" type="curve" smooth="yes"/>
      <point x="227" y="537"/>
      <point x="255" y="533"/>
      <point x="279" y="527" type="curve" smooth="yes"/>
      <point x="303" y="521"/>
      <point x="322" y="512"/>
      <point x="338" y="501" type="curve" smooth="yes"/>
      <point x="354" y="490"/>
      <point x="366" y="475"/>
      <point x="374" y="460" type="curve" smooth="yes"/>
      <point x="382" y="445"/>
      <point x="386" y="428"/>
      <point x="386" y="410" type="curve" smooth="yes"/>
      <point x="386" y="390"/>
      <point x="383" y="372"/>
      <point x="377" y="356" type="curve" smooth="yes"/>
      <point x="371" y="340"/>
      <point x="363" y="327"/>
      <point x="353" y="314" type="curve" smooth="yes"/>
      <point x="343" y="301"/>
      <point x="330" y="291"/>
      <point x="316" y="282" type="curve" smooth="yes"/>
      <point x="302" y="273"/>
      <point x="285" y="266"/>
      <point x="268" y="260" type="curve"/>
      <point x="394" y="58" type="line" smooth="yes"/>
      <point x="398" y="52"/>
      <point x="403" y="47"/>
      <point x="408" y="43" type="curve" smooth="yes"/>
      <point x="413" y="39"/>
      <point x="418" y="37"/>
      <point x="424" y="35" type="curve" smooth="yes"/>
      <point x="430" y="33"/>
      <point x="437" y="32"/>
      <point x="444" y="32" type="curve" smooth="yes"/>
      <point x="451" y="32"/>
      <point x="460" y="33"/>
      <point x="470" y="34" type="curve"/>
      <point x="474" y="15" type="line"/>
      <point x="456" y="9"/>
      <point x="439" y="4"/>
      <point x="422" y="0" type="curve" smooth="yes"/>
      <point x="405" y="-4"/>
      <point x="392" y="-6"/>
      <point x="381" y="-6" type="curve" smooth="yes"/>
      <point x="373" y="-6"/>
      <point x="365" y="-4"/>
      <point x="357" y="1" type="curve" smooth="yes"/>
      <point x="349" y="6"/>
      <point x="344" y="11"/>
      <point x="340" y="17" type="curve" smooth="yes"/>
      <point x="214" y="250" type="line"/>
      <point x="210" y="249"/>
      <point x="207" y="250"/>
      <point x="203" y="250" type="curve" smooth="yes"/>
      <point x="192" y="250" type="line" smooth="yes"/>
      <point x="185" y="250"/>
      <point x="177" y="249"/>
      <point x="170" y="250" type="curve" smooth="yes"/>
      <point x="163" y="251"/>
      <point x="156" y="252"/>
      <point x="148" y="254" type="curve"/>
      <point x="148" y="43" type="line" smooth="yes"/>
      <point x="148" y="40"/>
      <point x="152" y="36"/>
      <point x="162" y="31" type="curve" smooth="yes"/>
      <point x="172" y="26"/>
      <point x="188" y="22"/>
      <point x="208" y="18" type="curve"/>
      <point x="208" y="0" type="line"/>
    </contour>
    <contour>
      <point x="180" y="502" type="curve" smooth="yes"/>
      <point x="170" y="502"/>
      <point x="159" y="502"/>
      <point x="148" y="501" type="curve"/>
      <point x="148" y="287" type="line"/>
      <point x="155" y="285"/>
      <point x="161" y="285"/>
      <point x="167" y="285" type="curve" smooth="yes"/>
      <point x="185" y="285" type="line" smooth="yes"/>
      <point x="229" y="285"/>
      <point x="263" y="295"/>
      <point x="286" y="314" type="curve" smooth="yes"/>
      <point x="309" y="333"/>
      <point x="321" y="361"/>
      <point x="321" y="398" type="curve" smooth="yes"/>
      <point x="321" y="413"/>
      <point x="319" y="427"/>
      <point x="313" y="440" type="curve" smooth="yes"/>
      <point x="307" y="453"/>
      <point x="299" y="464"/>
      <point x="288" y="473" type="curve" smooth="yes"/>
      <point x="277" y="482"/>
      <point x="261" y="489"/>
      <point x="243" y="494" type="curve" smooth="yes"/>
      <point x="225" y="499"/>
      <point x="205" y="502"/>
    </contour>
  </outline>
</glyph>
<glyph name="S" format="2">
  <advance width="404"/>
  <unicode hex="0053"/>
  <outline>
    <contour>
      <point x="368" y="157" type="curve" smooth="yes"/>
      <point x="368" y="144"/>
      <point x="366" y="131"/>
      <point x="363" y="118" type="curve" smooth="yes"/>
      <point x="360" y="105"/>
      <point x="354" y="93"/>
      <point x="348" y="80" type="curve" smooth="yes"/>
      <point x="342" y="67"/>
      <point x="332" y="55"/>
      <point x="322" y="44" type="curve" smooth="yes"/>
      <point x="312" y="33"/>
      <point x="301" y="23"/>
      <point x="287" y="15" type="curve" smooth="yes"/>
      <point x="273" y="7"/>
      <point x="258" y="0"/>
      <point x="240" y="-5" type="curve" smooth="yes"/>
      <point x="222" y="-10"/>
      <point x="204" y="-13"/>
      <point x="183" y="-13" type="curve" smooth="yes"/>
      <point x="174" y="-13"/>
      <point x="164" y="-12"/>
      <point x="153" y="-10" type="curve" smooth="yes"/>
      <point x="142" y="-8"/>
      <point x="131" y="-5"/>
      <point x="120" y="-2" type="curve" smooth="yes"/>
      <point x="109" y="1"/>
      <point x="97" y="6"/>
      <point x="86" y="11" type="curve" smooth="yes"/>
      <point x="75" y="16"/>
      <point x="64" y="22"/>
      <point x="54" y="28" type="curve" smooth="yes"/>
      <point x="52" y="29"/>
      <point x="51" y="34"/>
      <point x="50" y="42" type="curve" smooth="yes"/>
      <point x="49" y="50"/>
      <point x="49" y="61"/>
      <point x="49" y="72" type="curve" smooth="yes"/>
      <point x="49" y="83"/>
      <point x="49" y="94"/>
      <point x="50" y="106" type="curve" smooth="yes"/>
      <point x="51" y="118"/>
      <point x="52" y="127"/>
      <point x="54" y="134" type="curve"/>
      <point x="71" y="133" type="line"/>
      <point x="77" y="117"/>
      <point x="85" y="102"/>
      <point x="95" y="90" type="curve" smooth="yes"/>
      <point x="105" y="78"/>
      <point x="115" y="69"/>
      <point x="127" y="61" type="curve" smooth="yes"/>
      <point x="139" y="53"/>
      <point x="151" y="47"/>
      <point x="165" y="43" type="curve" smooth="yes"/>
      <point x="179" y="39"/>
      <point x="192" y="38"/>
      <point x="206" y="38" type="curve" smooth="yes"/>
      <point x="219" y="38"/>
      <point x="231" y="40"/>
      <point x="244" y="45" type="curve" smooth="yes"/>
      <point x="257" y="50"/>
      <point x="268" y="57"/>
      <point x="278" y="66" type="curve" smooth="yes"/>
      <point x="288" y="75"/>
      <point x="296" y="85"/>
      <point x="302" y="97" type="curve" smooth="yes"/>
      <point x="308" y="109"/>
      <point x="312" y="120"/>
      <point x="312" y="134" type="curve" smooth="yes"/>
      <point x="312" y="151"/>
      <point x="308" y="166"/>
      <point x="301" y="178" type="curve" smooth="yes"/>
      <point x="294" y="190"/>
      <point x="283" y="201"/>
      <point x="271" y="211" type="curve" smooth="yes"/>
      <point x="259" y="221"/>
      <point x="245" y="229"/>
      <point x="230" y="236" type="curve" smooth="yes"/>
      <point x="215" y="243"/>
      <point x="198" y="251"/>
      <point x="182" y="258" type="curve" smooth="yes"/>
      <point x="166" y="265"/>
      <point x="149" y="274"/>
      <point x="134" y="282" type="curve" smooth="yes"/>
      <point x="119" y="290"/>
      <point x="106" y="300"/>
      <point x="94" y="311" type="curve" smooth="yes"/>
      <point x="82" y="322"/>
      <point x="71" y="336"/>
      <point x="64" y="350" type="curve" smooth="yes"/>
      <point x="57" y="364"/>
      <point x="53" y="382"/>
      <point x="53" y="402" type="curve" smooth="yes"/>
      <point x="53" y="411"/>
      <point x="55" y="420"/>
      <point x="57" y="430" type="curve" smooth="yes"/>
      <point x="59" y="440"/>
      <point x="63" y="450"/>
      <point x="69" y="460" type="curve" smooth="yes"/>
      <point x="75" y="470"/>
      <point x="81" y="479"/>
      <point x="90" y="489" type="curve" smooth="yes"/>
      <point x="99" y="499"/>
      <point x="110" y="507"/>
      <point x="122" y="514" type="curve" smooth="yes"/>
      <point x="134" y="521"/>
      <point x="148" y="526"/>
      <point x="164" y="530" type="curve" smooth="yes"/>
      <point x="180" y="534"/>
      <point x="199" y="537"/>
      <point x="219" y="537" type="curve" smooth="yes"/>
      <point x="232" y="537"/>
      <point x="244" y="536"/>
      <point x="257" y="534" type="curve" smooth="yes"/>
      <point x="270" y="532"/>
      <point x="281" y="529"/>
      <point x="292" y="526" type="curve" smooth="yes"/>
      <point x="303" y="523"/>
      <point x="313" y="519"/>
      <point x="322" y="514" type="curve" smooth="yes"/>
      <point x="331" y="509"/>
      <point x="337" y="504"/>
      <point x="342" y="498" type="curve" smooth="yes"/>
      <point x="344" y="496"/>
      <point x="344" y="494"/>
      <point x="342" y="489" type="curve" smooth="yes"/>
      <point x="340" y="484"/>
      <point x="338" y="479"/>
      <point x="334" y="473" type="curve" smooth="yes"/>
      <point x="330" y="467"/>
      <point x="327" y="462"/>
      <point x="322" y="456" type="curve" smooth="yes"/>
      <point x="317" y="450"/>
      <point x="313" y="446"/>
      <point x="310" y="443" type="curve"/>
      <point x="295" y="446" type="line"/>
      <point x="287" y="455"/>
      <point x="279" y="463"/>
      <point x="270" y="469" type="curve" smooth="yes"/>
      <point x="261" y="475"/>
      <point x="254" y="480"/>
      <point x="245" y="484" type="curve" smooth="yes"/>
      <point x="236" y="488"/>
      <point x="228" y="490"/>
      <point x="219" y="492" type="curve" smooth="yes"/>
      <point x="210" y="494"/>
      <point x="202" y="494"/>
      <point x="194" y="494" type="curve" smooth="yes"/>
      <point x="179" y="494"/>
      <point x="165" y="493"/>
      <point x="154" y="488" type="curve" smooth="yes"/>
      <point x="143" y="483"/>
      <point x="134" y="477"/>
      <point x="127" y="470" type="curve" smooth="yes"/>
      <point x="120" y="463"/>
      <point x="115" y="455"/>
      <point x="112" y="446" type="curve" smooth="yes"/>
      <point x="109" y="437"/>
      <point x="107" y="430"/>
      <point x="107" y="422" type="curve" smooth="yes"/>
      <point x="107" y="409"/>
      <point x="111" y="397"/>
      <point x="118" y="387" type="curve" smooth="yes"/>
      <point x="125" y="377"/>
      <point x="136" y="368"/>
      <point x="148" y="359" type="curve" smooth="yes"/>
      <point x="160" y="350"/>
      <point x="174" y="342"/>
      <point x="190" y="335" type="curve" smooth="yes"/>
      <point x="206" y="328"/>
      <point x="222" y="320"/>
      <point x="238" y="312" type="curve" smooth="yes"/>
      <point x="254" y="304"/>
      <point x="270" y="296"/>
      <point x="286" y="286" type="curve" smooth="yes"/>
      <point x="302" y="276"/>
      <point x="315" y="265"/>
      <point x="327" y="253" type="curve" smooth="yes"/>
      <point x="339" y="241"/>
      <point x="350" y="227"/>
      <point x="357" y="211" type="curve" smooth="yes"/>
      <point x="364" y="195"/>
      <point x="368" y="178"/>
    </contour>
  </outline>
</glyph>
<glyph name="T" format="2">
  <advance width="468"/>
  <unicode hex="0054"/>
  <outline>
    <contour>
      <point x="128" y="0" type="line"/>
      <point x="128" y="18" type="line"/>
      <point x="141" y="20"/>
      <point x="151" y="24"/>
      <point x="160" y="26" type="curve" smooth="yes"/>
      <point x="169" y="28"/>
      <point x="175" y="32"/>
      <point x="181" y="34" type="curve" smooth="yes"/>
      <point x="187" y="36"/>
      <point x="190" y="40"/>
      <point x="192" y="42" type="curve" smooth="yes"/>
      <point x="194" y="44"/>
      <point x="196" y="46"/>
      <point x="196" y="48" type="curve" smooth="yes"/>
      <point x="196" y="486" type="line"/>
      <point x="71" y="486" type="line" smooth="yes"/>
      <point x="67" y="486"/>
      <point x="63" y="487"/>
      <point x="60" y="485" type="curve" smooth="yes"/>
      <point x="57" y="483"/>
      <point x="53" y="479"/>
      <point x="50" y="474" type="curve" smooth="yes"/>
      <point x="47" y="469"/>
      <point x="43" y="463"/>
      <point x="38" y="453" type="curve" smooth="yes"/>
      <point x="33" y="443"/>
      <point x="28" y="430"/>
      <point x="22" y="414" type="curve"/>
      <point x="4" y="422" type="line"/>
      <point x="6" y="438"/>
      <point x="8" y="456"/>
      <point x="10" y="474" type="curve" smooth="yes"/>
      <point x="12" y="492"/>
      <point x="15" y="510"/>
      <point x="18" y="524" type="curve"/>
      <point x="438" y="524" type="line"/>
      <point x="450" y="514" type="line"/>
      <point x="449" y="500"/>
      <point x="448" y="484"/>
      <point x="446" y="467" type="curve" smooth="yes"/>
      <point x="444" y="450"/>
      <point x="441" y="434"/>
      <point x="438" y="416" type="curve"/>
      <point x="419" y="416" type="line"/>
      <point x="417" y="429"/>
      <point x="414" y="440"/>
      <point x="412" y="449" type="curve" smooth="yes"/>
      <point x="410" y="458"/>
      <point x="407" y="464"/>
      <point x="405" y="470" type="curve" smooth="yes"/>
      <point x="403" y="476"/>
      <point x="399" y="481"/>
      <point x="395" y="483" type="curve" smooth="yes"/>
      <point x="391" y="485"/>
      <point x="387" y="486"/>
      <point x="381" y="486" type="curve" smooth="yes"/>
      <point x="262" y="486" type="line"/>
      <point x="262" y="48" type="line" smooth="yes"/>
      <point x="262" y="44"/>
      <point x="268" y="40"/>
      <point x="278" y="34" type="curve" smooth="yes"/>
      <point x="288" y="28"/>
      <point x="304" y="24"/>
      <point x="330" y="18" type="curve"/>
      <point x="330" y="0" type="line"/>
    </contour>
  </outline>
</glyph>
<glyph name="U" format="2">
  <advance width="556"/>
  <unicode hex="0055"/>
  <outline>
    <contour>
      <point x="530" y="506" type="line"/>
      <point x="511" y="502"/>
      <point x="496" y="499"/>
      <point x="486" y="494" type="curve" smooth="yes"/>
      <point x="476" y="489"/>
      <point x="470" y="485"/>
      <point x="470" y="481" type="curve" smooth="yes"/>
      <point x="470" y="218" type="line" smooth="yes"/>
      <point x="470" y="182"/>
      <point x="466" y="150"/>
      <point x="457" y="121" type="curve" smooth="yes"/>
      <point x="448" y="92"/>
      <point x="435" y="68"/>
      <point x="418" y="48" type="curve" smooth="yes"/>
      <point x="401" y="28"/>
      <point x="382" y="13"/>
      <point x="358" y="3" type="curve" smooth="yes"/>
      <point x="334" y="-7"/>
      <point x="307" y="-13"/>
      <point x="277" y="-13" type="curve" smooth="yes"/>
      <point x="248" y="-13"/>
      <point x="222" y="-9"/>
      <point x="198" y="-1" type="curve" smooth="yes"/>
      <point x="174" y="7"/>
      <point x="154" y="19"/>
      <point x="136" y="35" type="curve" smooth="yes"/>
      <point x="118" y="51"/>
      <point x="106" y="72"/>
      <point x="96" y="97" type="curve" smooth="yes"/>
      <point x="86" y="122"/>
      <point x="81" y="151"/>
      <point x="81" y="185" type="curve" smooth="yes"/>
      <point x="81" y="481" type="line" smooth="yes"/>
      <point x="81" y="484"/>
      <point x="76" y="488"/>
      <point x="66" y="493" type="curve" smooth="yes"/>
      <point x="56" y="498"/>
      <point x="41" y="502"/>
      <point x="21" y="506" type="curve"/>
      <point x="21" y="524" type="line"/>
      <point x="208" y="524" type="line"/>
      <point x="208" y="506" type="line"/>
      <point x="189" y="502"/>
      <point x="174" y="499"/>
      <point x="164" y="494" type="curve" smooth="yes"/>
      <point x="154" y="489"/>
      <point x="148" y="485"/>
      <point x="148" y="481" type="curve" smooth="yes"/>
      <point x="148" y="206" type="line" smooth="yes"/>
      <point x="148" y="180"/>
      <point x="151" y="155"/>
      <point x="157" y="134" type="curve" smooth="yes"/>
      <point x="163" y="113"/>
      <point x="173" y="95"/>
      <point x="185" y="81" type="curve" smooth="yes"/>
      <point x="197" y="67"/>
      <point x="212" y="55"/>
      <point x="230" y="47" type="curve" smooth="yes"/>
      <point x="248" y="39"/>
      <point x="270" y="35"/>
      <point x="294" y="35" type="curve" smooth="yes"/>
      <point x="314" y="35"/>
      <point x="331" y="40"/>
      <point x="346" y="50" type="curve" smooth="yes"/>
      <point x="361" y="60"/>
      <point x="374" y="72"/>
      <point x="384" y="87" type="curve" smooth="yes"/>
      <point x="394" y="102"/>
      <point x="402" y="121"/>
      <point x="408" y="141" type="curve" smooth="yes"/>
      <point x="414" y="161"/>
      <point x="416" y="180"/>
      <point x="416" y="201" type="curve" smooth="yes"/>
      <point x="416" y="481" type="line" smooth="yes"/>
      <point x="416" y="484"/>
      <point x="411" y="488"/>
      <point x="401" y="493" type="curve" smooth="yes"/>
      <point x="391" y="498"/>
      <point x="376" y="502"/>
      <point x="356" y="506" type="curve"/>
      <point x="356" y="524" type="line"/>
      <point x="530" y="524" type="line"/>
    </contour>
  </outline>
</glyph>
<glyph name="V" format="2">
  <advance width="553"/>
  <unicode hex="0056"/>
  <outline>
    <contour>
      <point x="537" y="506" type="line"/>
      <point x="518" y="502"/>
      <point x="502" y="499"/>
      <point x="492" y="496" type="curve" smooth="yes"/>
      <point x="482" y="493"/>
      <point x="474" y="487"/>
      <point x="472" y="479" type="curve" smooth="yes"/>
      <point x="313" y="25" type="line" smooth="yes"/>
      <point x="311" y="19"/>
      <point x="308" y="13"/>
      <point x="302" y="9" type="curve" smooth="yes"/>
      <point x="296" y="5"/>
      <point x="290" y="1"/>
      <point x="284" y="-2" type="curve" smooth="yes"/>
      <point x="278" y="-5"/>
      <point x="271" y="-7"/>
      <point x="265" y="-9" type="curve" smooth="yes"/>
      <point x="259" y="-11"/>
      <point x="254" y="-12"/>
      <point x="250" y="-13" type="curve"/>
      <point x="67" y="479" type="line" smooth="yes"/>
      <point x="65" y="486"/>
      <point x="59" y="491"/>
      <point x="49" y="496" type="curve" smooth="yes"/>
      <point x="39" y="501"/>
      <point x="26" y="504"/>
      <point x="8" y="506" type="curve"/>
      <point x="8" y="524" type="line"/>
      <point x="190" y="524" type="line"/>
      <point x="190" y="506" type="line"/>
      <point x="168" y="504"/>
      <point x="152" y="502"/>
      <point x="144" y="498" type="curve" smooth="yes"/>
      <point x="136" y="494"/>
      <point x="133" y="488"/>
      <point x="136" y="480" type="curve" smooth="yes"/>
      <point x="283" y="85" type="line"/>
      <point x="422" y="479" type="line" smooth="yes"/>
      <point x="425" y="487"/>
      <point x="423" y="493"/>
      <point x="413" y="497" type="curve" smooth="yes"/>
      <point x="403" y="501"/>
      <point x="385" y="504"/>
      <point x="363" y="506" type="curve"/>
      <point x="363" y="524" type="line"/>
      <point x="537" y="524" type="line"/>
    </contour>
  </outline>
</glyph>
<glyph name="W" format="2">
  <advance width="724"/>
  <unicode hex="0057"/>
  <outline>
    <contour>
      <point x="708" y="506" type="line"/>
      <point x="696" y="504"/>
      <point x="686" y="501"/>
      <point x="678" y="499" type="curve" smooth="yes"/>
      <point x="670" y="497"/>
      <point x="663" y="495"/>
      <point x="658" y="493" type="curve" smooth="yes"/>
      <point x="653" y="491"/>
      <point x="650" y="488"/>
      <point x="648" y="486" type="curve" smooth="yes"/>
      <point x="646" y="484"/>
      <point x="645" y="483"/>
      <point x="645" y="481" type="curve" smooth="yes"/>
      <point x="550" y="25" type="line" smooth="yes"/>
      <point x="548" y="19"/>
      <point x="546" y="14"/>
      <point x="541" y="10" type="curve" smooth="yes"/>
      <point x="536" y="6"/>
      <point x="531" y="1"/>
      <point x="525" y="-2" type="curve" smooth="yes"/>
      <point x="519" y="-5"/>
      <point x="513" y="-7"/>
      <point x="507" y="-9" type="curve" smooth="yes"/>
      <point x="501" y="-11"/>
      <point x="496" y="-12"/>
      <point x="492" y="-13" type="curve"/>
      <point x="356" y="393" type="line"/>
      <point x="237" y="25" type="line" smooth="yes"/>
      <point x="235" y="19"/>
      <point x="231" y="14"/>
      <point x="226" y="10" type="curve" smooth="yes"/>
      <point x="221" y="6"/>
      <point x="216" y="2"/>
      <point x="210" y="-1" type="curve" smooth="yes"/>
      <point x="204" y="-4"/>
      <point x="198" y="-6"/>
      <point x="192" y="-8" type="curve" smooth="yes"/>
      <point x="186" y="-10"/>
      <point x="180" y="-12"/>
      <point x="174" y="-13" type="curve"/>
      <point x="66" y="477" type="line" smooth="yes"/>
      <point x="64" y="484"/>
      <point x="59" y="489"/>
      <point x="50" y="494" type="curve" smooth="yes"/>
      <point x="41" y="499"/>
      <point x="28" y="502"/>
      <point x="8" y="506" type="curve"/>
      <point x="8" y="524" type="line"/>
      <point x="186" y="524" type="line"/>
      <point x="186" y="506" type="line"/>
      <point x="172" y="504"/>
      <point x="162" y="503"/>
      <point x="154" y="501" type="curve" smooth="yes"/>
      <point x="146" y="499"/>
      <point x="142" y="496"/>
      <point x="138" y="494" type="curve" smooth="yes"/>
      <point x="134" y="492"/>
      <point x="131" y="489"/>
      <point x="130" y="486" type="curve" smooth="yes"/>
      <point x="129" y="483"/>
      <point x="129" y="480"/>
      <point x="130" y="477" type="curve" smooth="yes"/>
      <point x="213" y="104" type="line"/>
      <point x="348" y="524" type="line"/>
      <point x="370" y="524" type="line"/>
      <point x="518" y="104" type="line"/>
      <point x="596" y="481" type="line" smooth="yes"/>
      <point x="597" y="484"/>
      <point x="595" y="488"/>
      <point x="592" y="490" type="curve" smooth="yes"/>
      <point x="589" y="492"/>
      <point x="584" y="494"/>
      <point x="578" y="496" type="curve" smooth="yes"/>
      <point x="572" y="498"/>
      <point x="566" y="500"/>
      <point x="558" y="502" type="curve" smooth="yes"/>
      <point x="550" y="504"/>
      <point x="542" y="504"/>
      <point x="532" y="506" type="curve"/>
      <point x="532" y="524" type="line"/>
      <point x="708" y="524" type="line"/>
    </contour>
  </outline>
</glyph>
<glyph name="Y" format="2">
  <advance width="505"/>
  <unicode hex="0059"/>
  <outline>
    <contour>
      <point x="150" y="0" type="line"/>
      <point x="150" y="18" type="line"/>
      <point x="176" y="24"/>
      <point x="193" y="28"/>
      <point x="203" y="34" type="curve" smooth="yes"/>
      <point x="213" y="40"/>
      <point x="218" y="44"/>
      <point x="218" y="48" type="curve" smooth="yes"/>
      <point x="218" y="223" type="line"/>
      <point x="208" y="245"/>
      <point x="196" y="269"/>
      <point x="183" y="294" type="curve" smooth="yes"/>
      <point x="170" y="319"/>
      <point x="157" y="342"/>
      <point x="143" y="365" type="curve" smooth="yes"/>
      <point x="129" y="388"/>
      <point x="116" y="409"/>
      <point x="103" y="429" type="curve" smooth="yes"/>
      <point x="90" y="449"/>
      <point x="80" y="465"/>
      <point x="70" y="479" type="curve" smooth="yes"/>
      <point x="68" y="482"/>
      <point x="65" y="485"/>
      <point x="62" y="487" type="curve" smooth="yes"/>
      <point x="59" y="489"/>
      <point x="54" y="493"/>
      <point x="49" y="495" type="curve" smooth="yes"/>
      <point x="44" y="497"/>
      <point x="37" y="498"/>
      <point x="30" y="500" type="curve" smooth="yes"/>
      <point x="23" y="502"/>
      <point x="14" y="502"/>
      <point x="2" y="502" type="curve"/>
      <point x="0" y="519" type="line"/>
      <point x="16" y="521"/>
      <point x="33" y="524"/>
      <point x="49" y="526" type="curve" smooth="yes"/>
      <point x="65" y="528"/>
      <point x="79" y="528"/>
      <point x="91" y="528" type="curve" smooth="yes"/>
      <point x="104" y="528"/>
      <point x="114" y="523"/>
      <point x="123" y="512" type="curve" smooth="yes"/>
      <point x="133" y="498"/>
      <point x="145" y="483"/>
      <point x="157" y="465" type="curve" smooth="yes"/>
      <point x="169" y="447"/>
      <point x="181" y="427"/>
      <point x="193" y="407" type="curve" smooth="yes"/>
      <point x="205" y="387"/>
      <point x="216" y="367"/>
      <point x="227" y="345" type="curve" smooth="yes"/>
      <point x="238" y="323"/>
      <point x="249" y="303"/>
      <point x="259" y="283" type="curve"/>
      <point x="370" y="479" type="line" smooth="yes"/>
      <point x="374" y="486"/>
      <point x="372" y="492"/>
      <point x="366" y="496" type="curve" smooth="yes"/>
      <point x="360" y="500"/>
      <point x="347" y="504"/>
      <point x="325" y="506" type="curve"/>
      <point x="325" y="524" type="line"/>
      <point x="490" y="524" type="line"/>
      <point x="490" y="506" type="line"/>
      <point x="471" y="502"/>
      <point x="456" y="499"/>
      <point x="446" y="495" type="curve" smooth="yes"/>
      <point x="436" y="491"/>
      <point x="428" y="486"/>
      <point x="424" y="479" type="curve" smooth="yes"/>
      <point x="285" y="225" type="line"/>
      <point x="285" y="48" type="line" smooth="yes"/>
      <point x="285" y="46"/>
      <point x="286" y="44"/>
      <point x="288" y="42" type="curve" smooth="yes"/>
      <point x="290" y="40"/>
      <point x="294" y="36"/>
      <point x="300" y="34" type="curve" smooth="yes"/>
      <point x="306" y="32"/>
      <point x="312" y="28"/>
      <point x="321" y="26" type="curve" smooth="yes"/>
      <point x="330" y="24"/>
      <point x="341" y="20"/>
      <point x="354" y="18" type="curve"/>
      <point x="354" y="0" type="line"/>
    </contour>
  </outline>
</glyph>
<glyph name="Z" format="2">
  <advance width="444"/>
  <unicode hex="005A"/>
  <outline>
    <contour>
      <point x="412" y="122" type="line"/>
      <point x="411" y="113"/>
      <point x="412" y="103"/>
      <point x="411" y="92" type="curve" smooth="yes"/>
      <point x="410" y="81"/>
      <point x="411" y="71"/>
      <point x="410" y="60" type="curve" smooth="yes"/>
      <point x="409" y="49"/>
      <point x="409" y="38"/>
      <point x="408" y="28" type="curve" smooth="yes"/>
      <point x="407" y="18"/>
      <point x="407" y="8"/>
      <point x="407" y="0" type="curve"/>
      <point x="37" y="0" type="line"/>
      <point x="25" y="18" type="line"/>
      <point x="320" y="482" type="line"/>
      <point x="130" y="482" type="line" smooth="yes"/>
      <point x="125" y="482"/>
      <point x="121" y="481"/>
      <point x="115" y="478" type="curve" smooth="yes"/>
      <point x="109" y="475"/>
      <point x="104" y="469"/>
      <point x="99" y="463" type="curve" smooth="yes"/>
      <point x="94" y="457"/>
      <point x="91" y="448"/>
      <point x="86" y="438" type="curve" smooth="yes"/>
      <point x="81" y="428"/>
      <point x="77" y="415"/>
      <point x="74" y="401" type="curve"/>
      <point x="50" y="406" type="line"/>
      <point x="62" y="531" type="line"/>
      <point x="69" y="529"/>
      <point x="77" y="528"/>
      <point x="83" y="527" type="curve" smooth="yes"/>
      <point x="89" y="526"/>
      <point x="96" y="526"/>
      <point x="102" y="525" type="curve" smooth="yes"/>
      <point x="108" y="524"/>
      <point x="114" y="524"/>
      <point x="120" y="524" type="curve" smooth="yes"/>
      <point x="398" y="524" type="line"/>
      <point x="408" y="506" type="line"/>
      <point x="115" y="42" type="line"/>
      <point x="332" y="42" type="line" smooth="yes"/>
      <point x="338" y="42"/>
      <point x="343" y="44"/>
      <point x="348" y="46" type="curve" smooth="yes"/>
      <point x="353" y="48"/>
      <point x="358" y="53"/>
      <point x="362" y="59" type="curve" smooth="yes"/>
      <point x="366" y="65"/>
      <point x="370" y="75"/>
      <point x="375" y="86" type="curve" smooth="yes"/>
      <point x="380" y="97"/>
      <point x="384" y="111"/>
      <point x="390" y="128" type="curve"/>
    </contour>
  </outline>
</glyph>
<glyph name="bracketleft" format="2">
  <advance width="261"/>
  <unicode hex="005B"/>
  <outline>
    <contour>
      <point x="246" y="-103" type="line"/>
      <point x="244" y="-109"/>
      <point x="242" y="-116"/>
      <point x="240" y="-122" type="curve" smooth="yes"/>
      <point x="238" y="-128"/>
      <point x="236" y="-134"/>
      <point x="234" y="-139" type="curve"/>
      <point x="58" y="-139" type="line"/>
      <point x="58" y="666" type="line"/>
      <point x="231" y="666" type="line"/>
      <point x="245" y="654" type="line"/>
      <point x="243" y="647"/>
      <point x="241" y="641"/>
      <point x="239" y="634" type="curve" smooth="yes"/>
      <point x="237" y="627"/>
      <point x="236" y="621"/>
      <point x="234" y="618" type="curve"/>
      <point x="117" y="618" type="line"/>
      <point x="117" y="-91" type="line"/>
      <point x="231" y="-91" type="line"/>
    </contour>
  </outline>
</glyph>
<glyph name="backslash" format="2">
  <advance width="399"/>
  <unicode hex="005C"/>
  <outline>
    <contour>
      <point x="362" y="-139" type="line"/>
      <point x="359" y="-138"/>
      <point x="355" y="-137"/>
      <point x="350" y="-135" type="curve" smooth="yes"/>
      <point x="345" y="-133"/>
      <point x="342" y="-132"/>
      <point x="337" y="-130" type="curve" smooth="yes"/>
      <point x="332" y="-128"/>
      <point x="328" y="-126"/>
      <point x="324" y="-124" type="curve" smooth="yes"/>
      <point x="320" y="-122"/>
      <point x="316" y="-120"/>
      <point x="314" y="-118" type="curve"/>
      <point x="23" y="657" type="line"/>
      <point x="38" y="666" type="line"/>
      <point x="54" y="662"/>
      <point x="71" y="656"/>
      <point x="86" y="646" type="curve"/>
      <point x="377" y="-129" type="line"/>
    </contour>
  </outline>
</glyph>
<glyph name="bracketright" format="2">
  <advance width="261"/>
  <unicode hex="005D"/>
  <outline>
    <contour>
      <point x="31" y="-139" type="line"/>
      <point x="18" y="-127" type="line"/>
      <point x="19" y="-121"/>
      <point x="20" y="-114"/>
      <point x="22" y="-107" type="curve" smooth="yes"/>
      <point x="24" y="-100"/>
      <point x="26" y="-95"/>
      <point x="28" y="-91" type="curve"/>
      <point x="146" y="-91" type="line"/>
      <point x="146" y="618" type="line"/>
      <point x="31" y="618" type="line"/>
      <point x="17" y="629" type="line"/>
      <point x="18" y="635"/>
      <point x="20" y="641"/>
      <point x="22" y="648" type="curve" smooth="yes"/>
      <point x="24" y="655"/>
      <point x="26" y="661"/>
      <point x="28" y="666" type="curve"/>
      <point x="204" y="666" type="line"/>
      <point x="204" y="-139" type="line"/>
    </contour>
  </outline>
</glyph>
<glyph name="asciicircum" format="2">
  <advance width="419"/>
  <unicode hex="005E"/>
  <outline>
    <contour>
      <point x="378" y="264" type="line"/>
      <point x="371" y="258"/>
      <point x="363" y="252"/>
      <point x="357" y="248" type="curve" smooth="yes"/>
      <point x="351" y="244"/>
      <point x="344" y="240"/>
      <point x="334" y="235" type="curve"/>
      <point x="318" y="246" type="line"/>
      <point x="200" y="547" type="line"/>
      <point x="96" y="264" type="line"/>
      <point x="93" y="262"/>
      <point x="90" y="259"/>
      <point x="86" y="256" type="curve" smooth="yes"/>
      <point x="82" y="253"/>
      <point x="78" y="249"/>
      <point x="74" y="247" type="curve" smooth="yes"/>
      <point x="70" y="245"/>
      <point x="66" y="242"/>
      <point x="62" y="240" type="curve" smooth="yes"/>
      <point x="58" y="238"/>
      <point x="53" y="237"/>
      <point x="51" y="235" type="curve"/>
      <point x="42" y="246" type="line"/>
      <point x="175" y="608" type="line"/>
      <point x="178" y="611"/>
      <point x="183" y="615"/>
      <point x="188" y="618" type="curve" smooth="yes"/>
      <point x="193" y="621"/>
      <point x="197" y="626"/>
      <point x="202" y="629" type="curve" smooth="yes"/>
      <point x="207" y="632"/>
      <point x="213" y="636"/>
      <point x="218" y="638" type="curve" smooth="yes"/>
      <point x="223" y="640"/>
      <point x="227" y="643"/>
      <point x="231" y="645" type="curve"/>
    </contour>
  </outline>
</glyph>
<glyph name="underscore" format="2">
  <advance width="333"/>
  <unicode hex="005F"/>
  <outline>
    <contour>
      <point x="346" y="-65" type="line"/>
      <point x="344" y="-71"/>
      <point x="342" y="-77"/>
      <point x="340" y="-84" type="curve" smooth="yes"/>
      <point x="338" y="-91"/>
      <point x="336" y="-96"/>
      <point x="334" y="-102" type="curve"/>
      <point x="0" y="-102" type="line"/>
      <point x="-10" y="-91" type="line"/>
      <point x="-8" y="-85"/>
      <point x="-7" y="-79"/>
      <point x="-5" y="-73" type="curve" smooth="yes"/>
      <point x="-3" y="-67"/>
      <point x="0" y="-60"/>
      <point x="2" y="-54" type="curve"/>
      <point x="336" y="-54" type="line"/>
    </contour>
  </outline>
</glyph>
<glyph name="grave" format="2">
  <advance width="271"/>
  <unicode hex="0060"/>
  <outline>
    <contour>
      <point x="182" y="449" type="line"/>
      <point x="180" y="447"/>
      <point x="176" y="444"/>
      <point x="172" y="442" type="curve" smooth="yes"/>
      <point x="168" y="440"/>
      <point x="164" y="437"/>
      <point x="159" y="435" type="curve"/>
      <point x="13" y="592" type="line"/>
      <point x="22" y="610" type="line"/>
      <point x="24" y="611"/>
      <point x="28" y="611"/>
      <point x="34" y="612" type="curve" smooth="yes"/>
      <point x="40" y="613"/>
      <point x="45" y="614"/>
      <point x="51" y="615" type="curve" smooth="yes"/>
      <point x="69" y="618" type="line"/>
      <point x="69" y="618"/>
      <point x="79" y="619"/>
      <point x="82" y="619" type="curve"/>
    </contour>
  </outline>
</glyph>
